<svg 
 xmlns="http://www.w3.org/2000/svg"
 xmlns:xlink="http://www.w3.org/1999/xlink"
 width="900px" height="659px">
<defs>
<linearGradient id="PSgrad_0" x1="0%" x2="0%" y1="100%" y2="0%">
  <stop offset="0%" stop-color="rgb(249,223,183)" stop-opacity="1" />
  <stop offset="100%" stop-color="rgb(197,241,243)" stop-opacity="1" />
</linearGradient>

</defs>
<path fill-rule="evenodd"  opacity="0.702" fill="rgb(233, 249, 207)"
 d="M780.080,355.693 C715.294,391.163 570.526,379.015 601.657,503.151 C656.481,721.766 276.910,662.986 77.968,608.362 C-109.222,556.964 83.052,453.261 211.806,421.581 C340.560,389.902 38.987,340.360 106.296,119.904 C173.604,-100.553 274.611,84.609 422.849,200.274 C571.086,315.938 623.781,143.036 740.490,136.327 C1031.844,119.579 844.866,320.223 780.080,355.693 ZM504.992,158.568 C463.520,138.413 446.242,88.461 466.401,46.997 C486.560,5.533 536.522,-11.741 577.994,8.414 C619.466,28.569 636.743,78.521 616.584,119.985 C596.425,161.449 546.463,178.724 504.992,158.568 ZM110.340,344.815 C90.341,393.934 61.635,409.276 52.534,390.227 C43.434,371.179 64.072,363.058 43.738,325.861 C-12.810,222.417 118.552,324.646 110.340,344.815 ZM706.003,431.829 C731.410,444.155 741.996,474.702 729.645,500.058 C717.295,525.415 686.686,535.978 661.278,523.653 C635.870,511.327 625.285,480.780 637.636,455.424 C649.986,430.067 680.595,419.504 706.003,431.829 Z"/>
<path fill="url(#PSgrad_0)"
 d="M780.080,355.693 C715.294,391.163 570.526,379.015 601.657,503.151 C656.481,721.766 276.910,662.986 77.968,608.362 C-109.222,556.964 83.052,453.261 211.806,421.581 C340.560,389.902 38.987,340.360 106.296,119.904 C173.604,-100.553 274.611,84.609 422.849,200.274 C571.086,315.938 623.781,143.036 740.490,136.327 C1031.844,119.579 844.866,320.223 780.080,355.693 ZM504.992,158.568 C463.520,138.413 446.242,88.461 466.401,46.997 C486.560,5.533 536.522,-11.741 577.994,8.414 C619.466,28.569 636.743,78.521 616.584,119.985 C596.425,161.449 546.463,178.724 504.992,158.568 ZM110.340,344.815 C90.341,393.934 61.635,409.276 52.534,390.227 C43.434,371.179 64.072,363.058 43.738,325.861 C-12.810,222.417 118.552,324.646 110.340,344.815 ZM706.003,431.829 C731.410,444.155 741.996,474.702 729.645,500.058 C717.295,525.415 686.686,535.978 661.278,523.653 C635.870,511.327 625.285,480.780 637.636,455.424 C649.986,430.067 680.595,419.504 706.003,431.829 Z"/>
</svg>