<svg xmlns="http://www.w3.org/2000/svg" xmlns:xlink="http://www.w3.org/1999/xlink" id="el_GlPRf09xl" viewBox="0 0 2150 1550">
<defs>
<linearGradient id="PSgrad_0" x1="99.985%" x2="0%" y1="1.745%" y2="0%">
  <stop offset="0%" stop-color="rgb(249,240,167)" stop-opacity="1"/>
  <stop offset="100%" stop-color="rgb(191,239,251)" stop-opacity="1"/>
</linearGradient>
<radialGradient id="PSgrad_1">
  <stop offset="0%" stop-color="rgb(158,234,239)" stop-opacity="1"/>
  <stop offset="100%" stop-color="rgb(62,173,186)" stop-opacity="1"/>
</radialGradient>
<linearGradient id="PSgrad_2" x1="99.985%" x2="0%" y1="1.745%" y2="0%">
  <stop offset="0%" stop-color="rgb(153,231,236)" stop-opacity="0.5"/>
  <stop offset="99%" stop-color="rgb(193,241,176)" stop-opacity="0.5"/>
</linearGradient>
<linearGradient id="PSgrad_3" x1="0%" x2="0%" y1="100%" y2="0%">
  <stop offset="0%" stop-color="rgb(241,233,203)" stop-opacity="1"/>
  <stop offset="100%" stop-color="rgb(97,229,236)" stop-opacity="1"/>
</linearGradient>
<radialGradient id="PSgrad_4">
  <stop offset="0%" stop-color="rgb(193,122,70)" stop-opacity="1"/>
  <stop offset="100%" stop-color="rgb(152,56,43)" stop-opacity="1"/>
</radialGradient>
<linearGradient id="PSgrad_5" x1="99.985%" x2="0%" y1="1.745%" y2="0%">
  <stop offset="0%" stop-color="rgb(45,88,36)" stop-opacity="1"/>
  <stop offset="100%" stop-color="rgb(80,173,30)" stop-opacity="1"/>
</linearGradient>
<linearGradient id="PSgrad_6" x1="99.985%" x2="0%" y1="1.745%" y2="0%">
  <stop offset="0%" stop-color="rgb(87,166,69)" stop-opacity="1"/>
  <stop offset="100%" stop-color="rgb(219,229,132)" stop-opacity="1"/>
</linearGradient>
<linearGradient id="PSgrad_7" x1="0%" x2="0%" y1="100%" y2="0%">
  <stop offset="0%" stop-color="rgb(87,166,69)" stop-opacity="1"/>
  <stop offset="100%" stop-color="rgb(219,229,132)" stop-opacity="1"/>
</linearGradient>
<linearGradient id="PSgrad_8" x1="96.126%" x2="0%" y1="0%" y2="27.564%">
  <stop offset="0%" stop-color="rgb(238,173,130)" stop-opacity="1"/>
  <stop offset="100%" stop-color="rgb(255,233,223)" stop-opacity="1"/>
</linearGradient>
<linearGradient id="PSgrad_9" x1="99.863%" x2="0%" y1="0%" y2="5.234%">
  <stop offset="0%" stop-color="rgb(238,173,130)" stop-opacity="1"/>
  <stop offset="100%" stop-color="rgb(255,233,223)" stop-opacity="1"/>
</linearGradient>
<linearGradient id="PSgrad_10" x1="0%" x2="0%" y1="100%" y2="0%">
  <stop offset="0%" stop-color="rgb(72,43,19)" stop-opacity="1"/>
  <stop offset="0%" stop-color="rgb(68,48,22)" stop-opacity="1"/>
  <stop offset="0%" stop-color="rgb(44,28,6)" stop-opacity="1"/>
  <stop offset="100%" stop-color="rgb(144,105,53)" stop-opacity="1"/>
</linearGradient>
<linearGradient id="PSgrad_11" x1="99.027%" x2="0%" y1="0%" y2="13.917%">
  <stop offset="0%" stop-color="rgb(60,37,5)" stop-opacity="1"/>
  <stop offset="100%" stop-color="rgb(170,126,68)" stop-opacity="1"/>
</linearGradient>
<linearGradient id="PSgrad_12" x1="99.985%" x2="0%" y1="1.745%" y2="0%">
  <stop offset="0%" stop-color="rgb(164,164,164)" stop-opacity="1"/>
  <stop offset="100%" stop-color="rgb(255,255,255)" stop-opacity="1"/>
</linearGradient>
<linearGradient id="PSgrad_13" x1="89.101%" x2="0%" y1="45.399%" y2="0%">
  <stop offset="0%" stop-color="rgb(249,196,161)" stop-opacity="1"/>
  <stop offset="100%" stop-color="rgb(255,233,223)" stop-opacity="1"/>
</linearGradient>

</defs>

<g id="el_9uJdiutPPk_an_AvxHkwvJk" data-animator-group="true" data-animator-type="1"><path d="M793.806,27.635 C29.725,155.593 -71.833,518.107 135.867,696.546 C387.537,912.760 471.818,924.854 371.150,992.391 C270.482,1059.927 34.892,1229.273 287.631,1295.733 C526.444,1358.531 1111.049,1494.216 1733.393,1373.935 C2351.751,1254.424 1690.727,969.974 1871.413,802.386 C2027.180,657.909 2222.197,344.259 1855.723,126.369 C1632.065,-6.609 1106.111,-24.666 793.806,27.635 Z" id="el_9uJdiutPPk"/></g>
<g id="el_l5875DQfzb_an_-xGw5GChT" data-animator-group="true" data-animator-type="0"><g id="el_l5875DQfzb_an_KJpeniJO-" data-animator-group="true" data-animator-type="1"><path fill-rule="evenodd" d="M847.603,65.013 C120.626,186.732 -24.095,531.569 173.519,701.307 C412.968,906.979 473.918,945.801 378.139,1010.045 C282.359,1074.288 77.448,1250.289 317.914,1313.508 C545.129,1373.244 1273.837,1382.527 1612.452,1258.774 C2235.022,1031.244 1658.851,959.888 1823.311,792.797 C1965.090,648.750 2005.446,443.811 1717.373,197.495 C1529.227,36.622 1144.743,15.262 847.603,65.013 Z" id="el_l5875DQfzb"/></g></g>

<path d="M805.603,79.013 C78.626,200.732 23.905,525.569 221.519,695.307 C460.968,900.979 521.918,909.801 426.139,974.045 C330.359,1038.288 135.448,1214.289 375.913,1277.508 C603.129,1337.244 1231.837,1346.527 1570.452,1222.774 C2193.022,995.244 1616.851,973.888 1781.311,806.797 C1923.090,662.750 1963.446,457.811 1675.373,211.495 C1487.226,50.622 1102.743,29.262 805.603,79.013 Z" id="el_E2kzxJG8lJ"/>

<g id="el_eC-3lWTqJ_an_ug4UEM86Y" data-animator-group="true" data-animator-type="0"><g id="el_eC-3lWTqJ_an_HeGh-XwKq" data-animator-group="true" data-animator-type="1"><path d="M220.266,702.620 C371.940,973.115 -333.831,1427.730 208.000,1374.000 C420.906,1352.887 1978.250,1056.021 2062.000,367.000 C2096.031,87.023 1306.091,293.401 876.000,132.000 C519.530,-1.774 -298.148,-221.923 220.266,702.620 Z" id="el_eC-3lWTqJ"/></g></g>

<path d="M1138.000,262.000 L1544.000,262.000 C1549.523,262.000 1554.000,266.477 1554.000,272.000 L1554.000,682.000 C1554.000,687.523 1549.523,692.000 1544.000,692.000 L1138.000,692.000 C1132.477,692.000 1128.000,687.523 1128.000,682.000 L1128.000,272.000 C1128.000,266.477 1132.477,262.000 1138.000,262.000 Z" id="el_XZplLaBesV"/>
<g id="el_iiBMBAt1IG_an_4HbYMllup" data-animator-group="true" data-animator-type="0"><path fill-rule="evenodd" d="M1156.324,328.615 C1156.324,328.615 1154.819,323.091 1149.633,326.556 C1144.447,330.022 1145.298,334.928 1149.633,338.394 C1153.968,341.859 1163.014,340.452 1163.014,340.452 C1163.014,340.452 1167.171,350.883 1178.454,349.716 C1189.737,348.550 1189.262,346.113 1189.262,346.113 C1189.262,346.113 1192.647,352.941 1204.187,352.804 C1215.728,352.667 1222.201,344.569 1222.201,344.569 C1222.201,344.569 1243.084,355.257 1254.110,343.540 C1265.136,331.823 1249.993,325.527 1249.993,325.527 C1249.993,325.527 1246.944,310.224 1235.582,308.028 C1224.220,305.833 1211.393,311.631 1211.393,311.631 C1211.393,311.631 1204.484,303.791 1186.174,306.484 C1167.864,309.178 1167.646,319.866 1167.646,319.866 C1167.646,319.866 1162.796,318.973 1159.412,322.954 C1156.027,326.934 1156.324,328.615 1156.324,328.615 Z" id="el_iiBMBAt1IG"/></g>
<g id="el_n5BFBSjnEU_an_WkFg7aEAh" data-animator-group="true" data-animator-type="0"><path fill-rule="evenodd" d="M1190.270,562.694 C1190.270,560.874 1203.792,538.510 1221.995,540.850 C1240.199,543.190 1250.080,564.254 1250.080,564.254 C1250.080,564.254 1260.482,559.573 1264.643,573.616 C1268.804,587.658 1244.879,592.339 1244.879,592.339 C1244.879,592.339 1246.440,603.261 1234.478,602.221 C1222.516,601.181 1210.033,593.379 1210.033,593.379 C1210.033,593.379 1202.492,601.441 1194.951,600.660 C1187.409,599.880 1176.748,594.419 1176.748,594.419 C1176.748,594.419 1167.646,604.041 1158.544,602.221 C1149.443,600.400 1149.183,593.899 1149.183,593.899 C1149.183,593.899 1138.001,598.840 1134.100,591.819 C1130.199,584.798 1139.301,585.058 1139.301,585.058 C1139.301,585.058 1138.521,577.256 1150.223,576.736 C1161.925,576.216 1161.665,579.337 1161.665,579.337 C1161.665,579.337 1165.046,568.155 1175.187,563.214 C1185.329,558.273 1190.270,564.514 1190.270,562.694 Z" id="el_n5BFBSjnEU"/></g>
<g id="el_vbYvx8iCve_an_meV_CoByF" data-animator-group="true" data-animator-type="0"><path fill-rule="evenodd" d="M1503.318,408.729 C1503.317,408.729 1498.863,369.237 1460.603,377.368 C1424.947,384.947 1448.167,408.188 1448.167,408.188 C1448.167,408.188 1431.675,403.322 1428.701,412.514 C1425.728,421.706 1429.783,425.491 1429.783,425.491 C1429.783,425.491 1414.373,414.406 1397.881,428.194 C1381.390,441.982 1400.315,459.014 1409.777,458.474 C1419.239,457.933 1422.213,453.067 1430.864,453.067 C1439.515,453.067 1443.841,461.177 1454.114,458.474 C1464.388,455.770 1469.524,449.822 1473.039,449.282 C1476.554,448.741 1483.042,458.744 1499.533,456.852 C1516.025,454.959 1518.188,447.660 1527.109,449.282 C1536.031,450.904 1539.545,454.418 1541.708,449.282 C1543.871,444.145 1534.138,443.334 1534.138,443.334 C1534.138,443.334 1533.868,434.142 1528.191,429.276 C1522.513,424.409 1516.836,426.032 1516.836,426.032 C1516.836,426.032 1520.080,417.921 1513.592,410.892 C1507.103,403.863 1503.318,408.729 1503.318,408.729 Z" id="el_vbYvx8iCve"/></g>
<path fill-rule="evenodd" d="M1142.443,623.381 L1176.799,592.781 L1207.720,627.971 L1207.720,571.361 L1246.657,571.361 L1246.657,635.621 L1255.287,608.081 L1255.287,588.191 L1281.013,588.191 L1281.013,606.551 L1297.046,627.971 L1306.515,627.971 L1306.515,595.841 L1322.548,574.421 L1322.548,611.141 L1371.178,578.141 L1371.178,624.911 L1377.373,624.911 L1377.373,583.601 L1396.841,609.611 L1396.841,562.181 L1423.020,562.181 L1423.020,534.641 L1435.617,551.471 L1435.617,591.251 L1448.214,574.421 L1474.554,574.421 L1474.554,559.121 L1502.039,595.841 L1502.039,556.061 L1518.072,577.481 L1536.395,553.001 L1536.395,582.071 L1554.719,606.551 L1554.719,687.641 L1133.281,687.641 L1142.443,623.381 Z" id="el_llQzXNcwDh"/>
<path fill-rule="evenodd" d="M1562.000,706.000 L1126.000,706.000 C1120.477,706.000 1116.000,701.523 1116.000,696.000 L1116.000,259.000 C1116.000,253.477 1120.477,249.000 1126.000,249.000 L1562.000,249.000 C1567.523,249.000 1572.000,253.477 1572.000,259.000 L1572.000,696.000 C1572.000,701.523 1567.523,706.000 1562.000,706.000 ZM1329.000,289.000 C1329.000,283.477 1324.523,279.000 1319.000,279.000 L1156.000,279.000 C1150.477,279.000 1146.000,283.477 1146.000,289.000 L1146.000,452.000 C1146.000,457.523 1150.477,462.000 1156.000,462.000 L1319.000,462.000 C1324.523,462.000 1329.000,457.523 1329.000,452.000 L1329.000,289.000 ZM1329.000,502.000 C1329.000,496.477 1324.523,492.000 1319.000,492.000 L1156.000,492.000 C1150.477,492.000 1146.000,496.477 1146.000,502.000 L1146.000,665.000 C1146.000,670.523 1150.477,675.000 1156.000,675.000 L1319.000,675.000 C1324.523,675.000 1329.000,670.523 1329.000,665.000 L1329.000,502.000 ZM1542.000,289.000 C1542.000,283.477 1537.523,279.000 1532.000,279.000 L1369.000,279.000 C1363.477,279.000 1359.000,283.477 1359.000,289.000 L1359.000,452.000 C1359.000,457.523 1363.477,462.000 1369.000,462.000 L1532.000,462.000 C1537.523,462.000 1542.000,457.523 1542.000,452.000 L1542.000,289.000 ZM1542.000,502.000 C1542.000,496.477 1537.523,492.000 1532.000,492.000 L1369.000,492.000 C1363.477,492.000 1359.000,496.477 1359.000,502.000 L1359.000,665.000 C1359.000,670.523 1363.477,675.000 1369.000,675.000 L1532.000,675.000 C1537.523,675.000 1542.000,670.523 1542.000,665.000 L1542.000,502.000 Z" id="el_KCY_bYcU5Z"/>
<path fill-rule="evenodd" d="M1119.000,827.000 L1557.000,827.000 C1562.523,827.000 1567.000,831.477 1567.000,837.000 L1567.000,1119.000 C1567.000,1124.523 1562.523,1129.000 1557.000,1129.000 L1119.000,1129.000 C1113.477,1129.000 1109.000,1124.523 1109.000,1119.000 L1109.000,837.000 C1109.000,831.477 1113.477,827.000 1119.000,827.000 Z" id="el_jp_OjaN_lV"/>
<path fill-rule="evenodd" d="M1533.000,1108.000 L1142.000,1108.000 C1136.477,1108.000 1132.000,1103.523 1132.000,1098.000 L1132.000,1002.000 C1132.000,996.477 1136.477,992.000 1142.000,992.000 L1533.000,992.000 C1538.523,992.000 1543.000,996.477 1543.000,1002.000 L1543.000,1098.000 C1543.000,1103.523 1538.523,1108.000 1533.000,1108.000 ZM1340.000,1028.000 C1327.297,1028.000 1317.000,1038.297 1317.000,1051.000 C1317.000,1063.703 1327.297,1074.000 1340.000,1074.000 C1352.703,1074.000 1363.000,1063.703 1363.000,1051.000 C1363.000,1038.297 1352.703,1028.000 1340.000,1028.000 ZM1533.000,968.000 L1142.000,968.000 C1136.477,968.000 1132.000,963.523 1132.000,958.000 L1132.000,862.000 C1132.000,856.477 1136.477,852.000 1142.000,852.000 L1533.000,852.000 C1538.523,852.000 1543.000,856.477 1543.000,862.000 L1543.000,958.000 C1543.000,963.523 1538.523,968.000 1533.000,968.000 ZM1340.000,888.000 C1327.297,888.000 1317.000,898.297 1317.000,911.000 C1317.000,923.703 1327.297,934.000 1340.000,934.000 C1352.703,934.000 1363.000,923.703 1363.000,911.000 C1363.000,898.297 1352.703,888.000 1340.000,888.000 Z" id="el_yrpFlhmCT7"/>

<path d="M1570.452,1222.774 C1431.941,1273.395 1244.889,1301.752 1056.634,1313.506 C1000.864,1316.340 938.840,1318.577 886.336,1319.415 C877.995,1319.548 882.141,1319.509 873.838,1319.598 C858.193,1319.766 839.854,1319.889 821.458,1319.940 C636.420,1318.667 471.004,1302.508 375.914,1277.508 C256.933,1246.228 244.548,1187.337 273.997,1128.034 L1784.392,1128.405 C1738.218,1155.587 1669.514,1186.570 1570.452,1222.774 Z" id="el_Po8fOYdZQr"/>

<path d="M1539.887,1065.406 C1537.665,1047.528 1528.706,983.819 1554.725,909.284 C1580.744,834.749 1601.435,782.863 1620.946,766.840 C1640.457,750.817 1661.752,754.194 1667.204,776.230 C1672.655,798.266 1647.488,780.527 1637.613,790.099 C1627.739,799.671 1655.662,811.032 1628.056,834.145 C1600.449,857.258 1584.431,859.387 1581.121,873.073 C1577.812,886.758 1574.899,903.640 1569.192,918.196 C1563.486,932.753 1562.492,923.458 1551.784,946.100 C1528.639,995.040 1542.108,1083.285 1539.887,1065.406 Z" id="el_VKCVaeurUR"/>

<path d="M1535.924,1069.733 C1535.924,1069.733 1532.561,975.849 1579.881,905.266 C1627.201,834.684 1649.444,826.702 1667.992,826.489 C1686.541,826.276 1693.817,830.219 1693.313,840.127 C1692.810,850.035 1679.906,852.654 1680.372,862.491 C1680.838,872.328 1678.023,876.292 1659.415,883.151 C1640.806,890.010 1604.094,899.990 1608.084,906.950 C1612.074,913.911 1623.784,906.470 1635.335,923.154 C1646.885,939.839 1619.983,943.343 1611.128,943.530 C1602.273,943.717 1611.916,947.630 1601.918,951.399 C1591.920,955.168 1584.173,948.912 1569.213,972.513 C1563.138,982.097 1560.572,982.597 1553.136,999.874 C1542.261,1025.141 1535.924,1069.733 1535.924,1069.733 Z" id="el_L7g75_7EXL"/>

<path d="M1535.924,1069.733 C1535.924,1069.733 1532.561,975.849 1579.881,905.266 C1627.201,834.684 1649.444,826.702 1667.992,826.489 C1686.541,826.276 1693.817,830.219 1693.313,840.127 C1692.810,850.035 1679.906,852.654 1680.372,862.491 C1680.838,872.328 1678.023,876.292 1659.415,883.151 C1640.806,890.010 1604.094,899.990 1608.084,906.950 C1612.074,913.911 1623.784,906.470 1635.335,923.154 C1646.885,939.839 1619.983,943.343 1611.128,943.530 C1602.273,943.717 1611.916,947.630 1601.918,951.399 C1591.920,955.168 1584.173,948.912 1569.213,972.513 C1563.138,982.097 1560.572,982.597 1553.136,999.874 C1542.261,1025.141 1535.924,1069.733 1535.924,1069.733 Z" id="el_APGiRn9Nvb7"/>

<path d="M1510.907,1061.447 C1510.907,1061.447 1563.888,984.963 1604.003,962.031 C1644.118,939.099 1693.782,945.855 1708.811,967.493 C1723.840,989.131 1721.348,997.972 1721.348,997.972 C1721.348,997.972 1717.249,990.522 1713.057,986.030 C1708.864,981.538 1659.603,967.709 1656.376,972.465 C1653.147,977.222 1665.472,976.246 1668.867,989.431 C1672.261,1002.616 1676.932,1004.628 1674.889,1009.588 C1672.847,1014.548 1671.977,1013.390 1671.977,1013.390 C1671.977,1013.390 1684.786,1026.773 1678.593,1032.335 C1672.401,1037.896 1668.890,1037.121 1668.890,1037.121 C1668.890,1037.121 1673.083,1041.613 1670.124,1045.579 C1667.166,1049.546 1664.784,1053.864 1664.784,1053.864 C1664.784,1053.864 1633.666,1001.399 1600.104,993.390 C1563.312,984.611 1510.907,1061.447 1510.907,1061.447 Z" id="el_Am_4iFmJ6Zu"/>

<path d="M1543.144,1042.490 C1543.144,1042.490 1508.618,973.780 1478.442,950.385 C1448.266,926.991 1415.362,938.093 1400.570,954.072 C1385.779,970.050 1386.798,977.574 1386.798,977.574 C1386.798,977.574 1401.017,965.615 1404.964,962.421 C1408.912,959.227 1432.298,948.623 1434.390,952.889 C1436.483,957.154 1426.512,954.935 1422.214,965.336 C1417.916,975.737 1412.944,972.533 1414.043,976.829 C1415.142,981.124 1416.906,984.588 1416.906,984.588 C1416.906,984.588 1408.097,989.526 1412.522,994.792 C1416.947,1000.058 1416.695,1004.368 1416.695,1004.368 C1416.695,1004.368 1406.918,1009.879 1408.881,1013.467 C1410.844,1017.054 1409.912,1034.819 1409.912,1034.819 C1409.912,1034.819 1449.633,979.190 1478.016,976.503 C1509.130,973.558 1543.144,1042.490 1543.144,1042.490 Z" id="el_tNvAcaajF0E"/>

<path d="M1526.676,1007.414 C1526.676,1007.414 1550.159,874.675 1535.754,802.071 C1521.348,729.467 1515.746,717.095 1490.886,688.737 C1466.026,660.379 1433.772,635.581 1433.772,635.581 C1433.772,635.581 1444.717,677.681 1452.252,684.861 C1459.787,692.041 1466.340,696.703 1462.361,706.206 C1458.382,715.709 1443.630,742.643 1459.426,757.482 C1475.223,772.320 1501.258,799.612 1489.574,815.316 C1477.890,831.020 1476.960,824.053 1494.060,872.887 C1511.161,921.721 1526.676,1007.414 1526.676,1007.414 Z" id="el_Kyz8ZzfNf4r"/>

<path d="M1541.795,1053.349 C1541.795,1053.349 1521.772,1002.048 1547.122,910.693 C1572.471,819.338 1624.344,740.513 1624.344,740.513 C1624.344,740.513 1620.351,705.338 1591.785,713.520 C1563.220,721.703 1547.648,751.099 1545.049,782.702 C1542.450,814.305 1545.027,818.127 1529.358,832.691 C1513.690,847.255 1519.548,848.102 1514.442,867.266 C1509.336,886.430 1515.143,888.415 1517.325,902.830 C1519.506,917.244 1516.471,940.531 1523.614,950.346 C1529.213,958.040 1535.911,960.681 1534.288,968.212 C1525.870,1007.283 1541.237,1054.728 1541.795,1053.349 Z" id="el_fs1rDptryTL"/>

<path d="M1531.013,1033.332 C1530.041,1017.831 1525.876,985.734 1519.287,985.543 C1508.997,985.360 1517.311,971.369 1507.095,964.535 C1496.901,957.909 1492.139,961.594 1483.279,946.964 C1474.435,932.732 1470.401,937.547 1470.765,917.477 C1470.704,897.868 1453.533,896.626 1431.755,887.978 C1420.800,883.715 1411.444,878.251 1405.535,869.814 C1402.577,865.584 1400.495,860.560 1399.401,854.539 C1398.852,851.531 1398.546,848.277 1398.471,844.780 C1398.453,843.906 1398.448,843.017 1398.458,842.113 C1398.468,841.209 1398.491,840.290 1398.528,839.357 C1398.603,837.492 1398.731,835.568 1398.909,833.592 C1399.795,823.405 1397.829,822.055 1401.187,820.935 C1404.510,819.776 1407.837,821.135 1407.841,821.124 C1407.598,820.977 1415.918,824.537 1431.098,832.654 C1446.032,841.315 1467.826,854.532 1488.861,886.252 C1509.931,918.116 1522.162,972.670 1532.374,1015.252 C1533.821,1021.717 1535.223,1027.908 1536.560,1033.774 L1531.013,1033.332 Z" id="el_sYXCSBZEmCR"/>
<path fill-rule="evenodd" d="M1467.000,1017.000 L1619.000,1017.000 L1599.000,1129.000 L1487.000,1129.000 L1467.000,1017.000 Z" id="el_H1r-QJ1tXX1"/>
<path fill-rule="evenodd" d="M1472.000,1000.000 L1615.000,1000.000 C1620.523,1000.000 1625.000,1004.477 1625.000,1010.000 L1625.000,1030.000 C1625.000,1035.523 1620.523,1040.000 1615.000,1040.000 L1472.000,1040.000 C1466.477,1040.000 1462.000,1035.523 1462.000,1030.000 L1462.000,1010.000 C1462.000,1004.477 1466.477,1000.000 1472.000,1000.000 Z" id="el_-qolbZGnQW9"/>

<path d="M746.337,858.000 C746.280,858.007 746.223,857.956 746.169,857.853 C746.114,857.956 746.057,858.007 746.000,858.000 C702.096,852.390 627.000,732.000 627.000,732.000 C627.000,732.000 654.922,721.206 674.000,714.000 C693.078,706.794 680.000,651.000 680.000,651.000 L744.341,646.269 C744.342,646.097 744.343,646.000 744.343,646.000 L746.169,646.135 L748.000,646.000 C748.000,646.000 748.001,646.097 748.002,646.270 L812.150,651.000 C812.150,651.000 799.109,706.794 818.133,714.000 C837.157,721.206 865.000,732.000 865.000,732.000 C865.000,732.000 790.117,852.390 746.337,858.000 Z" id="el_ZAjTqDFiFXY"/>
<path fill-rule="evenodd" d="M684.000,666.000 L684.000,676.000 C684.000,676.000 725.890,711.677 746.000,712.000 C766.110,712.323 808.000,676.000 808.000,676.000 L808.000,655.000 L684.000,666.000 Z" id="el_UelmOcAZ0Ip"/>
<path fill-rule="evenodd" d="M634.069,568.292 C634.069,568.292 610.258,553.745 605.213,565.742 C600.167,577.738 611.637,602.611 625.000,606.000 C638.363,609.389 647.573,601.882 648.000,600.171 C648.427,598.460 634.069,568.292 634.069,568.292 Z" id="el_aLaYt1xFagW"/>
<path fill-rule="evenodd" d="M853.931,568.317 C853.931,568.317 877.741,553.721 882.787,565.758 C887.833,577.796 876.363,602.752 863.000,606.153 C849.637,609.554 840.427,602.021 840.000,600.304 C839.573,598.587 853.931,568.317 853.931,568.317 Z" id="el_Eq4pBWiyPT5"/>

<path d="M838.631,639.040 C798.362,689.497 769.929,695.563 747.967,698.619 C747.344,698.960 746.688,699.093 746.000,699.000 C745.864,698.982 745.725,698.962 745.589,698.944 C745.529,698.952 745.467,698.961 745.407,698.969 C744.785,699.052 744.192,698.944 743.623,698.674 C721.690,695.622 693.280,689.652 653.000,639.000 C611.250,586.500 617.000,472.000 617.000,472.000 C617.000,472.000 654.830,417.151 745.830,418.151 C836.830,419.151 874.718,472.238 874.718,472.238 C874.718,472.238 880.482,586.602 838.631,639.040 Z" id="el_t3BhIJ-LMeV"/>
<path fill-rule="evenodd" d="M832.228,565.208 C832.316,565.363 832.364,565.453 832.364,565.453 L831.819,565.692 C831.590,565.932 831.338,566.152 831.059,566.343 C829.095,567.681 826.605,567.976 826.605,567.976 C826.605,567.976 820.171,558.414 811.761,553.536 C814.981,556.293 817.025,560.391 817.025,564.970 C817.025,573.271 810.315,580.000 802.038,580.000 C793.761,580.000 787.052,573.271 787.052,564.970 C787.052,557.685 792.219,551.612 799.078,550.234 C784.635,549.910 778.060,560.409 778.060,560.409 C778.060,560.409 782.612,543.977 803.566,546.115 C817.914,547.579 826.633,557.165 830.314,562.267 C832.228,562.800 834.010,559.568 834.010,559.568 C834.010,559.568 833.914,562.974 832.228,565.208 ZM691.963,550.294 C698.828,551.670 704.000,557.730 704.000,565.000 C704.000,573.284 697.284,580.000 689.000,580.000 C680.716,580.000 674.000,573.284 674.000,565.000 C674.000,560.430 676.046,556.341 679.269,553.589 C670.851,558.458 664.412,568.000 664.412,568.000 C664.412,568.000 661.919,567.706 659.954,566.370 C659.674,566.180 659.422,565.961 659.193,565.721 L658.647,565.483 C658.647,565.483 658.695,565.393 658.783,565.238 C657.096,563.008 657.000,559.609 657.000,559.609 C657.000,559.609 658.783,562.835 660.699,562.303 C664.383,557.211 673.110,547.645 687.471,546.183 C708.443,544.049 713.000,560.448 713.000,560.448 C713.000,560.448 706.419,549.971 691.963,550.294 Z" id="el_ERrsGA6SeKS"/>
<path fill-rule="evenodd" d="M805.969,526.978 C790.364,523.918 774.990,531.033 774.990,531.033 C774.990,531.033 776.012,509.399 812.029,521.883 C829.341,527.883 845.000,547.935 845.000,547.935 C845.000,547.935 822.784,530.275 805.969,526.978 ZM685.066,527.084 C668.235,530.375 646.000,548.000 646.000,548.000 C646.000,548.000 661.673,527.988 679.000,522.000 C715.049,509.541 716.072,531.131 716.072,531.131 C716.072,531.131 700.684,524.031 685.066,527.084 Z" id="el_mu_e9fcMK-W"/>


<path fill-rule="evenodd" d="M829.303,575.303 C831.218,575.833 833.000,572.609 833.000,572.609 C833.000,572.609 832.904,576.008 831.217,578.238 C831.307,578.395 831.353,578.483 831.353,578.483 L830.807,578.721 C830.578,578.961 830.326,579.180 830.046,579.370 C828.080,580.706 825.588,581.000 825.588,581.000 C825.588,581.000 816.003,571.792 805.000,569.000 C783.926,563.653 777.000,573.448 777.000,573.448 C777.000,573.448 781.556,557.049 802.529,559.184 C811.403,560.086 818.123,564.085 822.834,568.209 C822.890,568.139 822.943,568.073 823.000,568.000 C824.701,565.799 824.000,564.000 824.000,564.000 C824.000,564.000 824.546,563.527 825.000,568.000 C825.086,568.844 825.032,569.548 824.888,570.134 C825.430,570.675 825.938,571.211 826.409,571.734 C826.597,571.510 826.792,571.269 827.000,571.000 C828.701,568.799 829.000,566.000 829.000,566.000 C829.000,566.000 829.546,565.528 830.000,570.000 C830.199,571.961 829.455,573.355 828.556,574.303 C828.824,574.652 829.074,574.986 829.303,575.303 ZM685.000,569.000 C673.997,571.792 664.412,581.000 664.412,581.000 C664.412,581.000 661.919,580.706 659.954,579.370 C659.674,579.180 659.422,578.961 659.193,578.721 L658.647,578.483 C658.647,578.483 658.693,578.395 658.783,578.238 C657.096,576.008 657.000,572.609 657.000,572.609 C657.000,572.609 658.782,575.833 660.697,575.303 C660.926,574.986 661.175,574.652 661.444,574.303 C660.545,573.355 659.801,571.961 660.000,570.000 C660.454,565.528 661.000,566.000 661.000,566.000 C661.000,566.000 661.299,568.799 663.000,571.000 C663.208,571.269 663.403,571.510 663.590,571.734 C664.062,571.211 664.570,570.675 665.111,570.134 C664.968,569.548 664.914,568.844 665.000,568.000 C665.454,563.527 666.000,564.000 666.000,564.000 C666.000,564.000 665.299,565.799 667.000,568.000 C667.057,568.073 667.110,568.139 667.165,568.209 C671.877,564.085 678.597,560.086 687.471,559.184 C708.443,557.049 713.000,573.448 713.000,573.448 C713.000,573.448 706.074,563.653 685.000,569.000 Z" id="el_gg8f-PbXrEz"/>
<path fill-rule="evenodd" d="M815.356,609.000 C801.193,609.000 789.712,603.851 789.712,597.500 C789.712,591.149 801.193,586.000 815.356,586.000 C829.519,586.000 841.000,591.149 841.000,597.500 C841.000,603.851 829.519,609.000 815.356,609.000 ZM676.644,609.000 C662.481,609.000 651.000,603.851 651.000,597.500 C651.000,591.149 662.481,586.000 676.644,586.000 C690.807,586.000 702.288,591.149 702.288,597.500 C702.288,603.851 690.807,609.000 676.644,609.000 Z" id="el_tyBWdk_spqG"/>
<path fill-rule="evenodd" d="M805.969,526.978 C790.364,523.918 774.990,531.033 774.990,531.033 C774.990,531.033 776.012,509.399 812.029,521.883 C829.341,527.883 845.000,547.935 845.000,547.935 C845.000,547.935 822.784,530.275 805.969,526.978 ZM685.066,527.084 C668.235,530.375 646.000,548.000 646.000,548.000 C646.000,548.000 661.673,527.988 679.000,522.000 C715.049,509.541 716.072,531.131 716.072,531.131 C716.072,531.131 700.684,524.031 685.066,527.084 Z" id="el_JI3Teuf7q3x"/>
<path fill-rule="evenodd" d="M756.247,589.621 C756.247,589.621 766.683,592.404 763.834,602.852 C760.985,613.301 754.209,615.767 754.209,615.767 C754.209,615.767 758.214,609.248 758.690,603.128 C759.229,596.223 756.247,589.621 756.247,589.621 Z" id="el_QMnCY5kk2gL"/>
<path fill-rule="evenodd" d="M706.000,624.000 C706.000,624.000 729.404,636.018 750.000,636.000 C770.179,635.983 789.000,625.000 789.000,625.000 C789.000,625.000 765.601,650.670 749.000,651.000 C730.943,651.358 706.000,624.000 706.000,624.000 Z" id="el_ZcCbzHPahJk"/>
<path fill-rule="evenodd" d="M982.813,812.078 C981.641,823.370 976.817,861.000 976.817,861.000 L746.000,861.000 L745.000,861.000 L514.000,861.000 C514.000,861.000 509.172,823.310 508.000,812.000 C506.828,800.690 511.672,782.310 515.000,770.000 C518.327,757.690 534.672,743.810 552.000,737.000 C569.327,730.190 582.672,736.810 596.000,733.000 C609.328,729.190 619.672,729.310 629.000,725.000 C638.327,720.690 637.000,729.000 637.000,729.000 C637.091,729.590 663.535,778.602 691.175,809.538 C716.574,837.966 741.740,857.717 745.500,860.617 C749.260,857.720 774.404,838.001 799.782,809.620 C827.400,778.733 853.823,729.800 853.914,729.210 C853.914,729.210 852.588,720.914 861.908,725.217 C871.228,729.520 881.565,729.400 894.882,733.204 C908.199,737.008 921.533,730.399 938.847,737.198 C956.161,743.996 972.493,757.855 975.818,770.145 C979.143,782.435 983.984,800.786 982.813,812.078 Z" id="el_AkPv6AIO04p"/>

<path d="M846.734,365.000 C846.734,365.000 850.675,329.118 828.677,313.251 C806.679,297.384 748.369,257.410 724.581,319.857 C714.267,346.931 724.581,359.495 724.581,359.495 L846.734,365.000 Z" id="el_DEN1P6AJyBh"/>
<path fill-rule="evenodd" d="M849.000,367.000 C845.043,368.256 841.000,366.000 841.000,366.000 C841.000,366.000 847.624,364.077 851.000,358.000 C854.376,351.923 855.000,349.000 855.000,349.000 C855.000,349.000 852.957,365.744 849.000,367.000 ZM716.000,337.000 C713.290,327.077 716.043,325.589 716.000,328.000 C715.889,334.230 722.000,341.000 722.000,341.000 L721.000,345.000 C721.000,345.000 718.710,346.923 716.000,337.000 Z" id="el_N1gFbixPKkB"/>

<path d="M904.000,490.000 C895.652,524.428 863.906,572.949 867.864,565.837 C870.000,562.000 867.876,546.256 868.000,528.000 C868.189,500.076 836.000,473.000 836.000,473.000 L797.909,450.145 C783.309,463.533 763.643,482.361 676.000,488.000 C642.296,490.168 621.000,558.000 621.000,558.000 C621.000,558.000 575.995,530.598 603.000,435.000 C627.736,347.432 706.561,339.689 733.465,337.415 C799.437,331.837 864.075,362.358 891.000,398.000 C908.111,420.651 913.800,449.582 904.000,490.000 Z" id="el_ihoJa02eN_u"/>
<path fill-rule="evenodd" d="M781.421,440.349 C781.421,440.349 769.952,448.533 798.825,473.181 C827.699,497.828 860.355,511.698 855.402,526.379 C850.393,541.221 848.623,539.359 848.623,539.359 C848.623,539.359 853.448,538.361 858.574,533.791 C862.635,530.170 864.249,524.755 864.249,524.755 C864.249,524.755 866.429,532.723 864.956,539.559 C863.619,545.769 856.000,552.000 856.000,552.000 C856.000,552.000 871.153,554.139 875.827,540.401 C884.221,515.735 857.883,465.667 830.435,445.994 C806.490,428.832 781.421,440.349 781.421,440.349 Z" id="el_dRLbM604ZH4"/>
<path fill-rule="evenodd" d="M797.890,454.849 C796.261,457.397 792.773,462.322 787.000,468.000 C779.003,475.865 756.000,483.000 756.000,483.000 C756.000,483.000 766.440,478.700 775.000,473.000 C777.956,471.031 780.778,467.799 783.207,464.410 C766.321,473.319 737.980,483.719 681.000,505.000 C619.742,527.879 624.000,576.000 624.000,576.000 C624.000,576.000 584.450,518.811 645.000,463.000 C741.499,374.053 800.000,453.000 800.000,453.000 C799.316,453.627 798.615,454.242 797.890,454.849 Z" id="el_h_qrTeaTNI0"/>
<g id="el_-Hl8BbToIDY_an_NGPTRrL8o" data-animator-group="true" data-animator-type="0"><path fill-rule="evenodd" d="M751.128,710.000 C783.090,710.000 809.000,714.477 809.000,720.000 C809.000,725.523 783.090,730.000 751.128,730.000 C719.166,730.000 693.256,725.523 693.256,720.000 C693.256,714.477 719.166,710.000 751.128,710.000 Z" id="el_-Hl8BbToIDY"/></g>
<g id="el_05XGAlvg1j2_an_ty9YnVnhm" data-animator-group="true" data-animator-type="0"><path fill-rule="evenodd" d="M699.500,825.000 C673.266,825.000 652.000,803.957 652.000,778.000 C652.000,752.043 673.266,731.000 699.500,731.000 C725.733,731.000 747.000,752.043 747.000,778.000 C747.000,803.957 725.733,825.000 699.500,825.000 ZM698.602,741.024 C678.107,741.024 661.493,757.455 661.493,777.725 C661.493,797.994 678.107,814.425 698.602,814.425 C719.097,814.425 735.711,797.994 735.711,777.725 C735.711,757.455 719.097,741.024 698.602,741.024 Z" id="el_05XGAlvg1j2"/></g>

<g id="el_vEePJHP-OGf_an_s-qk1EV5R" data-animator-group="true" data-animator-type="0"><path d="M754.199,725.873 C776.755,725.873 796.727,723.680 809.000,720.310 C808.206,740.104 803.313,835.456 796.910,839.996 C783.744,849.332 725.659,854.450 705.161,839.923 C698.451,835.168 693.399,728.778 692.986,718.149 C703.764,722.712 727.119,725.873 754.199,725.873 ZM751.977,848.908 C753.376,848.914 747.671,849.002 751.977,848.908 Z" id="el_vEePJHP-OGf"/></g>

<g id="el_D8sFyEGPvhw_an_CA8UwIgFB" data-animator-group="true" data-animator-type="0"><path d="M607.334,832.035 C593.762,817.718 599.376,787.515 616.703,745.261 C620.247,736.621 635.820,732.776 642.936,731.265 C650.080,729.749 660.503,724.734 664.953,731.265 C669.403,737.797 684.862,748.993 686.033,751.793 C687.205,754.592 686.033,759.257 686.033,759.257 C686.033,759.257 688.509,764.145 685.521,772.653 C682.422,781.475 683.832,793.315 678.538,797.979 C663.189,811.502 654.475,803.163 648.089,825.970 C646.475,831.736 641.380,843.448 627.946,843.698 C614.391,843.950 605.801,830.418 607.334,832.035 Z" id="el_D8sFyEGPvhw"/></g>
<g id="el_iO07SqXT-sN_an_TFM80PlJF" data-animator-group="true" data-animator-type="0"><path fill-rule="evenodd" d="M634.973,755.058 C634.973,755.058 654.647,745.495 662.611,748.993 C670.575,752.492 676.196,755.991 676.196,755.991 C676.196,755.991 665.056,756.725 655.588,756.511 C644.563,756.261 634.973,755.058 634.973,755.058 Z" id="el_iO07SqXT-sN"/></g>
<g id="el_V6VyxI1yp8z_an_-XKu3o55o" data-animator-group="true" data-animator-type="0"><path fill-rule="evenodd" d="M607.334,832.035 C605.801,830.418 614.391,843.950 627.946,843.698 C641.380,843.448 646.475,831.736 648.089,825.970 C648.345,825.059 648.605,824.214 648.868,823.398 C649.034,823.307 649.207,823.225 649.370,823.130 L631.575,984.266 C630.567,988.890 626.009,991.819 621.394,990.809 L549.721,968.530 C545.107,967.520 542.184,962.952 543.192,958.328 L598.056,814.560 C598.449,812.757 599.093,813.015 600.001,814.048 C600.720,821.520 603.088,827.556 607.334,832.035 Z" id="el_V6VyxI1yp8z"/></g>
<path fill-rule="evenodd" d="M529.000,820.000 L963.000,820.000 C979.569,820.000 993.000,833.431 993.000,850.000 L993.000,1098.000 C993.000,1114.569 979.569,1128.000 963.000,1128.000 L529.000,1128.000 C512.431,1128.000 499.000,1114.569 499.000,1098.000 L499.000,850.000 C499.000,833.431 512.431,820.000 529.000,820.000 Z" id="el__lOBTNWXIQt"/>
<path fill-rule="evenodd" d="M529.000,820.000 L953.000,820.000 C953.000,820.000 759.163,840.528 653.000,907.000 C537.553,979.284 499.000,1098.000 499.000,1098.000 L499.000,850.000 C499.000,833.431 512.431,820.000 529.000,820.000 Z" id="el_yl19T96l3O-"/>
<path fill-rule="evenodd" d="M780.687,977.168 L775.852,977.168 L773.513,977.168 C772.679,987.307 766.053,995.854 756.855,999.686 C756.413,1001.229 754.960,1002.362 753.232,1002.362 C751.151,1002.362 749.469,1000.724 749.469,998.703 C749.469,996.682 751.151,995.043 753.232,995.043 C753.994,995.043 754.705,995.265 755.299,995.646 C763.465,992.161 769.173,984.228 769.173,975.000 C769.173,974.268 769.137,973.545 769.065,972.831 L773.513,972.831 L774.797,972.831 L780.687,972.831 C779.747,958.404 769.501,946.435 755.724,942.537 C755.086,943.026 754.279,943.317 753.400,943.317 C751.322,943.317 749.640,941.680 749.640,939.658 C749.640,937.636 751.322,936.000 753.400,936.000 C754.925,936.000 756.235,936.879 756.827,938.146 C773.319,942.722 785.403,957.490 785.403,975.000 C785.403,975.727 785.379,976.451 785.338,977.168 L780.687,977.168 ZM770.755,963.120 C772.574,963.378 773.969,964.898 773.969,966.739 C773.969,968.762 772.285,970.398 770.207,970.398 C768.127,970.398 766.445,968.762 766.445,966.739 C766.445,966.158 766.585,965.610 766.832,965.122 C763.068,957.627 755.156,952.463 746.005,952.463 C745.384,952.463 744.767,952.487 744.160,952.535 L744.160,948.216 L744.160,946.349 L744.160,941.241 C729.255,942.000 716.837,951.899 712.713,965.282 C713.220,965.906 713.524,966.695 713.524,967.551 C713.524,969.574 711.841,971.211 709.762,971.211 C707.684,971.211 706.000,969.574 706.000,967.551 C706.000,966.076 706.897,964.805 708.190,964.227 C712.976,948.310 728.096,936.678 746.005,936.678 C746.624,936.678 747.239,936.694 747.851,936.721 L747.851,941.241 L747.851,946.722 L747.851,948.216 C757.917,948.863 766.507,954.761 770.755,963.120 ZM711.324,972.831 L716.159,972.831 L718.498,972.831 C719.332,962.693 725.958,954.145 735.155,950.314 C735.597,948.770 737.051,947.637 738.779,947.637 C740.859,947.637 742.542,949.275 742.542,951.296 C742.542,953.317 740.859,954.955 738.779,954.955 C738.017,954.955 737.306,954.734 736.713,954.354 C728.546,957.838 722.837,965.772 722.837,975.000 C722.837,975.731 722.875,976.454 722.945,977.168 L718.498,977.168 L717.214,977.168 L711.324,977.168 C712.263,991.594 722.510,1003.565 736.287,1007.462 C736.925,1006.973 737.733,1006.682 738.610,1006.682 C740.689,1006.682 742.372,1008.319 742.372,1010.341 C742.372,1012.363 740.689,1014.000 738.610,1014.000 C737.086,1014.000 735.775,1013.120 735.184,1011.853 C718.691,1007.277 706.609,992.509 706.609,975.000 C706.609,974.272 706.632,973.548 706.673,972.831 L711.324,972.831 ZM746.005,992.676 L745.993,992.676 C735.959,992.676 727.821,984.761 727.821,975.000 C727.821,965.238 735.959,957.323 745.993,957.323 L746.005,957.323 L746.018,957.323 C756.052,957.323 764.190,965.238 764.190,975.000 C764.190,984.761 756.052,992.676 746.018,992.676 L746.005,992.676 ZM759.833,975.000 C759.833,967.578 753.647,961.561 746.018,961.561 L746.005,961.561 L745.993,961.561 C738.364,961.561 732.177,967.578 732.177,975.000 C732.177,982.421 738.364,988.438 745.993,988.438 L746.005,988.438 L746.018,988.438 C753.647,988.438 759.833,982.421 759.833,975.000 ZM738.584,975.000 C738.584,971.024 741.918,967.781 746.005,967.781 C750.093,967.781 753.427,971.024 753.427,975.000 C753.427,978.976 750.093,982.219 746.005,982.219 C741.918,982.219 738.584,978.976 738.584,975.000 ZM721.255,986.879 C719.438,986.621 718.042,985.101 718.042,983.260 C718.042,981.238 719.726,979.601 721.804,979.601 C723.883,979.601 725.566,981.238 725.566,983.260 C725.566,983.840 725.426,984.389 725.179,984.877 C728.943,992.372 736.855,997.536 746.005,997.536 C746.626,997.536 747.244,997.511 747.851,997.464 L747.851,1001.784 L747.851,1003.650 L747.851,1008.758 C762.756,1007.999 775.173,998.100 779.298,984.717 C778.791,984.093 778.487,983.304 778.487,982.447 C778.487,980.425 780.170,978.788 782.249,978.788 C784.327,978.788 786.011,980.425 786.011,982.447 C786.011,983.923 785.114,985.194 783.821,985.773 C779.034,1001.689 763.915,1013.322 746.005,1013.322 C745.387,1013.322 744.773,1013.305 744.160,1013.279 L744.160,1008.758 L744.160,1003.277 L744.160,1001.784 C734.094,1001.136 725.505,995.238 721.255,986.879 Z" id="el_V4_g6wOtVSp"/>
<path fill-rule="evenodd" d="M1179.500,1089.000 L1179.500,1122.000 L1045.000,1122.000 L1045.000,1129.000 L1240.000,1129.000 C1252.979,1129.000 1263.500,1118.479 1263.500,1105.500 C1263.500,1092.521 1252.979,1082.000 1240.000,1082.000 L1045.000,1082.000 L1045.000,1089.000 L1179.500,1089.000 Z" id="el_Qf00VpPcdW1"/>
<path fill-rule="evenodd" d="M1232.000,1089.000 L1051.000,1089.000 L1051.000,1122.000 L1232.000,1122.000 C1244.979,1122.000 1255.500,1118.479 1255.500,1105.500 C1255.500,1092.521 1244.979,1089.000 1232.000,1089.000 Z" id="el__b-5K1x9GS6"/>
<path fill-rule="evenodd" d="M1173.500,1042.000 L1173.500,1075.000 L1059.000,1075.000 L1059.000,1082.000 L1234.000,1082.000 C1246.979,1082.000 1257.500,1071.479 1257.500,1058.500 C1257.500,1045.521 1246.979,1035.000 1234.000,1035.000 L1059.000,1035.000 L1059.000,1042.000 L1173.500,1042.000 Z" id="el_1O9Ty751mmH"/>
<path fill-rule="evenodd" d="M1226.000,1042.000 L1065.000,1042.000 L1065.000,1075.000 L1226.000,1075.000 C1238.979,1075.000 1249.500,1071.479 1249.500,1058.500 C1249.500,1045.521 1238.979,1042.000 1226.000,1042.000 Z" id="el_c6WcDx9Ji9i"/>
<path fill-rule="evenodd" d="M1163.500,1005.000 L1163.500,1028.000 L1069.000,1028.000 L1069.000,1035.000 L1224.000,1035.000 C1236.979,1035.000 1247.500,1029.479 1247.500,1016.500 C1247.500,1003.521 1236.979,998.000 1224.000,998.000 L1069.000,998.000 L1069.000,1005.000 L1163.500,1005.000 Z" id="el_jy57rlDa68S"/>
<path fill-rule="evenodd" d="M1216.000,1005.000 L1075.000,1005.000 L1075.000,1028.000 L1216.000,1028.000 C1228.979,1028.000 1239.500,1029.479 1239.500,1016.500 C1239.500,1003.521 1228.979,1005.000 1216.000,1005.000 Z" id="el_hVa0MsOQWlJ"/>
</svg>