<svg 
 xmlns="http://www.w3.org/2000/svg"
 xmlns:xlink="http://www.w3.org/1999/xlink"
 width="230px" height="518px">
<defs>
<linearGradient id="PSgrad_0" x1="0%" x2="100%" y1="0%" y2="0%">
  <stop offset="0%" stop-color="rgb(199,84,141)" stop-opacity="1" />
  <stop offset="100%" stop-color="rgb(182,45,42)" stop-opacity="1" />
</linearGradient>
<linearGradient id="PSgrad_1" x1="0%" x2="0%" y1="100%" y2="0%">
  <stop offset="0%" stop-color="rgb(255,217,87)" stop-opacity="1" />
  <stop offset="100%" stop-color="rgb(247,106,35)" stop-opacity="1" />
</linearGradient>
<linearGradient id="PSgrad_2" x1="0%" x2="0%" y1="100%" y2="0%">
  <stop offset="0%" stop-color="rgb(255,241,191)" stop-opacity="1" />
  <stop offset="100%" stop-color="rgb(255,217,87)" stop-opacity="1" />
</linearGradient>
<linearGradient id="PSgrad_3" x1="0%" x2="0%" y1="100%" y2="0%">
  <stop offset="0%" stop-color="rgb(255,255,255)" stop-opacity="1" />
  <stop offset="100%" stop-color="rgb(255,240,187)" stop-opacity="1" />
</linearGradient>
<linearGradient id="PSgrad_4" x1="0%" x2="100%" y1="0%" y2="0%">
  <stop offset="0%" stop-color="rgb(24,113,126)" stop-opacity="1" />
  <stop offset="100%" stop-color="rgb(47,77,107)" stop-opacity="1" />
</linearGradient>
<linearGradient id="PSgrad_5" x1="0%" x2="100%" y1="0%" y2="0%">
  <stop offset="0%" stop-color="rgb(92,43,31)" stop-opacity="1" />
  <stop offset="100%" stop-color="rgb(41,41,41)" stop-opacity="1" />
</linearGradient>
<linearGradient id="PSgrad_6" x1="0%" x2="100%" y1="0%" y2="0%">
  <stop offset="0%" stop-color="rgb(41,41,41)" stop-opacity="1" />
  <stop offset="100%" stop-color="rgb(92,43,31)" stop-opacity="1" />
</linearGradient>
<radialGradient id="PSgrad_7">
  <stop offset="0%" stop-color="rgb(158,234,239)" stop-opacity="1" />
  <stop offset="100%" stop-color="rgb(141,193,238)" stop-opacity="1" />
</radialGradient>

</defs>
<path fill-rule="evenodd"  fill="rgb(182, 45, 42)"
 d="M159.776,403.000 L116.563,405.930 L116.563,406.000 L116.048,405.965 L115.533,406.000 L115.533,405.930 L72.270,403.000 C72.270,403.000 29.765,297.474 32.097,199.000 C33.885,123.476 61.887,68.731 85.166,36.000 L146.895,36.000 C170.146,68.731 198.117,123.476 199.903,199.000 C202.233,297.474 159.776,403.000 159.776,403.000 Z"/>
<path fill="url(#PSgrad_0)"
 d="M159.776,403.000 L116.563,405.930 L116.563,406.000 L116.048,405.965 L115.533,406.000 L115.533,405.930 L72.270,403.000 C72.270,403.000 29.765,297.474 32.097,199.000 C33.885,123.476 61.887,68.731 85.166,36.000 L146.895,36.000 C170.146,68.731 198.117,123.476 199.903,199.000 C202.233,297.474 159.776,403.000 159.776,403.000 Z"/>
<path fill-rule="evenodd"  fill="rgb(250, 104, 32)"
 d="M110.247,454.525 C94.991,466.133 62.450,489.187 62.450,489.187 C62.450,489.187 57.480,449.647 55.739,430.569 C53.999,411.490 76.253,403.245 76.253,403.245 L95.487,414.018 L116.485,420.926 C116.485,420.926 125.502,442.916 110.247,454.525 Z"/>
<path fill="url(#PSgrad_1)"
 d="M110.247,454.525 C94.991,466.133 62.450,489.187 62.450,489.187 C62.450,489.187 57.480,449.647 55.739,430.569 C53.999,411.490 76.253,403.245 76.253,403.245 L95.487,414.018 L116.485,420.926 C116.485,420.926 125.502,442.916 110.247,454.525 Z"/>
<path fill-rule="evenodd"  fill="rgb(255, 217, 87)"
 d="M103.799,451.331 C92.617,459.941 68.125,476.218 68.125,476.218 C68.125,476.218 63.592,447.185 62.390,433.132 C61.188,419.079 78.314,408.017 78.314,408.017 L94.266,416.740 L111.519,422.610 C111.519,422.610 114.982,442.721 103.799,451.331 Z"/>
<path fill="url(#PSgrad_2)"
 d="M103.799,451.331 C92.617,459.941 68.125,476.218 68.125,476.218 C68.125,476.218 63.592,447.185 62.390,433.132 C61.188,419.079 78.314,408.017 78.314,408.017 L94.266,416.740 L111.519,422.610 C111.519,422.610 114.982,442.721 103.799,451.331 Z"/>
<path fill-rule="evenodd"  fill="rgb(255, 255, 255)"
 d="M100.604,444.849 C92.946,451.104 74.430,462.752 74.430,462.752 C74.430,462.752 70.514,441.246 69.955,431.379 C69.396,421.514 84.213,410.609 84.213,410.609 L94.772,416.468 L104.959,419.727 C104.959,419.727 108.261,438.595 100.604,444.849 Z"/>
<path fill="url(#PSgrad_3)"
 d="M100.604,444.849 C92.946,451.104 74.430,462.752 74.430,462.752 C74.430,462.752 70.514,441.246 69.955,431.379 C69.396,421.514 84.213,410.609 84.213,410.609 L94.772,416.468 L104.959,419.727 C104.959,419.727 108.261,438.595 100.604,444.849 Z"/>
<path fill-rule="evenodd"  fill="rgb(250, 104, 32)"
 d="M124.566,454.525 C139.821,466.133 172.362,489.187 172.362,489.187 C172.362,489.187 177.332,449.647 179.073,430.569 C180.814,411.490 158.559,403.245 158.559,403.245 L139.325,414.018 L118.328,420.926 C118.328,420.926 109.311,442.916 124.566,454.525 Z"/>
<path fill="url(#PSgrad_1)"
 d="M124.566,454.525 C139.821,466.133 172.362,489.187 172.362,489.187 C172.362,489.187 177.332,449.647 179.073,430.569 C180.814,411.490 158.559,403.245 158.559,403.245 L139.325,414.018 L118.328,420.926 C118.328,420.926 109.311,442.916 124.566,454.525 Z"/>
<path fill-rule="evenodd"  fill="rgb(255, 217, 87)"
 d="M131.013,451.331 C142.196,459.941 166.687,476.218 166.687,476.218 C166.687,476.218 171.220,447.185 172.423,433.132 C173.625,419.079 156.498,408.017 156.498,408.017 L140.547,416.740 L123.294,422.610 C123.294,422.610 119.831,442.721 131.013,451.331 Z"/>
<path fill="url(#PSgrad_2)"
 d="M131.013,451.331 C142.196,459.941 166.687,476.218 166.687,476.218 C166.687,476.218 171.220,447.185 172.423,433.132 C173.625,419.079 156.498,408.017 156.498,408.017 L140.547,416.740 L123.294,422.610 C123.294,422.610 119.831,442.721 131.013,451.331 Z"/>
<path fill-rule="evenodd"  fill="rgb(255, 255, 255)"
 d="M134.209,444.849 C141.866,451.104 160.382,462.752 160.382,462.752 C160.382,462.752 164.298,441.246 164.857,431.379 C165.416,421.514 150.600,410.609 150.600,410.609 L140.041,416.468 L129.854,419.727 C129.854,419.727 126.551,438.595 134.209,444.849 Z"/>
<path fill="url(#PSgrad_3)"
 d="M134.209,444.849 C141.866,451.104 160.382,462.752 160.382,462.752 C160.382,462.752 164.298,441.246 164.857,431.379 C165.416,421.514 150.600,410.609 150.600,410.609 L140.041,416.468 L129.854,419.727 C129.854,419.727 126.551,438.595 134.209,444.849 Z"/>
<path fill-rule="evenodd"  fill="rgb(250, 104, 32)"
 d="M159.114,446.000 C145.983,469.686 117.000,518.000 117.000,518.000 C117.000,518.000 88.096,469.686 75.000,446.000 C61.904,422.314 86.000,398.999 86.000,398.999 L117.000,402.000 L148.084,398.999 C148.084,398.999 172.246,422.314 159.114,446.000 Z"/>
<path fill="url(#PSgrad_1)"
 d="M159.114,446.000 C145.983,469.686 117.000,518.000 117.000,518.000 C117.000,518.000 88.096,469.686 75.000,446.000 C61.904,422.314 86.000,398.999 86.000,398.999 L117.000,402.000 L148.084,398.999 C148.084,398.999 172.246,422.314 159.114,446.000 Z"/>
<path fill-rule="evenodd"  fill="rgb(255, 217, 87)"
 d="M148.960,445.535 C139.391,463.027 116.968,498.000 116.968,498.000 C116.968,498.000 94.601,463.027 85.058,445.535 C75.516,428.043 91.378,404.000 91.378,404.000 L116.968,406.215 L142.619,404.000 C142.619,404.000 158.529,428.043 148.960,445.535 Z"/>
<path fill="url(#PSgrad_2)"
 d="M148.960,445.535 C139.391,463.027 116.968,498.000 116.968,498.000 C116.968,498.000 94.601,463.027 85.058,445.535 C75.516,428.043 91.378,404.000 91.378,404.000 L116.968,406.215 L142.619,404.000 C142.619,404.000 158.529,428.043 148.960,445.535 Z"/>
<path fill-rule="evenodd"  fill="rgb(255, 255, 255)"
 d="M141.143,438.968 C134.794,451.410 117.467,477.000 117.467,477.000 C117.467,477.000 100.178,451.410 93.847,438.968 C87.516,426.525 100.480,404.000 100.480,404.000 L117.467,405.576 L132.495,404.000 C132.495,404.000 147.491,426.525 141.143,438.968 Z"/>
<path fill="url(#PSgrad_3)"
 d="M141.143,438.968 C134.794,451.410 117.467,477.000 117.467,477.000 C117.467,477.000 100.178,451.410 93.847,438.968 C87.516,426.525 100.480,404.000 100.480,404.000 L117.467,405.576 L132.495,404.000 C132.495,404.000 147.491,426.525 141.143,438.968 Z"/>
<path fill-rule="evenodd"  fill="rgb(47, 77, 107)"
 d="M163.538,394.000 L169.776,405.000 L116.563,407.930 L116.563,408.000 L116.048,407.965 L115.533,408.000 L115.533,407.930 L62.270,405.000 L68.503,394.000 L163.538,394.000 Z"/>
<path fill="url(#PSgrad_4)"
 d="M163.538,394.000 L169.776,405.000 L116.563,407.930 L116.563,408.000 L116.048,407.965 L115.533,408.000 L115.533,407.930 L62.270,405.000 L68.503,394.000 L163.538,394.000 Z"/>
<path fill-rule="evenodd"  fill="rgb(41, 41, 41)"
 d="M66.584,65.999 C87.245,27.455 110.444,5.471 115.533,0.905 L116.048,0.446 L116.563,0.906 C121.649,5.474 144.819,27.458 165.456,65.999 L66.584,65.999 Z"/>
<path fill="url(#PSgrad_5)"
 d="M66.584,65.999 C87.245,27.455 110.444,5.471 115.533,0.905 L116.048,0.446 L116.563,0.906 C121.649,5.474 144.819,27.458 165.456,65.999 L66.584,65.999 Z"/>
<path fill-rule="evenodd"  fill="rgb(41, 41, 41)"
 d="M227.848,428.000 C227.848,428.000 224.245,414.544 193.920,382.999 C184.903,373.620 177.677,367.957 172.043,364.557 C177.913,345.587 184.663,320.908 189.941,293.563 C200.563,304.639 220.130,329.751 225.853,369.000 C233.836,423.750 227.848,428.000 227.848,428.000 Z"/>
<path fill="url(#PSgrad_6)"
 d="M227.848,428.000 C227.848,428.000 224.245,414.544 193.920,382.999 C184.903,373.620 177.677,367.957 172.043,364.557 C177.913,345.587 184.663,320.908 189.941,293.563 C200.563,304.639 220.130,329.751 225.853,369.000 C233.836,423.750 227.848,428.000 227.848,428.000 Z"/>
<path fill-rule="evenodd"  fill="rgb(41, 41, 41)"
 d="M116.528,428.112 C116.528,428.112 102.914,395.920 102.914,323.518 C102.914,290.174 116.999,291.955 117.000,291.999 C117.000,291.999 117.001,292.030 117.001,292.044 C119.854,292.408 129.809,295.858 129.809,323.542 C129.809,395.923 116.528,428.112 116.528,428.112 Z"/>
<path fill="url(#PSgrad_5)"
 d="M116.528,428.112 C116.528,428.112 102.914,395.920 102.914,323.518 C102.914,290.174 116.999,291.955 117.000,291.999 C117.000,291.999 117.001,292.030 117.001,292.044 C119.854,292.408 129.809,295.858 129.809,323.542 C129.809,395.923 116.528,428.112 116.528,428.112 Z"/>
<path fill-rule="evenodd"  fill="rgb(41, 41, 41)"
 d="M59.824,364.025 C54.055,367.355 46.524,373.113 37.000,382.999 C6.611,414.544 3.000,428.000 3.000,428.000 C3.000,428.000 -3.000,423.750 5.000,369.000 C10.904,328.596 31.498,303.188 41.893,292.637 C47.154,320.095 53.920,344.912 59.824,364.025 Z"/>
<path fill="url(#PSgrad_5)"
 d="M59.824,364.025 C54.055,367.355 46.524,373.113 37.000,382.999 C6.611,414.544 3.000,428.000 3.000,428.000 C3.000,428.000 -3.000,423.750 5.000,369.000 C10.904,328.596 31.498,303.188 41.893,292.637 C47.154,320.095 53.920,344.912 59.824,364.025 Z"/>
<path fill-rule="evenodd"  fill="rgb(149, 220, 238)"
 d="M117.000,115.000 C137.987,115.000 155.000,132.013 155.000,153.000 C155.000,173.987 137.987,191.000 117.000,191.000 C96.013,191.000 79.000,173.987 79.000,153.000 C79.000,132.013 96.013,115.000 117.000,115.000 Z"/>
<path fill="url(#PSgrad_7)"
 d="M117.000,115.000 C137.987,115.000 155.000,132.013 155.000,153.000 C155.000,173.987 137.987,191.000 117.000,191.000 C96.013,191.000 79.000,173.987 79.000,153.000 C79.000,132.013 96.013,115.000 117.000,115.000 Z"/>
<path fill-rule="evenodd"  opacity="0.302" fill="rgb(255, 255, 255)"
 d="M83.523,172.990 C80.639,167.634 79.000,161.509 79.000,155.000 C79.000,134.013 96.013,117.000 117.000,117.000 C125.783,117.000 133.863,119.987 140.299,124.991 C111.339,133.047 91.248,160.674 83.523,172.990 Z"/>
<path fill-rule="evenodd"  fill="rgb(141, 141, 141)"
 d="M116.000,194.000 C92.252,194.000 73.000,174.748 73.000,151.000 C73.000,127.252 92.252,108.000 116.000,108.000 C139.748,108.000 159.000,127.252 159.000,151.000 C159.000,174.748 139.748,194.000 116.000,194.000 ZM116.000,117.000 C97.222,117.000 82.000,132.222 82.000,151.000 C82.000,169.777 97.222,185.000 116.000,185.000 C134.778,185.000 150.000,169.777 150.000,151.000 C150.000,132.222 134.778,117.000 116.000,117.000 Z"/>
<path fill="url(#PSgrad_5)"
 d="M116.000,194.000 C92.252,194.000 73.000,174.748 73.000,151.000 C73.000,127.252 92.252,108.000 116.000,108.000 C139.748,108.000 159.000,127.252 159.000,151.000 C159.000,174.748 139.748,194.000 116.000,194.000 ZM116.000,117.000 C97.222,117.000 82.000,132.222 82.000,151.000 C82.000,169.777 97.222,185.000 116.000,185.000 C134.778,185.000 150.000,169.777 150.000,151.000 C150.000,132.222 134.778,117.000 116.000,117.000 Z"/>
</svg>