<svg id="manage_it" xmlns="http://www.w3.org/2000/svg" viewBox="0 0 861.26 809.22"><defs></defs><title>icon_manage_it</title><path class="ic_mit_cls-1" d="M314.12,351.47H763.73a30,30,0,0,1,30,30V663.12a0,0,0,0,1,0,0H284.12a0,0,0,0,1,0,0V381.47A30,30,0,0,1,314.12,351.47Z"/><path class="ic_mit_cls-1" d="M897.5,894.73H319a22.61,22.61,0,0,1-19.77-33.59l56.9-102.51H863.05l54.44,102.91A22.61,22.61,0,0,1,897.5,894.73Z" transform="translate(-68.88 -95.51)"/><line class="ic_mit_cls-2" x1="518.98" y1="397.83" x2="558.87" y2="397.83"/><line class="ic_mit_cls-2" x1="332.57" y1="707.64" x2="745.27" y2="707.64"/><line class="ic_mit_cls-2" x1="465.43" y1="749.47" x2="612.42" y2="749.47"/><line class="ic_mit_cls-2" x1="429.64" y1="401.78" x2="326.18" y2="505.24"/><line class="ic_mit_cls-2" x1="326.18" y1="450.97" x2="375.36" y2="401.78"/><path class="ic_mit_cls-3" d="M486.38,404a229.64,229.64,0,0,0-98.17-79.23A129.83,129.83,0,0,0,425.59,233c0-70.4-54.62-127.46-122-127.46s-122,57.06-122,127.46c0,36.08,13.19,68.64,36.23,91.81C145.46,355.1,92.35,423.17,79.31,505.68a33.89,33.89,0,0,0,33.82,39.12c64.4-.58,190.46-1.25,190.46-1.25l4.41,0" transform="translate(-68.88 -95.51)"/></svg>