<svg id="icon_cog" xmlns="http://www.w3.org/2000/svg" viewBox="0 0 912.51 712.86"><defs></defs><title>icon_cog</title><rect class="ic_cog_cls-1" x="10" y="10" width="892.51" height="532.35" rx="51.82"/><path class="ic_cog_cls-1" d="M349.11,852.37H650.33a31.16,31.16,0,0,0,27.5-45.81l-61.1-114.7h-234l-61.11,114.7A31.16,31.16,0,0,0,349.11,852.37Z" transform="translate(-43.47 -149.5)"/><line class="ic_cog_cls-2" x1="5.76" y1="416.24" x2="906.76" y2="416.24"/><circle class="ic_cog_cls-3" cx="456.26" cy="475.66" r="21.83"/><path class="ic_cog_cls-4" d="M383.52,344.09a107.94,107.94,0,0,1,15.3-34.89l-21.17-33.27,24.43-22.75L437,273.46a122.56,122.56,0,0,1,35.9-14l9.85-38.15h34.36l9.87,38.23A122.5,122.5,0,0,1,561.76,273l34.17-19.86,24.44,22.75-20.48,32.18a108.29,108.29,0,0,1,16,36l40.36,9.27v32.37l-40.68,9.34A108.27,108.27,0,0,1,600.38,429l21.75,34.16-24.44,22.75-36.11-21a122.51,122.51,0,0,1-34.64,13.35l-9.87,38.23H482.71l-9.85-38.15a122.2,122.2,0,0,1-35.7-13.85l-36.84,21.42-24.44-22.75,22.45-35.26a108.09,108.09,0,0,1-14.49-32.83l-40.68-9.34V353.36Z" transform="translate(-43.47 -149.5)"/><ellipse class="ic_cog_cls-2" cx="456.26" cy="219.42" rx="66.06" ry="62.27"/></svg>