<svg id="icon_cloud" xmlns="http://www.w3.org/2000/svg" viewBox="0 0 923.76 726.01"><defs></defs><title>icon_cloud</title><path class="ic_cloud_cls-1" d="M415.62,214.24q-7-.69-14.25-.69A147.28,147.28,0,0,0,256.77,333" transform="translate(-38.27 -136.38)"/><path class="ic_cloud_cls-2" d="M791.28,651.18h24A136.72,136.72,0,0,0,952,514.46v-9.84q0-6.86-.65-13.57a139.91,139.91,0,0,0-164-124,158.86,158.86,0,0,0-218.67-114A208.18,208.18,0,0,0,386.84,146.38c-115,0-208.3,93.25-208.3,208.29a209.47,209.47,0,0,0,1.21,22.53A137.33,137.33,0,0,0,48.27,514.46h0A136.72,136.72,0,0,0,185,651.18h24" transform="translate(-38.27 -136.38)"/><polyline class="ic_cloud_cls-3" points="461.2 610.59 461.2 316.12 401.49 375.83 461.2 316.12 520.91 375.83"/><path class="ic_cloud_cls-3" d="M228.07,803.11h21.79a90.84,90.84,0,0,0,90.84-90.85V535.71c0-3.65-.24-75.09-.66-78.63l0-4.58,59.71,59.71L340,452.5l-59.7,59.71" transform="translate(-38.27 -136.38)"/><circle class="ic_cloud_cls-3" cx="131.45" cy="666.06" r="54.96"/><path class="ic_cloud_cls-3" d="M772.23,803.11H750.44a90.84,90.84,0,0,1-90.84-90.85V535.71c0-3.65.24-75.09.65-78.63l0-4.58-59.7,59.71,59.7-59.71L720,512.21" transform="translate(-38.27 -136.38)"/><circle class="ic_cloud_cls-3" cx="792.3" cy="666.06" r="54.96"/><circle class="ic_cloud_cls-3" cx="459.84" cy="666.06" r="54.96"/></svg>