<svg id="icon_lock" xmlns="http://www.w3.org/2000/svg" viewBox="0 0 491.41 788.64"><defs></defs><title>icon_lock</title><path class="ic_lock_cls-1" d="M343.63,472.08V272.82A156.67,156.67,0,0,1,500.3,116.15h0c86.52,0,156.66,70.14,156.66,155.72V471.13" transform="translate(-254.59 -106.15)"/><circle class="ic_lock_cls-1" cx="245.7" cy="542.94" r="235.7"/><path d="M516.77,775.49v25.37H496.32V776.25c-46.57-2.27-78-35.22-78-81h18.55c0,40.51,31.43,62.47,64.75,62.47,44.3,0,62.1-23.85,62.1-47.7,0-31-26.51-37.49-63.23-51.88-32.95-12.87-67.78-24.61-67.78-64.36,0-28,22.34-58.31,63.61-62.48V506.66h20.45v24.61c36.72,4.17,58.31,28.4,58.31,59.07H556.52c0-25-20.06-41.65-50.36-41.65-36.72,0-55.28,23.85-55.28,45.06,0,27.64,29.16,36.72,56.8,47.7,44.68,17.42,74.59,24.61,74.59,68.54C582.27,744.06,557.28,770.19,516.77,775.49Z" transform="translate(-254.59 -106.15)"/></svg>