<svg id="eea1lbf7zgb61" xmlns="http://www.w3.org/2000/svg" xmlns:xlink="http://www.w3.org/1999/xlink" viewBox="0 0 2135 1453" shape-rendering="geometricPrecision" text-rendering="geometricPrecision"><defs><linearGradient id="eea1lbf7zgb63-fill" x1="0.999850" y1="0.017450" x2="0" y2="0" spreadMethod="pad" gradientUnits="objectBoundingBox"><stop id="eea1lbf7zgb63-fill-0" offset="0%" stop-color="rgb(249,240,167)"/><stop id="eea1lbf7zgb63-fill-1" offset="100%" stop-color="rgb(191,239,251)"/></linearGradient><radialGradient id="eea1lbf7zgb65-fill" cx="0.500000" cy="0.500000" r="0.500000" spreadMethod="pad" gradientUnits="objectBoundingBox"><stop id="eea1lbf7zgb65-fill-0" offset="0%" stop-color="rgb(158,234,239)"/><stop id="eea1lbf7zgb65-fill-1" offset="100%" stop-color="rgb(62,173,186)"/></radialGradient><linearGradient id="eea1lbf7zgb66-fill" x1="0.999850" y1="0.017450" x2="0" y2="0" spreadMethod="pad" gradientUnits="objectBoundingBox"><stop id="eea1lbf7zgb66-fill-0" offset="0%" stop-color="rgba(153,231,236,0.5)"/><stop id="eea1lbf7zgb66-fill-1" offset="99%" stop-color="rgba(193,241,176,0.5)"/></linearGradient><linearGradient id="eea1lbf7zgb68-fill" x1="0" y1="1" x2="0" y2="0" spreadMethod="pad" gradientUnits="objectBoundingBox"><stop id="eea1lbf7zgb68-fill-0" offset="0%" stop-color="rgb(241,233,203)"/><stop id="eea1lbf7zgb68-fill-1" offset="100%" stop-color="rgb(97,229,236)"/></linearGradient><radialGradient id="eea1lbf7zgb618-fill" cx="0.500000" cy="0.500000" r="0.500000" spreadMethod="pad" gradientUnits="objectBoundingBox"><stop id="eea1lbf7zgb618-fill-0" offset="0%" stop-color="rgb(193,122,70)"/><stop id="eea1lbf7zgb618-fill-1" offset="100%" stop-color="rgb(152,56,43)"/></radialGradient><linearGradient id="eea1lbf7zgb620-fill" x1="0.999850" y1="0.017450" x2="0" y2="0" spreadMethod="pad" gradientUnits="objectBoundingBox"><stop id="eea1lbf7zgb620-fill-0" offset="0%" stop-color="rgb(45,88,36)"/><stop id="eea1lbf7zgb620-fill-1" offset="100%" stop-color="rgb(80,173,30)"/></linearGradient><linearGradient id="eea1lbf7zgb621-fill" x1="0.999850" y1="0.017450" x2="0" y2="0" spreadMethod="pad" gradientUnits="objectBoundingBox"><stop id="eea1lbf7zgb621-fill-0" offset="0%" stop-color="rgb(87,166,69)"/><stop id="eea1lbf7zgb621-fill-1" offset="100%" stop-color="rgb(219,229,132)"/></linearGradient><linearGradient id="eea1lbf7zgb622-fill" x1="0.999850" y1="0.017450" x2="0" y2="0" spreadMethod="pad" gradientUnits="objectBoundingBox"><stop id="eea1lbf7zgb622-fill-0" offset="0%" stop-color="rgb(87,166,69)"/><stop id="eea1lbf7zgb622-fill-1" offset="100%" stop-color="rgb(219,229,132)"/></linearGradient><linearGradient id="eea1lbf7zgb623-fill" x1="0.999850" y1="0.017450" x2="0" y2="0" spreadMethod="pad" gradientUnits="objectBoundingBox"><stop id="eea1lbf7zgb623-fill-0" offset="0%" stop-color="rgb(45,88,36)"/><stop id="eea1lbf7zgb623-fill-1" offset="100%" stop-color="rgb(80,173,30)"/></linearGradient><linearGradient id="eea1lbf7zgb624-fill" x1="0.999850" y1="0.017450" x2="0" y2="0" spreadMethod="pad" gradientUnits="objectBoundingBox"><stop id="eea1lbf7zgb624-fill-0" offset="0%" stop-color="rgb(45,88,36)"/><stop id="eea1lbf7zgb624-fill-1" offset="100%" stop-color="rgb(80,173,30)"/></linearGradient><linearGradient id="eea1lbf7zgb625-fill" x1="0.999850" y1="0.017450" x2="0" y2="0" spreadMethod="pad" gradientUnits="objectBoundingBox"><stop id="eea1lbf7zgb625-fill-0" offset="0%" stop-color="rgb(45,88,36)"/><stop id="eea1lbf7zgb625-fill-1" offset="100%" stop-color="rgb(80,173,30)"/></linearGradient><linearGradient id="eea1lbf7zgb626-fill" x1="0.999850" y1="0.017450" x2="0" y2="0" spreadMethod="pad" gradientUnits="objectBoundingBox"><stop id="eea1lbf7zgb626-fill-0" offset="0%" stop-color="rgb(87,166,69)"/><stop id="eea1lbf7zgb626-fill-1" offset="100%" stop-color="rgb(219,229,132)"/></linearGradient><linearGradient id="eea1lbf7zgb627-fill" x1="0" y1="1" x2="0" y2="0" spreadMethod="pad" gradientUnits="objectBoundingBox"><stop id="eea1lbf7zgb627-fill-0" offset="0%" stop-color="rgb(87,166,69)"/><stop id="eea1lbf7zgb627-fill-1" offset="100%" stop-color="rgb(219,229,132)"/></linearGradient><linearGradient id="eea1lbf7zgb631-fill" x1="0.961260" y1="0" x2="0" y2="0.275640" spreadMethod="pad" gradientUnits="objectBoundingBox"><stop id="eea1lbf7zgb631-fill-0" offset="0%" stop-color="rgb(238,173,130)"/><stop id="eea1lbf7zgb631-fill-1" offset="100%" stop-color="rgb(255,233,223)"/></linearGradient><linearGradient id="eea1lbf7zgb635-fill" x1="0.998630" y1="0" x2="0" y2="0.052340" spreadMethod="pad" gradientUnits="objectBoundingBox"><stop id="eea1lbf7zgb635-fill-0" offset="0%" stop-color="rgb(238,173,130)"/><stop id="eea1lbf7zgb635-fill-1" offset="100%" stop-color="rgb(255,233,223)"/></linearGradient><linearGradient id="eea1lbf7zgb646-fill" x1="0" y1="1" x2="0" y2="0" spreadMethod="pad" gradientUnits="objectBoundingBox"><stop id="eea1lbf7zgb646-fill-0" offset="0%" stop-color="rgb(72,43,19)"/><stop id="eea1lbf7zgb646-fill-1" offset="0%" stop-color="rgb(68,48,22)"/><stop id="eea1lbf7zgb646-fill-2" offset="0%" stop-color="rgb(44,28,6)"/><stop id="eea1lbf7zgb646-fill-3" offset="100%" stop-color="rgb(144,105,53)"/></linearGradient><linearGradient id="eea1lbf7zgb648-fill" x1="0.990270" y1="0" x2="0" y2="0.139170" spreadMethod="pad" gradientUnits="objectBoundingBox"><stop id="eea1lbf7zgb648-fill-0" offset="0%" stop-color="rgb(60,37,5)"/><stop id="eea1lbf7zgb648-fill-1" offset="100%" stop-color="rgb(170,126,68)"/></linearGradient><linearGradient id="eea1lbf7zgb654-fill" x1="0.999850" y1="0.017450" x2="0" y2="0" spreadMethod="pad" gradientUnits="objectBoundingBox"><stop id="eea1lbf7zgb654-fill-0" offset="0%" stop-color="rgb(164,164,164)"/><stop id="eea1lbf7zgb654-fill-1" offset="100%" stop-color="rgb(255,255,255)"/></linearGradient><linearGradient id="eea1lbf7zgb655-fill" x1="0.891010" y1="0.453990" x2="0" y2="0" spreadMethod="pad" gradientUnits="objectBoundingBox"><stop id="eea1lbf7zgb655-fill-0" offset="0%" stop-color="rgb(249,196,161)"/><stop id="eea1lbf7zgb655-fill-1" offset="100%" stop-color="rgb(255,233,223)"/></linearGradient></defs><g id="eea1lbf7zgb62"><path id="eea1lbf7zgb63" d="M791.081428,27.777789C27.000428,155.735789,-74.557572,518.249789,133.142428,696.688789C384.812428,912.902789,469.093428,924.996789,368.425428,992.533789C267.757428,1060.069789,32.167428,1229.415789,284.906428,1295.875789C523.719428,1358.673789,1108.324428,1494.358789,1730.668428,1374.077789C2349.026428,1254.566789,1688.002428,970.116789,1868.688428,802.528789C2024.455428,658.051789,2219.472428,344.401789,1852.998428,126.511789C1629.340428,-6.466211,1103.386428,-24.523211,791.081428,27.777789Z" transform="matrix(0.98366542173647 0 0 0.98366542173647 -0.94154232000005 6.27785152500019)" fill="url(#eea1lbf7zgb63-fill)" fill-opacity="0.7" stroke="none" stroke-width="1"/><path id="eea1lbf7zgb64" d="M828.915484,63.507570C138.466787,177.506716,1.017561,500.472919,188.702080,659.445528C416.119523,852.073073,474.006978,888.432843,383.040570,948.602259C292.073213,1008.770738,97.458345,1173.609125,325.841687,1232.818549C541.639849,1288.765878,1233.732569,1297.460117,1555.333233,1181.555976C2146.621052,968.456742,1599.400829,901.626395,1755.597232,745.132904C1890.252285,610.221881,1928.580523,418.280846,1654.982283,187.587088C1476.290027,36.917229,1111.125136,16.911957,828.915484,63.507570Z" transform="matrix(0.97166179557605 0 0 1.02203645899500 55.33623463000072 36.09142651999977)" fill="rgb(49,139,149)" fill-opacity="0.9" fill-rule="evenodd" stroke="none" stroke-width="1"/><path id="eea1lbf7zgb65" d="M805.603000,79.013000C78.626000,200.732000,23.905000,525.569000,221.519000,695.307000C460.968000,900.979000,521.918000,909.801000,426.139000,974.045000C330.359000,1038.288000,135.448000,1214.289000,375.913000,1277.508000C603.129000,1337.244000,1231.837000,1346.527000,1570.452000,1222.774000C2193.022000,995.244000,1616.851000,973.888000,1781.311000,806.797000C1923.090000,662.750000,1963.446000,457.811000,1675.373000,211.495000C1487.226000,50.622000,1102.743000,29.262000,805.603000,79.013000Z" fill="url(#eea1lbf7zgb65-fill)" stroke="none" stroke-width="1"/><path id="eea1lbf7zgb66" d="M214.476286,687.257625C362.163326,951.763954,-325.055514,1396.313926,202.532714,1343.773491C409.842188,1323.127926,1926.249263,1032.834442,2007.797779,359.068143C2040.934228,85.289742,1271.758885,287.098601,852.973417,129.270966C505.873721,-1.541321,-290.310491,-216.816294,214.476286,687.257625Z" transform="matrix(1 0 0 1 18.02824335500077 20.63894882000059)" fill="url(#eea1lbf7zgb66-fill)" stroke="none" stroke-width="1"/></g><g id="eea1lbf7zgb67"><path id="eea1lbf7zgb68" d="M1138,262L1544,262C1549.523000,262,1554,266.477000,1554,272L1554,682C1554,687.523000,1549.523000,692,1544,692L1138,692C1132.477000,692,1128,687.523000,1128,682L1128,272C1128,266.477000,1132.477000,262,1138,262Z" fill="url(#eea1lbf7zgb68-fill)" stroke="none" stroke-width="1"/><g id="eea1lbf7zgb69"><path id="eea1lbf7zgb610" d="M1503.318000,408.729000C1503.317000,408.729000,1498.863000,369.237000,1460.603000,377.368000C1424.947000,384.947000,1448.167000,408.188000,1448.167000,408.188000C1448.167000,408.188000,1431.675000,403.322000,1428.701000,412.514000C1425.728000,421.706000,1429.783000,425.491000,1429.783000,425.491000C1429.783000,425.491000,1414.373000,414.406000,1397.881000,428.194000C1381.390000,441.982000,1400.315000,459.014000,1409.777000,458.474000C1419.239000,457.933000,1422.213000,453.067000,1430.864000,453.067000C1439.515000,453.067000,1443.841000,461.177000,1454.114000,458.474000C1464.388000,455.770000,1469.524000,449.822000,1473.039000,449.282000C1476.554000,448.741000,1483.042000,458.744000,1499.533000,456.852000C1516.025000,454.959000,1518.188000,447.660000,1527.109000,449.282000C1536.031000,450.904000,1539.545000,454.418000,1541.708000,449.282000C1543.871000,444.145000,1534.138000,443.334000,1534.138000,443.334000C1534.138000,443.334000,1533.868000,434.142000,1528.191000,429.276000C1522.513000,424.409000,1516.836000,426.032000,1516.836000,426.032000C1516.836000,426.032000,1520.080000,417.921000,1513.592000,410.892000C1507.103000,403.863000,1503.318000,408.729000,1503.318000,408.729000Z" opacity="0.702" fill="rgb(219,251,255)" fill-rule="evenodd" stroke="none" stroke-width="1"/><path id="eea1lbf7zgb611" d="M1190.270000,562.694000C1190.270000,560.874000,1203.792000,538.510000,1221.995000,540.850000C1240.199000,543.190000,1250.080000,564.254000,1250.080000,564.254000C1250.080000,564.254000,1260.482000,559.573000,1264.643000,573.616000C1268.804000,587.658000,1244.879000,592.339000,1244.879000,592.339000C1244.879000,592.339000,1246.440000,603.261000,1234.478000,602.221000C1222.516000,601.181000,1210.033000,593.379000,1210.033000,593.379000C1210.033000,593.379000,1202.492000,601.441000,1194.951000,600.660000C1187.409000,599.880000,1176.748000,594.419000,1176.748000,594.419000C1176.748000,594.419000,1167.646000,604.041000,1158.544000,602.221000C1149.443000,600.400000,1149.183000,593.899000,1149.183000,593.899000C1149.183000,593.899000,1138.001000,598.840000,1134.100000,591.819000C1130.199000,584.798000,1139.301000,585.058000,1139.301000,585.058000C1139.301000,585.058000,1138.521000,577.256000,1150.223000,576.736000C1161.925000,576.216000,1161.665000,579.337000,1161.665000,579.337000C1161.665000,579.337000,1165.046000,568.155000,1175.187000,563.214000C1185.329000,558.273000,1190.270000,564.514000,1190.270000,562.694000Z" opacity="0.702" fill="rgb(219,251,255)" fill-rule="evenodd" stroke="none" stroke-width="1"/><path id="eea1lbf7zgb612" d="M1156.324000,328.615000C1156.324000,328.615000,1154.819000,323.091000,1149.633000,326.556000C1144.447000,330.022000,1145.298000,334.928000,1149.633000,338.394000C1153.968000,341.859000,1163.014000,340.452000,1163.014000,340.452000C1163.014000,340.452000,1167.171000,350.883000,1178.454000,349.716000C1189.737000,348.550000,1189.262000,346.113000,1189.262000,346.113000C1189.262000,346.113000,1192.647000,352.941000,1204.187000,352.804000C1215.728000,352.667000,1222.201000,344.569000,1222.201000,344.569000C1222.201000,344.569000,1243.084000,355.257000,1254.110000,343.540000C1265.136000,331.823000,1249.993000,325.527000,1249.993000,325.527000C1249.993000,325.527000,1246.944000,310.224000,1235.582000,308.028000C1224.220000,305.833000,1211.393000,311.631000,1211.393000,311.631000C1211.393000,311.631000,1204.484000,303.791000,1186.174000,306.484000C1167.864000,309.178000,1167.646000,319.866000,1167.646000,319.866000C1167.646000,319.866000,1162.796000,318.973000,1159.412000,322.954000C1156.027000,326.934000,1156.324000,328.615000,1156.324000,328.615000Z" opacity="0.702" fill="rgb(219,251,255)" fill-rule="evenodd" stroke="none" stroke-width="1"/></g><path id="eea1lbf7zgb613" d="M1142.443000,623.381000L1176.799000,592.781000L1207.720000,627.971000L1207.720000,571.361000L1246.657000,571.361000L1246.657000,635.621000L1255.287000,608.081000L1255.287000,588.191000L1281.013000,588.191000L1281.013000,606.551000L1297.046000,627.971000L1306.515000,627.971000L1306.515000,595.841000L1322.548000,574.421000L1322.548000,611.141000L1371.178000,578.141000L1371.178000,624.911000L1377.373000,624.911000L1377.373000,583.601000L1396.841000,609.611000L1396.841000,562.181000L1423.020000,562.181000L1423.020000,534.641000L1435.617000,551.471000L1435.617000,591.251000L1448.214000,574.421000L1474.554000,574.421000L1474.554000,559.121000L1502.039000,595.841000L1502.039000,556.061000L1518.072000,577.481000L1536.395000,553.001000L1536.395000,582.071000L1554.719000,606.551000L1554.719000,687.641000L1133.281000,687.641000L1142.443000,623.381000Z" fill="rgb(178,195,183)" fill-rule="evenodd" stroke="none" stroke-width="1"/><path id="eea1lbf7zgb614" d="M1562,706L1126,706C1120.477000,706,1116,701.523000,1116,696L1116,259C1116,253.477000,1120.477000,249,1126,249L1562,249C1567.523000,249,1572,253.477000,1572,259L1572,696C1572,701.523000,1567.523000,706,1562,706ZM1329,289C1329,283.477000,1324.523000,279,1319,279L1156,279C1150.477000,279,1146,283.477000,1146,289L1146,452C1146,457.523000,1150.477000,462,1156,462L1319,462C1324.523000,462,1329,457.523000,1329,452L1329,289ZM1329,502C1329,496.477000,1324.523000,492,1319,492L1156,492C1150.477000,492,1146,496.477000,1146,502L1146,665C1146,670.523000,1150.477000,675,1156,675L1319,675C1324.523000,675,1329,670.523000,1329,665L1329,502ZM1542,289C1542,283.477000,1537.523000,279,1532,279L1369,279C1363.477000,279,1359,283.477000,1359,289L1359,452C1359,457.523000,1363.477000,462,1369,462L1532,462C1537.523000,462,1542,457.523000,1542,452L1542,289ZM1542,502C1542,496.477000,1537.523000,492,1532,492L1369,492C1363.477000,492,1359,496.477000,1359,502L1359,665C1359,670.523000,1363.477000,675,1369,675L1532,675C1537.523000,675,1542,670.523000,1542,665L1542,502Z" fill="rgb(47,168,199)" fill-rule="evenodd" stroke="none" stroke-width="1"/></g><g id="eea1lbf7zgb615"><path id="eea1lbf7zgb616" d="M1119,827L1557,827C1562.523000,827,1567,831.477000,1567,837L1567,1119C1567,1124.523000,1562.523000,1129,1557,1129L1119,1129C1113.477000,1129,1109,1124.523000,1109,1119L1109,837C1109,831.477000,1113.477000,827,1119,827Z" fill="rgb(120,206,205)" fill-rule="evenodd" stroke="none" stroke-width="1"/><path id="eea1lbf7zgb617" d="M1533,1108L1142,1108C1136.477000,1108,1132,1103.523000,1132,1098L1132,1002C1132,996.477000,1136.477000,992,1142,992L1533,992C1538.523000,992,1543,996.477000,1543,1002L1543,1098C1543,1103.523000,1538.523000,1108,1533,1108ZM1340,1028C1327.297000,1028,1317,1038.297000,1317,1051C1317,1063.703000,1327.297000,1074,1340,1074C1352.703000,1074,1363,1063.703000,1363,1051C1363,1038.297000,1352.703000,1028,1340,1028ZM1533,968L1142,968C1136.477000,968,1132,963.523000,1132,958L1132,862C1132,856.477000,1136.477000,852,1142,852L1533,852C1538.523000,852,1543,856.477000,1543,862L1543,958C1543,963.523000,1538.523000,968,1533,968ZM1340,888C1327.297000,888,1317,898.297000,1317,911C1317,923.703000,1327.297000,934,1340,934C1352.703000,934,1363,923.703000,1363,911C1363,898.297000,1352.703000,888,1340,888Z" fill="rgb(100,186,185)" fill-rule="evenodd" stroke="none" stroke-width="1"/></g><path id="eea1lbf7zgb618" d="M1570.452000,1222.774000C1431.941000,1273.395000,1244.889000,1301.752000,1056.634000,1313.506000C1000.864000,1316.340000,938.840000,1318.577000,886.336000,1319.415000C877.995000,1319.548000,882.141000,1319.509000,873.838000,1319.598000C858.193000,1319.766000,839.854000,1319.889000,821.458000,1319.940000C636.420000,1318.667000,471.004000,1302.508000,375.914000,1277.508000C256.933000,1246.228000,244.548000,1187.337000,273.997000,1128.034000L1784.392000,1128.405000C1738.218000,1155.587000,1669.514000,1186.570000,1570.452000,1222.774000Z" fill="url(#eea1lbf7zgb618-fill)" stroke="none" stroke-width="1"/><g id="eea1lbf7zgb619"><path id="eea1lbf7zgb620" d="M1539.887000,1065.406000C1537.665000,1047.528000,1528.706000,983.819000,1554.725000,909.284000C1580.744000,834.749000,1601.435000,782.863000,1620.946000,766.840000C1640.457000,750.817000,1661.752000,754.194000,1667.204000,776.230000C1672.655000,798.266000,1647.488000,780.527000,1637.613000,790.099000C1627.739000,799.671000,1655.662000,811.032000,1628.056000,834.145000C1600.449000,857.258000,1584.431000,859.387000,1581.121000,873.073000C1577.812000,886.758000,1574.899000,903.640000,1569.192000,918.196000C1563.486000,932.753000,1562.492000,923.458000,1551.784000,946.100000C1528.639000,995.040000,1542.108000,1083.285000,1539.887000,1065.406000Z" fill="url(#eea1lbf7zgb620-fill)" stroke="none" stroke-width="1"/><path id="eea1lbf7zgb621" d="M1535.924000,1069.733000C1535.924000,1069.733000,1532.561000,975.849000,1579.881000,905.266000C1627.201000,834.684000,1649.444000,826.702000,1667.992000,826.489000C1686.541000,826.276000,1693.817000,830.219000,1693.313000,840.127000C1692.810000,850.035000,1679.906000,852.654000,1680.372000,862.491000C1680.838000,872.328000,1678.023000,876.292000,1659.415000,883.151000C1640.806000,890.010000,1604.094000,899.990000,1608.084000,906.950000C1612.074000,913.911000,1623.784000,906.470000,1635.335000,923.154000C1646.885000,939.839000,1619.983000,943.343000,1611.128000,943.530000C1602.273000,943.717000,1611.916000,947.630000,1601.918000,951.399000C1591.920000,955.168000,1584.173000,948.912000,1569.213000,972.513000C1563.138000,982.097000,1560.572000,982.597000,1553.136000,999.874000C1542.261000,1025.141000,1535.924000,1069.733000,1535.924000,1069.733000Z" fill="url(#eea1lbf7zgb621-fill)" stroke="none" stroke-width="1"/><path id="eea1lbf7zgb622" d="M1535.924000,1069.733000C1535.924000,1069.733000,1532.561000,975.849000,1579.881000,905.266000C1627.201000,834.684000,1649.444000,826.702000,1667.992000,826.489000C1686.541000,826.276000,1693.817000,830.219000,1693.313000,840.127000C1692.810000,850.035000,1679.906000,852.654000,1680.372000,862.491000C1680.838000,872.328000,1678.023000,876.292000,1659.415000,883.151000C1640.806000,890.010000,1604.094000,899.990000,1608.084000,906.950000C1612.074000,913.911000,1623.784000,906.470000,1635.335000,923.154000C1646.885000,939.839000,1619.983000,943.343000,1611.128000,943.530000C1602.273000,943.717000,1611.916000,947.630000,1601.918000,951.399000C1591.920000,955.168000,1584.173000,948.912000,1569.213000,972.513000C1563.138000,982.097000,1560.572000,982.597000,1553.136000,999.874000C1542.261000,1025.141000,1535.924000,1069.733000,1535.924000,1069.733000Z" fill="url(#eea1lbf7zgb622-fill)" stroke="none" stroke-width="1"/><path id="eea1lbf7zgb623" d="M1510.907000,1061.447000C1510.907000,1061.447000,1563.888000,984.963000,1604.003000,962.031000C1644.118000,939.099000,1693.782000,945.855000,1708.811000,967.493000C1723.840000,989.131000,1721.348000,997.972000,1721.348000,997.972000C1721.348000,997.972000,1717.249000,990.522000,1713.057000,986.030000C1708.864000,981.538000,1659.603000,967.709000,1656.376000,972.465000C1653.147000,977.222000,1665.472000,976.246000,1668.867000,989.431000C1672.261000,1002.616000,1676.932000,1004.628000,1674.889000,1009.588000C1672.847000,1014.548000,1671.977000,1013.390000,1671.977000,1013.390000C1671.977000,1013.390000,1684.786000,1026.773000,1678.593000,1032.335000C1672.401000,1037.896000,1668.890000,1037.121000,1668.890000,1037.121000C1668.890000,1037.121000,1673.083000,1041.613000,1670.124000,1045.579000C1667.166000,1049.546000,1664.784000,1053.864000,1664.784000,1053.864000C1664.784000,1053.864000,1633.666000,1001.399000,1600.104000,993.390000C1563.312000,984.611000,1510.907000,1061.447000,1510.907000,1061.447000Z" fill="url(#eea1lbf7zgb623-fill)" stroke="none" stroke-width="1"/><path id="eea1lbf7zgb624" d="M1543.144000,1042.490000C1543.144000,1042.490000,1508.618000,973.780000,1478.442000,950.385000C1448.266000,926.991000,1415.362000,938.093000,1400.570000,954.072000C1385.779000,970.050000,1386.798000,977.574000,1386.798000,977.574000C1386.798000,977.574000,1401.017000,965.615000,1404.964000,962.421000C1408.912000,959.227000,1432.298000,948.623000,1434.390000,952.889000C1436.483000,957.154000,1426.512000,954.935000,1422.214000,965.336000C1417.916000,975.737000,1412.944000,972.533000,1414.043000,976.829000C1415.142000,981.124000,1416.906000,984.588000,1416.906000,984.588000C1416.906000,984.588000,1408.097000,989.526000,1412.522000,994.792000C1416.947000,1000.058000,1416.695000,1004.368000,1416.695000,1004.368000C1416.695000,1004.368000,1406.918000,1009.879000,1408.881000,1013.467000C1410.844000,1017.054000,1409.912000,1034.819000,1409.912000,1034.819000C1409.912000,1034.819000,1449.633000,979.190000,1478.016000,976.503000C1509.130000,973.558000,1543.144000,1042.490000,1543.144000,1042.490000Z" fill="url(#eea1lbf7zgb624-fill)" stroke="none" stroke-width="1"/><path id="eea1lbf7zgb625" d="M1526.676000,1007.414000C1526.676000,1007.414000,1550.159000,874.675000,1535.754000,802.071000C1521.348000,729.467000,1515.746000,717.095000,1490.886000,688.737000C1466.026000,660.379000,1433.772000,635.581000,1433.772000,635.581000C1433.772000,635.581000,1444.717000,677.681000,1452.252000,684.861000C1459.787000,692.041000,1466.340000,696.703000,1462.361000,706.206000C1458.382000,715.709000,1443.630000,742.643000,1459.426000,757.482000C1475.223000,772.320000,1501.258000,799.612000,1489.574000,815.316000C1477.890000,831.020000,1476.960000,824.053000,1494.060000,872.887000C1511.161000,921.721000,1526.676000,1007.414000,1526.676000,1007.414000Z" fill="url(#eea1lbf7zgb625-fill)" stroke="none" stroke-width="1"/><path id="eea1lbf7zgb626" d="M1541.795000,1053.349000C1541.795000,1053.349000,1521.772000,1002.048000,1547.122000,910.693000C1572.471000,819.338000,1624.344000,740.513000,1624.344000,740.513000C1624.344000,740.513000,1620.351000,705.338000,1591.785000,713.520000C1563.220000,721.703000,1547.648000,751.099000,1545.049000,782.702000C1542.450000,814.305000,1545.027000,818.127000,1529.358000,832.691000C1513.690000,847.255000,1519.548000,848.102000,1514.442000,867.266000C1509.336000,886.430000,1515.143000,888.415000,1517.325000,902.830000C1519.506000,917.244000,1516.471000,940.531000,1523.614000,950.346000C1529.213000,958.040000,1535.911000,960.681000,1534.288000,968.212000C1525.870000,1007.283000,1541.237000,1054.728000,1541.795000,1053.349000Z" fill="url(#eea1lbf7zgb626-fill)" stroke="none" stroke-width="1"/><path id="eea1lbf7zgb627" d="M1531.013000,1033.332000C1530.041000,1017.831000,1525.876000,985.734000,1519.287000,985.543000C1508.997000,985.360000,1517.311000,971.369000,1507.095000,964.535000C1496.901000,957.909000,1492.139000,961.594000,1483.279000,946.964000C1474.435000,932.732000,1470.401000,937.547000,1470.765000,917.477000C1470.704000,897.868000,1453.533000,896.626000,1431.755000,887.978000C1420.800000,883.715000,1411.444000,878.251000,1405.535000,869.814000C1402.577000,865.584000,1400.495000,860.560000,1399.401000,854.539000C1398.852000,851.531000,1398.546000,848.277000,1398.471000,844.780000C1398.453000,843.906000,1398.448000,843.017000,1398.458000,842.113000C1398.468000,841.209000,1398.491000,840.290000,1398.528000,839.357000C1398.603000,837.492000,1398.731000,835.568000,1398.909000,833.592000C1399.795000,823.405000,1397.829000,822.055000,1401.187000,820.935000C1404.510000,819.776000,1407.837000,821.135000,1407.841000,821.124000C1407.598000,820.977000,1415.918000,824.537000,1431.098000,832.654000C1446.032000,841.315000,1467.826000,854.532000,1488.861000,886.252000C1509.931000,918.116000,1522.162000,972.670000,1532.374000,1015.252000C1533.821000,1021.717000,1535.223000,1027.908000,1536.560000,1033.774000L1531.013000,1033.332000Z" fill="url(#eea1lbf7zgb627-fill)" stroke="none" stroke-width="1"/><path id="eea1lbf7zgb628" d="M1467,1017L1619,1017L1599,1129L1487,1129L1467,1017Z" fill="rgb(40,117,125)" fill-rule="evenodd" stroke="none" stroke-width="1"/><path id="eea1lbf7zgb629" d="M1472,1000L1615,1000C1620.523000,1000,1625,1004.477000,1625,1010L1625,1030C1625,1035.523000,1620.523000,1040,1615,1040L1472,1040C1466.477000,1040,1462,1035.523000,1462,1030L1462,1010C1462,1004.477000,1466.477000,1000,1472,1000Z" fill="rgb(49,139,149)" fill-rule="evenodd" stroke="none" stroke-width="1"/></g><g id="eea1lbf7zgb630"><path id="eea1lbf7zgb631" d="M746.337000,858C746.280000,858.007000,746.223000,857.956000,746.169000,857.853000C746.114000,857.956000,746.057000,858.007000,746,858C702.096000,852.390000,627,732,627,732C627,732,654.922000,721.206000,674,714C693.078000,706.794000,680,651,680,651L744.341000,646.269000C744.342000,646.097000,744.343000,646,744.343000,646L746.169000,646.135000L748,646C748,646,748.001000,646.097000,748.002000,646.270000L812.150000,651C812.150000,651,799.109000,706.794000,818.133000,714C837.157000,721.206000,865,732,865,732C865,732,790.117000,852.390000,746.337000,858Z" fill="url(#eea1lbf7zgb631-fill)" stroke="none" stroke-width="1"/><path id="eea1lbf7zgb632" d="M684,666L684,676C684,676,725.890000,711.677000,746,712C766.110000,712.323000,808,676,808,676L808,655L684,666Z" fill="rgb(232,172,133)" fill-rule="evenodd" stroke="none" stroke-width="1"/><path id="eea1lbf7zgb633" d="M634.069000,568.292000C634.069000,568.292000,610.258000,553.745000,605.213000,565.742000C600.167000,577.738000,611.637000,602.611000,625,606C638.363000,609.389000,647.573000,601.882000,648,600.171000C648.427000,598.460000,634.069000,568.292000,634.069000,568.292000Z" fill="rgb(245,217,206)" fill-rule="evenodd" stroke="none" stroke-width="1"/><path id="eea1lbf7zgb634" d="M853.931000,568.317000C853.931000,568.317000,877.741000,553.721000,882.787000,565.758000C887.833000,577.796000,876.363000,602.752000,863,606.153000C849.637000,609.554000,840.427000,602.021000,840,600.304000C839.573000,598.587000,853.931000,568.317000,853.931000,568.317000Z" fill="rgb(229,161,116)" fill-rule="evenodd" stroke="none" stroke-width="1"/><path id="eea1lbf7zgb635" d="M838.631000,639.040000C798.362000,689.497000,769.929000,695.563000,747.967000,698.619000C747.344000,698.960000,746.688000,699.093000,746,699C745.864000,698.982000,745.725000,698.962000,745.589000,698.944000C745.529000,698.952000,745.467000,698.961000,745.407000,698.969000C744.785000,699.052000,744.192000,698.944000,743.623000,698.674000C721.690000,695.622000,693.280000,689.652000,653,639C611.250000,586.500000,617,472,617,472C617,472,654.830000,417.151000,745.830000,418.151000C836.830000,419.151000,874.718000,472.238000,874.718000,472.238000C874.718000,472.238000,880.482000,586.602000,838.631000,639.040000Z" fill="url(#eea1lbf7zgb635-fill)" stroke="none" stroke-width="1"/></g><g id="eea1lbf7zgb636"><path id="eea1lbf7zgb637" d="M832.228000,565.208000C832.316000,565.363000,832.364000,565.453000,832.364000,565.453000L831.819000,565.692000C831.590000,565.932000,831.338000,566.152000,831.059000,566.343000C829.095000,567.681000,826.605000,567.976000,826.605000,567.976000C826.605000,567.976000,820.171000,558.414000,811.761000,553.536000C814.981000,556.293000,817.025000,560.391000,817.025000,564.970000C817.025000,573.271000,810.315000,580,802.038000,580C793.761000,580,787.052000,573.271000,787.052000,564.970000C787.052000,557.685000,792.219000,551.612000,799.078000,550.234000C784.635000,549.910000,778.060000,560.409000,778.060000,560.409000C778.060000,560.409000,782.612000,543.977000,803.566000,546.115000C817.914000,547.579000,826.633000,557.165000,830.314000,562.267000C832.228000,562.800000,834.010000,559.568000,834.010000,559.568000C834.010000,559.568000,833.914000,562.974000,832.228000,565.208000ZM691.963000,550.294000C698.828000,551.670000,704,557.730000,704,565C704,573.284000,697.284000,580,689,580C680.716000,580,674,573.284000,674,565C674,560.430000,676.046000,556.341000,679.269000,553.589000C670.851000,558.458000,664.412000,568,664.412000,568C664.412000,568,661.919000,567.706000,659.954000,566.370000C659.674000,566.180000,659.422000,565.961000,659.193000,565.721000L658.647000,565.483000C658.647000,565.483000,658.695000,565.393000,658.783000,565.238000C657.096000,563.008000,657,559.609000,657,559.609000C657,559.609000,658.783000,562.835000,660.699000,562.303000C664.383000,557.211000,673.110000,547.645000,687.471000,546.183000C708.443000,544.049000,713,560.448000,713,560.448000C713,560.448000,706.419000,549.971000,691.963000,550.294000Z" fill="rgb(0,0,0)" fill-rule="evenodd" stroke="none" stroke-width="1"/><path id="eea1lbf7zgb638" d="M829.303000,575.303000C831.218000,575.833000,833,572.609000,833,572.609000C833,572.609000,832.904000,576.008000,831.217000,578.238000C831.307000,578.395000,831.353000,578.483000,831.353000,578.483000L830.807000,578.721000C830.578000,578.961000,830.326000,579.180000,830.046000,579.370000C828.080000,580.706000,825.588000,581,825.588000,581C825.588000,581,816.003000,571.792000,805,569C783.926000,563.653000,777,573.448000,777,573.448000C777,573.448000,781.556000,557.049000,802.529000,559.184000C811.403000,560.086000,818.123000,564.085000,822.834000,568.209000C822.890000,568.139000,822.943000,568.073000,823,568C824.701000,565.799000,824,564,824,564C824,564,824.546000,563.527000,825,568C825.086000,568.844000,825.032000,569.548000,824.888000,570.134000C825.430000,570.675000,825.938000,571.211000,826.409000,571.734000C826.597000,571.510000,826.792000,571.269000,827,571C828.701000,568.799000,829,566,829,566C829,566,829.546000,565.528000,830,570C830.199000,571.961000,829.455000,573.355000,828.556000,574.303000C828.824000,574.652000,829.074000,574.986000,829.303000,575.303000ZM685,569C673.997000,571.792000,664.412000,581,664.412000,581C664.412000,581,661.919000,580.706000,659.954000,579.370000C659.674000,579.180000,659.422000,578.961000,659.193000,578.721000L658.647000,578.483000C658.647000,578.483000,658.693000,578.395000,658.783000,578.238000C657.096000,576.008000,657,572.609000,657,572.609000C657,572.609000,658.782000,575.833000,660.697000,575.303000C660.926000,574.986000,661.175000,574.652000,661.444000,574.303000C660.545000,573.355000,659.801000,571.961000,660,570C660.454000,565.528000,661,566,661,566C661,566,661.299000,568.799000,663,571C663.208000,571.269000,663.403000,571.510000,663.590000,571.734000C664.062000,571.211000,664.570000,570.675000,665.111000,570.134000C664.968000,569.548000,664.914000,568.844000,665,568C665.454000,563.527000,666,564,666,564C666,564,665.299000,565.799000,667,568C667.057000,568.073000,667.110000,568.139000,667.165000,568.209000C671.877000,564.085000,678.597000,560.086000,687.471000,559.184000C708.443000,557.049000,713,573.448000,713,573.448000C713,573.448000,706.074000,563.653000,685,569Z" opacity="0" fill="rgb(0,0,0)" fill-rule="evenodd" stroke="none" stroke-width="1"/><path id="eea1lbf7zgb639" d="M815.356000,609C801.193000,609,789.712000,603.851000,789.712000,597.500000C789.712000,591.149000,801.193000,586,815.356000,586C829.519000,586,841,591.149000,841,597.500000C841,603.851000,829.519000,609,815.356000,609ZM676.644000,609C662.481000,609,651,603.851000,651,597.500000C651,591.149000,662.481000,586,676.644000,586C690.807000,586,702.288000,591.149000,702.288000,597.500000C702.288000,603.851000,690.807000,609,676.644000,609Z" opacity="0" fill="rgb(255,80,80)" fill-rule="evenodd" stroke="none" stroke-width="1"/></g><g id="eea1lbf7zgb640"><path id="eea1lbf7zgb641" d="M805.969000,526.978000C790.364000,523.918000,774.990000,531.033000,774.990000,531.033000C774.990000,531.033000,776.012000,509.399000,812.029000,521.883000C829.341000,527.883000,845,547.935000,845,547.935000C845,547.935000,822.784000,530.275000,805.969000,526.978000ZM685.066000,527.084000C668.235000,530.375000,646,548,646,548C646,548,661.673000,527.988000,679,522C715.049000,509.541000,716.072000,531.131000,716.072000,531.131000C716.072000,531.131000,700.684000,524.031000,685.066000,527.084000Z" fill="rgb(138,106,61)" fill-rule="evenodd" stroke="none" stroke-width="1"/><path id="eea1lbf7zgb642" d="M706,624C706,624,729.404000,636.018000,750,636C770.179000,635.983000,789,625,789,625C789,625,765.601000,650.670000,749,651C730.943000,651.358000,706,624,706,624Z" fill="rgb(173,68,65)" fill-rule="evenodd" stroke="none" stroke-width="1"/><path id="eea1lbf7zgb643" d="M756.247000,589.621000C756.247000,589.621000,766.683000,592.404000,763.834000,602.852000C760.985000,613.301000,754.209000,615.767000,754.209000,615.767000C754.209000,615.767000,758.214000,609.248000,758.690000,603.128000C759.229000,596.223000,756.247000,589.621000,756.247000,589.621000Z" fill="rgb(227,149,118)" fill-rule="evenodd" stroke="none" stroke-width="1"/></g><path id="eea1lbf7zgb644" d="M982.813000,812.078000C981.641000,823.370000,976.817000,861,976.817000,861L746,861L745,861L514,861C514,861,509.172000,823.310000,508,812C506.828000,800.690000,511.672000,782.310000,515,770C518.327000,757.690000,534.672000,743.810000,552,737C569.327000,730.190000,582.672000,736.810000,596,733C609.328000,729.190000,619.672000,729.310000,629,725C638.327000,720.690000,637,729,637,729C637.091000,729.590000,663.535000,778.602000,691.175000,809.538000C716.574000,837.966000,741.740000,857.717000,745.500000,860.617000C749.260000,857.720000,774.404000,838.001000,799.782000,809.620000C827.400000,778.733000,853.823000,729.800000,853.914000,729.210000C853.914000,729.210000,852.588000,720.914000,861.908000,725.217000C871.228000,729.520000,881.565000,729.400000,894.882000,733.204000C908.199000,737.008000,921.533000,730.399000,938.847000,737.198000C956.161000,743.996000,972.493000,757.855000,975.818000,770.145000C979.143000,782.435000,983.984000,800.786000,982.813000,812.078000Z" fill="rgb(160,19,19)" fill-rule="evenodd" stroke="none" stroke-width="1"/><g id="eea1lbf7zgb645"><path id="eea1lbf7zgb646" d="M846.734000,365C846.734000,365,850.675000,329.118000,828.677000,313.251000C806.679000,297.384000,748.369000,257.410000,724.581000,319.857000C714.267000,346.931000,724.581000,359.495000,724.581000,359.495000L846.734000,365Z" fill="url(#eea1lbf7zgb646-fill)" stroke="none" stroke-width="1"/><path id="eea1lbf7zgb647" d="M849,367C845.043000,368.256000,841,366,841,366C841,366,847.624000,364.077000,851,358C854.376000,351.923000,855,349,855,349C855,349,852.957000,365.744000,849,367ZM716,337C713.290000,327.077000,716.043000,325.589000,716,328C715.889000,334.230000,722,341,722,341L721,345C721,345,718.710000,346.923000,716,337Z" fill="rgb(57,38,13)" fill-rule="evenodd" stroke="none" stroke-width="1"/><path id="eea1lbf7zgb648" d="M904,490C895.652000,524.428000,863.906000,572.949000,867.864000,565.837000C870,562,867.876000,546.256000,868,528C868.189000,500.076000,836,473,836,473L797.909000,450.145000C783.309000,463.533000,763.643000,482.361000,676,488C642.296000,490.168000,621,558,621,558C621,558,575.995000,530.598000,603,435C627.736000,347.432000,706.561000,339.689000,733.465000,337.415000C799.437000,331.837000,864.075000,362.358000,891,398C908.111000,420.651000,913.800000,449.582000,904,490Z" fill="url(#eea1lbf7zgb648-fill)" stroke="none" stroke-width="1"/><path id="eea1lbf7zgb649" d="M781.421000,440.349000C781.421000,440.349000,769.952000,448.533000,798.825000,473.181000C827.699000,497.828000,860.355000,511.698000,855.402000,526.379000C850.393000,541.221000,848.623000,539.359000,848.623000,539.359000C848.623000,539.359000,853.448000,538.361000,858.574000,533.791000C862.635000,530.170000,864.249000,524.755000,864.249000,524.755000C864.249000,524.755000,866.429000,532.723000,864.956000,539.559000C863.619000,545.769000,856,552,856,552C856,552,871.153000,554.139000,875.827000,540.401000C884.221000,515.735000,857.883000,465.667000,830.435000,445.994000C806.490000,428.832000,781.421000,440.349000,781.421000,440.349000Z" fill="rgb(149,108,53)" fill-rule="evenodd" stroke="none" stroke-width="1"/><path id="eea1lbf7zgb650" d="M797.890000,454.849000C796.261000,457.397000,792.773000,462.322000,787,468C779.003000,475.865000,756,483,756,483C756,483,766.440000,478.700000,775,473C777.956000,471.031000,780.778000,467.799000,783.207000,464.410000C766.321000,473.319000,737.980000,483.719000,681,505C619.742000,527.879000,624,576,624,576C624,576,584.450000,518.811000,645,463C741.499000,374.053000,800,453,800,453C799.316000,453.627000,798.615000,454.242000,797.890000,454.849000Z" fill="rgb(195,147,83)" fill-rule="evenodd" stroke="none" stroke-width="1"/></g><g id="eea1lbf7zgb651"><path id="eea1lbf7zgb652" d="M751.128000,710C783.090000,710,809,714.477000,809,720C809,725.523000,783.090000,730,751.128000,730C719.166000,730,693.256000,725.523000,693.256000,720C693.256000,714.477000,719.166000,710,751.128000,710Z" fill="rgb(163,163,163)" fill-rule="evenodd" stroke="none" stroke-width="1"/><path id="eea1lbf7zgb653" d="M699.500000,825C673.266000,825,652,803.957000,652,778C652,752.043000,673.266000,731,699.500000,731C725.733000,731,747,752.043000,747,778C747,803.957000,725.733000,825,699.500000,825ZM698.602000,741.024000C678.107000,741.024000,661.493000,757.455000,661.493000,777.725000C661.493000,797.994000,678.107000,814.425000,698.602000,814.425000C719.097000,814.425000,735.711000,797.994000,735.711000,777.725000C735.711000,757.455000,719.097000,741.024000,698.602000,741.024000Z" fill="rgb(163,163,163)" fill-rule="evenodd" stroke="none" stroke-width="1"/><path id="eea1lbf7zgb654" d="M754.199000,725.873000C776.755000,725.873000,796.727000,723.680000,809,720.310000C808.206000,740.104000,803.313000,835.456000,796.910000,839.996000C783.744000,849.332000,725.659000,854.450000,705.161000,839.923000C698.451000,835.168000,693.399000,728.778000,692.986000,718.149000C703.764000,722.712000,727.119000,725.873000,754.199000,725.873000ZM751.977000,848.908000C753.376000,848.914000,747.671000,849.002000,751.977000,848.908000Z" fill="url(#eea1lbf7zgb654-fill)" stroke="none" stroke-width="1"/><path id="eea1lbf7zgb655" d="M607.334000,832.035000C593.762000,817.718000,599.376000,787.515000,616.703000,745.261000C620.247000,736.621000,635.820000,732.776000,642.936000,731.265000C650.080000,729.749000,660.503000,724.734000,664.953000,731.265000C669.403000,737.797000,684.862000,748.993000,686.033000,751.793000C687.205000,754.592000,686.033000,759.257000,686.033000,759.257000C686.033000,759.257000,688.509000,764.145000,685.521000,772.653000C682.422000,781.475000,683.832000,793.315000,678.538000,797.979000C663.189000,811.502000,654.475000,803.163000,648.089000,825.970000C646.475000,831.736000,641.380000,843.448000,627.946000,843.698000C614.391000,843.950000,605.801000,830.418000,607.334000,832.035000Z" fill="url(#eea1lbf7zgb655-fill)" stroke="none" stroke-width="1"/><path id="eea1lbf7zgb656" d="M634.973000,755.058000C634.973000,755.058000,654.647000,745.495000,662.611000,748.993000C670.575000,752.492000,676.196000,755.991000,676.196000,755.991000C676.196000,755.991000,665.056000,756.725000,655.588000,756.511000C644.563000,756.261000,634.973000,755.058000,634.973000,755.058000Z" fill="rgb(236,196,169)" fill-rule="evenodd" stroke="none" stroke-width="1"/><path id="eea1lbf7zgb657" d="M607.334000,832.035000C605.801000,830.418000,614.391000,843.950000,627.946000,843.698000C641.380000,843.448000,646.475000,831.736000,648.089000,825.970000C648.345000,825.059000,648.605000,824.214000,648.868000,823.398000C649.034000,823.307000,649.207000,823.225000,649.370000,823.130000L631.575000,984.266000C630.567000,988.890000,626.009000,991.819000,621.394000,990.809000L549.721000,968.530000C545.107000,967.520000,542.184000,962.952000,543.192000,958.328000L598.056000,814.560000C598.449000,812.757000,599.093000,813.015000,600.001000,814.048000C600.720000,821.520000,603.088000,827.556000,607.334000,832.035000Z" opacity="0.49" fill="rgb(255,12,12)" fill-rule="evenodd" stroke="none" stroke-width="1"/></g><g id="eea1lbf7zgb658"><path id="eea1lbf7zgb659" d="M529,820L963,820C979.569000,820,993,833.431000,993,850L993,1098C993,1114.569000,979.569000,1128,963,1128L529,1128C512.431000,1128,499,1114.569000,499,1098L499,850C499,833.431000,512.431000,820,529,820Z" fill="rgb(213,213,213)" fill-rule="evenodd" stroke="none" stroke-width="1"/><path id="eea1lbf7zgb660" d="M529,820L953,820C953,820,759.163000,840.528000,653,907C537.553000,979.284000,499,1098,499,1098L499,850C499,833.431000,512.431000,820,529,820Z" fill="rgb(225,225,225)" fill-rule="evenodd" stroke="none" stroke-width="1"/><path id="eea1lbf7zgb661" d="M780.687000,977.168000L775.852000,977.168000L773.513000,977.168000C772.679000,987.307000,766.053000,995.854000,756.855000,999.686000C756.413000,1001.229000,754.960000,1002.362000,753.232000,1002.362000C751.151000,1002.362000,749.469000,1000.724000,749.469000,998.703000C749.469000,996.682000,751.151000,995.043000,753.232000,995.043000C753.994000,995.043000,754.705000,995.265000,755.299000,995.646000C763.465000,992.161000,769.173000,984.228000,769.173000,975C769.173000,974.268000,769.137000,973.545000,769.065000,972.831000L773.513000,972.831000L774.797000,972.831000L780.687000,972.831000C779.747000,958.404000,769.501000,946.435000,755.724000,942.537000C755.086000,943.026000,754.279000,943.317000,753.400000,943.317000C751.322000,943.317000,749.640000,941.680000,749.640000,939.658000C749.640000,937.636000,751.322000,936,753.400000,936C754.925000,936,756.235000,936.879000,756.827000,938.146000C773.319000,942.722000,785.403000,957.490000,785.403000,975C785.403000,975.727000,785.379000,976.451000,785.338000,977.168000L780.687000,977.168000ZM770.755000,963.120000C772.574000,963.378000,773.969000,964.898000,773.969000,966.739000C773.969000,968.762000,772.285000,970.398000,770.207000,970.398000C768.127000,970.398000,766.445000,968.762000,766.445000,966.739000C766.445000,966.158000,766.585000,965.610000,766.832000,965.122000C763.068000,957.627000,755.156000,952.463000,746.005000,952.463000C745.384000,952.463000,744.767000,952.487000,744.160000,952.535000L744.160000,948.216000L744.160000,946.349000L744.160000,941.241000C729.255000,942,716.837000,951.899000,712.713000,965.282000C713.220000,965.906000,713.524000,966.695000,713.524000,967.551000C713.524000,969.574000,711.841000,971.211000,709.762000,971.211000C707.684000,971.211000,706,969.574000,706,967.551000C706,966.076000,706.897000,964.805000,708.190000,964.227000C712.976000,948.310000,728.096000,936.678000,746.005000,936.678000C746.624000,936.678000,747.239000,936.694000,747.851000,936.721000L747.851000,941.241000L747.851000,946.722000L747.851000,948.216000C757.917000,948.863000,766.507000,954.761000,770.755000,963.120000ZM711.324000,972.831000L716.159000,972.831000L718.498000,972.831000C719.332000,962.693000,725.958000,954.145000,735.155000,950.314000C735.597000,948.770000,737.051000,947.637000,738.779000,947.637000C740.859000,947.637000,742.542000,949.275000,742.542000,951.296000C742.542000,953.317000,740.859000,954.955000,738.779000,954.955000C738.017000,954.955000,737.306000,954.734000,736.713000,954.354000C728.546000,957.838000,722.837000,965.772000,722.837000,975C722.837000,975.731000,722.875000,976.454000,722.945000,977.168000L718.498000,977.168000L717.214000,977.168000L711.324000,977.168000C712.263000,991.594000,722.510000,1003.565000,736.287000,1007.462000C736.925000,1006.973000,737.733000,1006.682000,738.610000,1006.682000C740.689000,1006.682000,742.372000,1008.319000,742.372000,1010.341000C742.372000,1012.363000,740.689000,1014,738.610000,1014C737.086000,1014,735.775000,1013.120000,735.184000,1011.853000C718.691000,1007.277000,706.609000,992.509000,706.609000,975C706.609000,974.272000,706.632000,973.548000,706.673000,972.831000L711.324000,972.831000ZM746.005000,992.676000L745.993000,992.676000C735.959000,992.676000,727.821000,984.761000,727.821000,975C727.821000,965.238000,735.959000,957.323000,745.993000,957.323000L746.005000,957.323000L746.018000,957.323000C756.052000,957.323000,764.190000,965.238000,764.190000,975C764.190000,984.761000,756.052000,992.676000,746.018000,992.676000L746.005000,992.676000ZM759.833000,975C759.833000,967.578000,753.647000,961.561000,746.018000,961.561000L746.005000,961.561000L745.993000,961.561000C738.364000,961.561000,732.177000,967.578000,732.177000,975C732.177000,982.421000,738.364000,988.438000,745.993000,988.438000L746.005000,988.438000L746.018000,988.438000C753.647000,988.438000,759.833000,982.421000,759.833000,975ZM738.584000,975C738.584000,971.024000,741.918000,967.781000,746.005000,967.781000C750.093000,967.781000,753.427000,971.024000,753.427000,975C753.427000,978.976000,750.093000,982.219000,746.005000,982.219000C741.918000,982.219000,738.584000,978.976000,738.584000,975ZM721.255000,986.879000C719.438000,986.621000,718.042000,985.101000,718.042000,983.260000C718.042000,981.238000,719.726000,979.601000,721.804000,979.601000C723.883000,979.601000,725.566000,981.238000,725.566000,983.260000C725.566000,983.840000,725.426000,984.389000,725.179000,984.877000C728.943000,992.372000,736.855000,997.536000,746.005000,997.536000C746.626000,997.536000,747.244000,997.511000,747.851000,997.464000L747.851000,1001.784000L747.851000,1003.650000L747.851000,1008.758000C762.756000,1007.999000,775.173000,998.100000,779.298000,984.717000C778.791000,984.093000,778.487000,983.304000,778.487000,982.447000C778.487000,980.425000,780.170000,978.788000,782.249000,978.788000C784.327000,978.788000,786.011000,980.425000,786.011000,982.447000C786.011000,983.923000,785.114000,985.194000,783.821000,985.773000C779.034000,1001.689000,763.915000,1013.322000,746.005000,1013.322000C745.387000,1013.322000,744.773000,1013.305000,744.160000,1013.279000L744.160000,1008.758000L744.160000,1003.277000L744.160000,1001.784000C734.094000,1001.136000,725.505000,995.238000,721.255000,986.879000Z" fill="rgb(163,163,163)" fill-rule="evenodd" stroke="none" stroke-width="1"/></g><g id="eea1lbf7zgb662"><path id="eea1lbf7zgb663" d="M1179.500000,1089L1179.500000,1122L1045,1122L1045,1129L1240,1129C1252.979000,1129,1263.500000,1118.479000,1263.500000,1105.500000C1263.500000,1092.521000,1252.979000,1082,1240,1082L1045,1082L1045,1089L1179.500000,1089Z" fill="rgb(0,0,0)" fill-rule="evenodd" stroke="none" stroke-width="1"/><path id="eea1lbf7zgb664" d="M1232,1089L1051,1089L1051,1122L1232,1122C1244.979000,1122,1255.500000,1118.479000,1255.500000,1105.500000C1255.500000,1092.521000,1244.979000,1089,1232,1089Z" fill="rgb(255,255,255)" fill-rule="evenodd" stroke="none" stroke-width="1"/><path id="eea1lbf7zgb665" d="M1173.500000,1042L1173.500000,1075L1059,1075L1059,1082L1234,1082C1246.979000,1082,1257.500000,1071.479000,1257.500000,1058.500000C1257.500000,1045.521000,1246.979000,1035,1234,1035L1059,1035L1059,1042L1173.500000,1042Z" fill="rgb(89,151,47)" fill-rule="evenodd" stroke="none" stroke-width="1"/><path id="eea1lbf7zgb666" d="M1226,1042L1065,1042L1065,1075L1226,1075C1238.979000,1075,1249.500000,1071.479000,1249.500000,1058.500000C1249.500000,1045.521000,1238.979000,1042,1226,1042Z" fill="rgb(255,255,255)" fill-rule="evenodd" stroke="none" stroke-width="1"/><path id="eea1lbf7zgb667" d="M1163.500000,1005L1163.500000,1028L1069,1028L1069,1035L1224,1035C1236.979000,1035,1247.500000,1029.479000,1247.500000,1016.500000C1247.500000,1003.521000,1236.979000,998,1224,998L1069,998L1069,1005L1163.500000,1005Z" fill="rgb(151,57,47)" fill-rule="evenodd" stroke="none" stroke-width="1"/><path id="eea1lbf7zgb668" d="M1216,1005L1075,1005L1075,1028L1216,1028C1228.979000,1028,1239.500000,1029.479000,1239.500000,1016.500000C1239.500000,1003.521000,1228.979000,1005,1216,1005Z" fill="rgb(255,255,255)" fill-rule="evenodd" stroke="none" stroke-width="1"/></g><script><![CDATA[!function(t,n){"object"==typeof exports&&"undefined"!=typeof module?module.exports=n():"function"==typeof define&&define.amd?define(n):(t=t||self).__SVGATOR_PLAYER__=n()}(this,(function(){"use strict";function t(n){return(t="function"==typeof Symbol&&"symbol"==typeof Symbol.iterator?function(t){return typeof t}:function(t){return t&&"function"==typeof Symbol&&t.constructor===Symbol&&t!==Symbol.prototype?"symbol":typeof t})(n)}function n(t,n){if(!(t instanceof n))throw new TypeError("Cannot call a class as a function")}function r(t,n){for(var r=0;r<n.length;r++){var e=n[r];e.enumerable=e.enumerable||!1,e.configurable=!0,"value"in e&&(e.writable=!0),Object.defineProperty(t,e.key,e)}}function e(t,n,e){return n&&r(t.prototype,n),e&&r(t,e),t}var i=1e-5,u=Math.abs;function o(t){return t}function a(t,n,r){var e=1-r;return 3*r*e*(t*e+n*r)+r*r*r}function l(){var t=arguments.length>0&&void 0!==arguments[0]?arguments[0]:0,n=arguments.length>1&&void 0!==arguments[1]?arguments[1]:0,r=arguments.length>2&&void 0!==arguments[2]?arguments[2]:1,e=arguments.length>3&&void 0!==arguments[3]?arguments[3]:1;return t<0||t>1||r<0||r>1?null:u(t-n)<=i&&u(r-e)<=i?o:function(o){if(o<=0)return t>0?o*n/t:0===n&&r>0?o*e/r:0;if(o>=1)return r<1?1+(o-1)*(e-1)/(r-1):1===r&&t<1?1+(o-1)*(n-1)/(t-1):1;for(var l,f=0,s=1;f<s;){var c=a(t,r,l=(f+s)/2);if(u(o-c)<i)break;c<o?f=l:s=l}return a(n,e,l)}}function f(){return 1}function s(t){return 1===t?1:0}function c(){var t=arguments.length>0&&void 0!==arguments[0]?arguments[0]:1,n=arguments.length>1&&void 0!==arguments[1]?arguments[1]:0;if(1===t){if(0===n)return s;if(1===n)return f}var r=1/t;return function(t){return t>=1?1:(t+=n*r)-t%r}}function v(t){var n=arguments.length>1&&void 0!==arguments[1]?arguments[1]:2;if(Number.isInteger(t))return t;var r=Math.pow(10,n);return Math.round(t*r)/r}var h=Math.PI/180;function y(t,n,r){return t>=.5?r:n}function d(t,n,r){return 0===t||n===r?n:t*(r-n)+n}function g(t,n,r){var e=d(t,n,r);return e<=0?0:e}function m(t,n,r){return 0===t?n:1===t?r:{x:d(t,n.x,r.x),y:d(t,n.y,r.y)}}function p(t,n,r){return 0===t?n:1===t?r:{x:g(t,n.x,r.x),y:g(t,n.y,r.y)}}function b(t,n,r){var e=function(t,n,r){return Math.round(d(t,n,r))}(t,n,r);return e<=0?0:e>=255?255:e}function w(t,n,r){return 0===t?n:1===t?r:{r:b(t,n.r,r.r),g:b(t,n.g,r.g),b:b(t,n.b,r.b),a:d(t,null==n.a?1:n.a,null==r.a?1:r.a)}}function A(t,n,r){if(0===t)return n;if(1===t)return r;var e=n.length;if(e!==r.length)return y(t,n,r);for(var i=[],u=0;u<e;u++)i.push(w(t,n[u],r[u]));return i}function x(t,n,r){var e=n.length;if(e!==r.length)return y(t,n,r);for(var i=new Array(e),u=0;u<e;u++)i[u]=d(t,n[u],r[u]);return i}function k(t,n){for(var r=[],e=0;e<t;e++)r.push(n);return r}function S(t,n){if(--n<=0)return t;var r=(t=Object.assign([],t)).length;do{for(var e=0;e<r;e++)t.push(t[e])}while(--n>0);return t}var _=6,M=/\.0+$/g;function I(t){return Number.isInteger(t)?t+"":t.toFixed(_).replace(M,"")}function E(t){var n=arguments.length>1&&void 0!==arguments[1]?arguments[1]:" ";return t&&t.length?t.map(I).join(n):""}function F(t){return I(t.x)+","+I(t.y)}function B(t){return t?null==t.a||t.a>=1?"rgb("+t.r+","+t.g+","+t.b+")":"rgba("+t.r+","+t.g+","+t.b+","+t.a+")":"transparent"}var j={f:null,i:p,u:function(t,n){return function(r){var e=n(r);t.setAttribute("rx",I(e.x)),t.setAttribute("ry",I(e.y))}}},q={f:null,i:function(t,n,r){return 0===t?n:1===t?r:{width:g(t,n.width,r.width),height:g(t,n.height,r.height)}},u:function(t,n){return function(r){var e=n(r);t.setAttribute("width",I(e.width)),t.setAttribute("height",I(e.height))}}},P=Math.sin,O=Math.cos,z=Math.acos,L=Math.asin,C=Math.tan,R=Math.atan2,T=Math.PI/180,V=180/Math.PI,D=Math.sqrt,N=function(){function t(){var r=arguments.length>0&&void 0!==arguments[0]?arguments[0]:1,e=arguments.length>1&&void 0!==arguments[1]?arguments[1]:0,i=arguments.length>2&&void 0!==arguments[2]?arguments[2]:0,u=arguments.length>3&&void 0!==arguments[3]?arguments[3]:1,o=arguments.length>4&&void 0!==arguments[4]?arguments[4]:0,a=arguments.length>5&&void 0!==arguments[5]?arguments[5]:0;n(this,t),this.m=[r,e,i,u,o,a],this.i=null,this.w=null,this.s=null}return e(t,[{key:"point",value:function(t,n){var r=this.m;return{x:r[0]*t+r[2]*n+r[4],y:r[1]*t+r[3]*n+r[5]}}},{key:"translateSelf",value:function(){var t=arguments.length>0&&void 0!==arguments[0]?arguments[0]:0,n=arguments.length>1&&void 0!==arguments[1]?arguments[1]:0;if(!t&&!n)return this;var r=this.m;return r[4]+=r[0]*t+r[2]*n,r[5]+=r[1]*t+r[3]*n,this.w=this.s=this.i=null,this}},{key:"rotateSelf",value:function(){var t=arguments.length>0&&void 0!==arguments[0]?arguments[0]:0;if(t%=360){var n=P(t*=T),r=O(t),e=this.m,i=e[0],u=e[1];e[0]=i*r+e[2]*n,e[1]=u*r+e[3]*n,e[2]=e[2]*r-i*n,e[3]=e[3]*r-u*n,this.w=this.s=this.i=null}return this}},{key:"scaleSelf",value:function(){var t=arguments.length>0&&void 0!==arguments[0]?arguments[0]:1,n=arguments.length>1&&void 0!==arguments[1]?arguments[1]:1;if(1!==t||1!==n){var r=this.m;r[0]*=t,r[1]*=t,r[2]*=n,r[3]*=n,this.w=this.s=this.i=null}return this}},{key:"skewSelf",value:function(t,n){if(n%=360,(t%=360)||n){var r=this.m,e=r[0],i=r[1],u=r[2],o=r[3];t&&(t=C(t*T),r[2]+=e*t,r[3]+=i*t),n&&(n=C(n*T),r[0]+=u*n,r[1]+=o*n),this.w=this.s=this.i=null}return this}},{key:"resetSelf",value:function(){var t=arguments.length>0&&void 0!==arguments[0]?arguments[0]:1,n=arguments.length>1&&void 0!==arguments[1]?arguments[1]:0,r=arguments.length>2&&void 0!==arguments[2]?arguments[2]:0,e=arguments.length>3&&void 0!==arguments[3]?arguments[3]:1,i=arguments.length>4&&void 0!==arguments[4]?arguments[4]:0,u=arguments.length>5&&void 0!==arguments[5]?arguments[5]:0,o=this.m;return o[0]=t,o[1]=n,o[2]=r,o[3]=e,o[4]=i,o[5]=u,this.w=this.s=this.i=null,this}},{key:"recomposeSelf",value:function(){var t=arguments.length>0&&void 0!==arguments[0]?arguments[0]:null,n=arguments.length>1&&void 0!==arguments[1]?arguments[1]:null,r=arguments.length>2&&void 0!==arguments[2]?arguments[2]:null,e=arguments.length>3&&void 0!==arguments[3]?arguments[3]:null,i=arguments.length>4&&void 0!==arguments[4]?arguments[4]:null;return this.isIdentity||this.resetSelf(),t&&(t.x||t.y)&&this.translateSelf(t.x,t.y),n&&this.rotateSelf(n),r&&(r.x&&this.skewSelf(r.x,0),r.y&&this.skewSelf(0,r.y)),!e||1===e.x&&1===e.y||this.scaleSelf(e.x,e.y),i&&(i.x||i.y)&&this.translateSelf(i.x,i.y),this}},{key:"decompose",value:function(){var t=arguments.length>0&&void 0!==arguments[0]?arguments[0]:0,n=arguments.length>1&&void 0!==arguments[1]?arguments[1]:0,r=this.m,e=r[0]*r[0]+r[1]*r[1],i=[[r[0],r[1]],[r[2],r[3]]],u=D(e);if(0===u)return{origin:{x:r[4],y:r[5]},translate:{x:t,y:n},scale:{x:0,y:0},skew:{x:0,y:0},rotate:0};i[0][0]/=u,i[0][1]/=u;var o=r[0]*r[3]-r[1]*r[2]<0;o&&(u=-u);var a=i[0][0]*i[1][0]+i[0][1]*i[1][1];i[1][0]-=i[0][0]*a,i[1][1]-=i[0][1]*a;var l=D(i[1][0]*i[1][0]+i[1][1]*i[1][1]);if(0===l)return{origin:{x:r[4],y:r[5]},translate:{x:t,y:n},scale:{x:u,y:0},skew:{x:0,y:0},rotate:0};i[1][0]/=l,i[1][1]/=l,a/=l;var f=0;return i[1][1]<0?(f=z(i[1][1])*V,i[0][1]<0&&(f=360-f)):f=L(i[0][1])*V,o&&(f=-f),a=R(a,D(i[0][0]*i[0][0]+i[0][1]*i[0][1]))*V,{origin:{x:r[4],y:r[5]},translate:{x:t,y:n},scale:{x:u,y:l},skew:{x:a,y:0},rotate:f}}},{key:"toString",value:function(){return null===this.s&&(this.s="matrix("+this.m.map($).join(" ")+")"),this.s}},{key:"determinant",get:function(){var t=this.m;return t[0]*t[3]-t[1]*t[2]}},{key:"isIdentity",get:function(){if(null===this.i){var t=this.m;this.i=1===t[0]&&0===t[1]&&0===t[2]&&1===t[3]&&0===t[4]&&0===t[5]}return this.i}}]),t}(),G=/\.0+$/;function $(t){return Number.isInteger(t)?t:t.toFixed(14).replace(G,"")}Object.freeze({M:2,L:2,Z:0,H:1,V:1,C:6,Q:4,T:2,S:4,A:7});function H(t,n,r){return t+(n-t)*r}function Q(t,n,r){var e=arguments.length>3&&void 0!==arguments[3]&&arguments[3],i={x:H(t.x,n.x,r),y:H(t.y,n.y,r)};return e&&(i.a=function(t,n){return Math.atan2(n.y-t.y,n.x-t.x)}(t,n)),i}function U(t,n,r,e){var i=1-e;return i*i*t+2*i*e*n+e*e*r}function Y(t,n,r,e){return 2*(1-e)*(n-t)+2*e*(r-n)}function Z(t,n,r,e){var i=arguments.length>4&&void 0!==arguments[4]&&arguments[4],u={x:U(t.x,n.x,r.x,e),y:U(t.y,n.y,r.y,e)};return i&&(u.a=function(t,n,r,e){return Math.atan2(Y(t.y,n.y,r.y,e),Y(t.x,n.x,r.x,e))}(t,n,r,e)),u}function J(t,n,r,e,i){var u=i*i;return i*u*(e-t+3*(n-r))+3*u*(t+r-2*n)+3*i*(n-t)+t}function K(t,n,r,e,i){var u=1-i;return 3*(u*u*(n-t)+2*u*i*(r-n)+i*i*(e-r))}function W(t,n,r,e,i){var u=arguments.length>5&&void 0!==arguments[5]&&arguments[5],o={x:J(t.x,n.x,r.x,e.x,i),y:J(t.y,n.y,r.y,e.y,i)};return u&&(o.a=function(t,n,r,e,i){return Math.atan2(K(t.y,n.y,r.y,e.y,i),K(t.x,n.x,r.x,e.x,i))}(t,n,r,e,i)),o}function X(t,n,r){var e,i=arguments.length>3&&void 0!==arguments[3]&&arguments[3];if(nt(n)){if(null!=(e=r).start&&!nt(e))return Z(n,r.start,r,t,i)}else if(nt(r)){if(n.end)return Z(n,n.end,r,t,i)}else{if(n.end)return r.start?W(n,n.end,r.start,r,t,i):Z(n,n.end,r,t,i);if(r.start)return Z(n,r.start,r,t,i)}return Q(n,r,t,i)}function tt(t,n,r){var e=X(t,n,r,!0);return e.a=function(t){return arguments.length>1&&void 0!==arguments[1]&&arguments[1]?t+Math.PI:t}(e.a)/h,e}function nt(t){return!t.type||"corner"===t.type}var rt=new N;var et={f:function(t){return t?t.join(" "):""},i:function(n,r,e){if(0===n)return r;if(1===n)return e;var i=r.length;if(i!==e.length)return y(n,r,e);for(var u,o=new Array(i),a=0;a<i;a++){if((u=t(r[a]))!==t(e[a]))return y(n,r,e);if("number"===u)o[a]=d(n,r[a],e[a]);else{if(r[a]!==e[a])return y(n,r,e);o[a]=r[a]}}return o}},it={f:null,i:x,u:function(t,n){return function(r){var e=n(r);t.setAttribute("x1",I(e[0])),t.setAttribute("y1",I(e[1])),t.setAttribute("x2",I(e[2])),t.setAttribute("y2",I(e[3]))}}},ut={f:I,i:d},ot={f:I,i:function(t,n,r){var e=d(t,n,r);return e<=0?0:e>=1?1:e}},at={f:E,i:function(t,n,r){var e,i,u,o=n.length,a=r.length;if(o!==a)if(0===o)n=k(o=a,0);else if(0===a)a=o,r=k(o,0);else{var l=(u=(e=o)*(i=a)/function(t,n){for(var r;n;)r=n,n=t%n,t=r;return t||1}(e,i))<0?-u:u;n=S(n,Math.floor(l/o)),r=S(r,Math.floor(l/a)),o=a=l}for(var f=[],s=0;s<o;s++)f.push(v(g(t,n[s],r[s]),6));return f}};function lt(t,n,r,e,i,u,o,a){return n=function(t,n,r){for(var e,i,u,o=t.length-1,a={},l=0;l<=o;l++)(e=t[l]).e&&(e.e=n(e.e)),e.v&&"g"===(i=e.v).t&&i.r&&(u=r.getElementById(i.r))&&(a[i.r]=u.querySelectorAll("stop"));return a}(t,e,a),function(e){var i,u=r(e,t,ft);return u?"c"===u.t?B(u.v):"g"===u.t?(n[u.r]&&function(t,n){for(var r=0,e=t.length;r<e;r++)t[r].setAttribute("stop-color",B(n[r]))}(n[u.r],u.v),(i=u.r)?"url(#"+i+")":"none"):"none":"none"}}function ft(t,n,r){if(0===t)return n;if(1===t)return r;if(n&&r){var e=n.t;if(e===r.t)switch(n.t){case"c":return{t:e,v:w(t,n.v,r.v)};case"g":if(n.r===r.r)return{t:e,v:A(t,n.v,r.v),r:n.r}}}return y(t,n,r)}var st={blur:p,brightness:g,contrast:g,"drop-shadow":function(t,n,r){return 0===t?n:1===t?r:{blur:p(t,n.blur,r.blur),offset:m(t,n.offset,r.offset),color:w(t,n.color,r.color)}},grayscale:g,"hue-rotate":d,invert:g,opacity:g,saturate:g,sepia:g};function ct(t,n,r){if(0===t)return n;if(1===t)return r;var e=n.length;if(e!==r.length)return y(t,n,r);for(var i,u=[],o=0;o<e;o++){if(n[o].type!==r[o].type)return n;if(!(i=st[n[o].type]))return y(t,n,r);u.push({type:n.type,value:i(t,n[o].value,r[o].value)})}return u}var vt={blur:function(t){return t?function(n){t.setAttribute("stdDeviation",F(n))}:null},brightness:function(t,n,r){return(t=yt(r,n))?function(n){n=I(n),t.map((function(t){return t.setAttribute("slope",n)}))}:null},contrast:function(t,n,r){return(t=yt(r,n))?function(n){var r=I((1-n)/2);n=I(n),t.map((function(t){t.setAttribute("slope",n),t.setAttribute("intercept",r)}))}:null},"drop-shadow":function(t,n,r){var e=r.getElementById(n+"-blur");if(!e)return null;var i=r.getElementById(n+"-offset");if(!i)return null;var u=r.getElementById(n+"-flood");return u?function(t){e.setAttribute("stdDeviation",F(t.blur)),i.setAttribute("dx",I(t.offset.x)),i.setAttribute("dy",I(t.offset.y)),u.setAttribute("flood-color",B(t.color))}:null},grayscale:function(t){return t?function(n){t.setAttribute("values",E(function(t){return[.2126+.7874*(t=1-t),.7152-.7152*t,.0722-.0722*t,0,0,.2126-.2126*t,.7152+.2848*t,.0722-.0722*t,0,0,.2126-.2126*t,.7152-.7152*t,.0722+.9278*t,0,0,0,0,0,1,0]}(n)))}:null},"hue-rotate":function(t){return t?function(n){return t.setAttribute("values",I(n))}:null},invert:function(t,n,r){return(t=yt(r,n))?function(n){n=I(n)+" "+I(1-n),t.map((function(t){return t.setAttribute("tableValues",n)}))}:null},opacity:function(t,n,r){return(t=r.getElementById(n+"-A"))?function(n){return t.setAttribute("tableValues","0 "+I(n))}:null},saturate:function(t){return t?function(n){return t.setAttribute("values",I(n))}:null},sepia:function(t){return t?function(n){return t.setAttribute("values",E(function(t){return[.393+.607*(t=1-t),.769-.769*t,.189-.189*t,0,0,.349-.349*t,.686+.314*t,.168-.168*t,0,0,.272-.272*t,.534-.534*t,.131+.869*t,0,0,0,0,0,1,0]}(n)))}:null}};var ht=["R","G","B"];function yt(t,n){var r=ht.map((function(r){return t.getElementById(n+"-"+r)||null}));return-1!==r.indexOf(null)?null:r}var dt={fill:lt,"fill-opacity":ot,stroke:lt,"stroke-opacity":ot,"stroke-width":ut,"stroke-dashoffset":{f:I,i:d},"stroke-dasharray":at,opacity:ot,transform:function(n,r,e,i){if(!(n=function(n,r){if(!n||"object"!==t(n))return null;var e=!1;for(var i in n)n.hasOwnProperty(i)&&(n[i]&&n[i].length?(n[i].forEach((function(t){t.e&&(t.e=r(t.e))})),e=!0):delete n[i]);return e?n:null}(n,i)))return null;var u=function(t,i,u){var o=arguments.length>3&&void 0!==arguments[3]?arguments[3]:null;return n[t]?e(i,n[t],u):r&&r[t]?r[t]:o};return r&&r.a&&n.o?function(t){var r=e(t,n.o,tt);return rt.recomposeSelf(r,u("r",t,d,0)+r.a,u("k",t,m),u("s",t,m),u("t",t,m)).toString()}:function(t){return rt.recomposeSelf(u("o",t,X,null),u("r",t,d,0),u("k",t,m),u("s",t,m),u("t",t,m)).toString()}},"#filter":function(t,n,r,e,i,u,o,a){if(!n.items||!t||!t.length)return null;var l=function(t,n){var r=(t=t.map((function(t){return t&&vt[t[0]]?(n.getElementById(t[1]),vt[t[0]](n.getElementById(t[1]),t[1],n)):null}))).length;return function(n){for(var e=0;e<r;e++)t[e]&&t[e](n[e].value)}}(n.items,a);return l?(t=function(t,n){return t.map((function(t){return t.e=n(t.e),t}))}(t,e),function(n){l(r(n,t,ct))}):null},"#line":it,points:{f:E,i:x},d:et,r:ut,"#size":q,"#radius":j,_:function(t,n){if(Array.isArray(t))for(var r=0;r<t.length;r++)this[t[r]]=n;else this[t]=n}},gt=function(){function t(r){n(this,t),this.list=r,this.length=r.length}return e(t,[{key:"setAttribute",value:function(t,n){for(var r=this.list,e=0;e<this.length;e++)r[e].setAttribute(t,n)}},{key:"removeAttribute",value:function(t){for(var n=this.list,r=0;r<this.length;r++)n[r].removeAttribute(t)}},{key:"style",value:function(t,n){for(var r=this.list,e=0;e<this.length;e++)r[e].style[t]=n}}]),t}(),mt=/-./g,pt=function(t,n){return n.toUpperCase()};function bt(t){return"function"==typeof t?t:y}function wt(t){return t?"function"==typeof t?t:Array.isArray(t)?function(t){var n=arguments.length>1&&void 0!==arguments[1]?arguments[1]:o;if(!Array.isArray(t))return n;switch(t.length){case 1:return c(t[0])||n;case 2:return c(t[0],t[1])||n;case 4:return l(t[0],t[1],t[2],t[3])||n}return n}(t,null):function(t,n){var r=arguments.length>2&&void 0!==arguments[2]?arguments[2]:o;switch(t){case"linear":return o;case"steps":return c(n.steps||1,n.jump||0)||r;case"bezier":case"cubic-bezier":return l(n.x1||0,n.y1||0,n.x2||0,n.y2||0)||r}return r}(t.type,t.value,null):null}function At(t,n,r){var e=arguments.length>3&&void 0!==arguments[3]&&arguments[3],i=n.length-1;if(t<=n[0].t)return e?[0,0,n[0].v]:n[0].v;if(t>=n[i].t)return e?[i,1,n[i].v]:n[i].v;var u,o=n[0],a=null;for(u=1;u<=i;u++){if(!(t>n[u].t)){a=n[u];break}o=n[u]}return null==a?e?[i,1,n[i].v]:n[i].v:o.t===a.t?e?[u,1,a.v]:a.v:(t=(t-o.t)/(a.t-o.t),o.e&&(t=o.e(t)),e?[u,t,r(t,o.v,a.v)]:r(t,o.v,a.v))}function xt(t,n){var r=arguments.length>2&&void 0!==arguments[2]?arguments[2]:null;return t&&t.length?"function"!=typeof n?null:("function"!=typeof r&&(r=null),function(e){var i=At(e,t,n);return null!=i&&r&&(i=r(i)),i}):null}function kt(t,n){return t.t-n.t}function St(n,r,e,i,u){var o,a="@"===e[0],l="#"===e[0],f=dt[e],s=y;switch(a?(o=e.substr(1),e=o.replace(mt,pt)):l&&(e=e.substr(1)),t(f)){case"function":if(s=f(i,u,At,wt,e,a,r,n),l)return s;break;case"string":s=xt(i,bt(f));break;case"object":if((s=xt(i,bt(f.i),f.f))&&"function"==typeof f.u)return f.u(r,s,e,a,n)}return s?function(t,n,r){if(arguments.length>3&&void 0!==arguments[3]&&arguments[3])return t instanceof gt?function(e){return t.style(n,r(e))}:function(e){return t.style[n]=r(e)};if(Array.isArray(n)){var e=n.length;return function(i){var u=r(i);if(null==u)for(var o=0;o<e;o++)t[o].removeAttribute(n);else for(var a=0;a<e;a++)t[a].setAttribute(n,u)}}return function(e){var i=r(e);null==i?t.removeAttribute(n):t.setAttribute(n,i)}}(r,e,s,a):null}function _t(n,r,e,i){if(!i||"object"!==t(i))return null;var u=null,o=null;return Array.isArray(i)?o=function(t){if(!t||!t.length)return null;for(var n=0;n<t.length;n++)t[n].e&&(t[n].e=wt(t[n].e));return t.sort(kt)}(i):(o=i.keys,u=i.data||null),o?St(n,r,e,o,u):null}function Mt(t,n,r){if(!r)return null;var e=[];for(var i in r)if(r.hasOwnProperty(i)){var u=_t(t,n,i,r[i]);u&&e.push(u)}return e.length?e:null}function It(t,n){if(!n.duration||n.duration<0)return null;var r=function(t,n){if(!n)return null;var r=[];if(Array.isArray(n))for(var e=n.length,i=0;i<e;i++){var u=n[i];if(2===u.length){var o=null;if("string"==typeof u[0])o=t.getElementById(u[0]);else if(Array.isArray(u[0])){o=[];for(var a=0;a<u[0].length;a++)if("string"==typeof u[0][a]){var l=t.getElementById(u[0][a]);l&&o.push(l)}o=o.length?1===o.length?o[0]:new gt(o):null}if(o){var f=Mt(t,o,u[1]);f&&(r=r.concat(f))}}}else for(var s in n)if(n.hasOwnProperty(s)){var c=t.getElementById(s);if(c){var v=Mt(t,c,n[s]);v&&(r=r.concat(v))}}return r.length?r:null}(t,n.elements);return r?function(t,n){var r=arguments.length>2&&void 0!==arguments[2]?arguments[2]:1/0,e=arguments.length>3&&void 0!==arguments[3]?arguments[3]:1,i=arguments.length>4&&void 0!==arguments[4]&&arguments[4],u=arguments.length>5&&void 0!==arguments[5]?arguments[5]:1,o=t.length,a=e>0?n:0;i&&r%2==0&&(a=n-a);var l=null;return function(f,s){var c=f%n,v=1+(f-c)/n;s*=e,i&&v%2==0&&(s=-s);var h=!1;if(v>r)c=a,h=!0,-1===u&&(c=e>0?0:n);else if(s<0&&(c=n-c),c===l)return!1;l=c;for(var y=0;y<o;y++)t[y](c);return h}}(r,n.duration,n.iterations||1/0,n.direction||1,!!n.alternate,n.fill||1):null}var Et=function(){function t(r){var e=arguments.length>1&&void 0!==arguments[1]?arguments[1]:{};n(this,t),this._id=0,this._running=!1,this._animations=r,this.direction=e.direction||1,this.speed=e.speed||1,this.fps=e.fps||100,this.offset=e.offset||0}return e(t,[{key:"_start",value:function(){var t=this,n=arguments.length>0&&void 0!==arguments[0]?arguments[0]:0,r=-1/0,e=null,i={},u=function u(o){t._running=!0,null==e&&(e=o);var a=Math.round((o-e+n)*t.speed),l=t.fps?1e3/t.fps:0;if(a>r+l){t.offset=a,r=a;for(var f=t._animations,s=f.length,c=0,v=0;v<s;v++)i[v]?c++:(i[v]=f[v](a,t.direction),i[v]&&c++);if(c===s)return void t._stop()}t._id=window.requestAnimationFrame(u)};this._id=window.requestAnimationFrame(u)}},{key:"_stop",value:function(){this._id&&window.cancelAnimationFrame(this._id),this._running=!1}},{key:"play",value:function(){this._running||this._start(this.offset)}},{key:"stop",value:function(){this._stop(),this.offset=0;var t=this.direction,n=this._animations;requestAnimationFrame((function(){for(var r=0;r<n.length;r++)n[r](0,t)}))}},{key:"restart",value:function(){this._stop(),this.offset=0,this._start()}},{key:"pause",value:function(){this._stop()}},{key:"reverse",value:function(){this.direction=-this.direction}}],[{key:"build",value:function(n){if(!(n=function(t){if(!t||!t.root||!Array.isArray(t.animations))return null;var n=window.document.getElementById(t.root);if(!n)return null;var r=t.animations.map((function(t){return It(n,t)})).filter((function(t){return!!t}));return r.length?{element:n,animations:r,options:t.options||void 0}:null}(n)))return null;var r=n.element,e=n.options||{},i=new t(n.animations,n.options);return function(t,n,r){var e=arguments.length>3&&void 0!==arguments[3]?arguments[3]:null;if("click"===r){return void n.addEventListener("click",(function r(){n.removeEventListener("click",r),t.play()}))}if("hover"===r)return n.addEventListener("mouseenter",(function(){return t.play()})),void n.addEventListener("mouseleave","freeze"===e?function(){return t.pause()}:function(){return t.stop()});t.play()}(i,r,e.start,e.hover),i}}]),t}();return function(){for(var t=0,n=["ms","moz","webkit","o"],r=0;r<n.length&&!window.requestAnimationFrame;++r)window.requestAnimationFrame=window[n[r]+"RequestAnimationFrame"],window.cancelAnimationFrame=window[n[r]+"CancelAnimationFrame"]||window[n[r]+"CancelRequestAnimationFrame"];window.requestAnimationFrame||(window.requestAnimationFrame=function(n){var r=Date.now(),e=Math.max(0,16-(r-t)),i=window.setTimeout((function(){n(r+e)}),e);return t=r+e,i},window.cancelAnimationFrame=window.clearTimeout)}(),Et}));
__SVGATOR_PLAYER__.build({"root":"eea1lbf7zgb61","animations":[{"duration":6000,"direction":1,"iterations":0,"fill":1,"alternate":false,"elements":{"eea1lbf7zgb63":{"d":[{"t":0,"v":["M",791.0814280554041,27.77778876511321,"C",27.000428055404065,155.7357887651132,-74.55757194459594,518.2497887651132,133.14242805540405,696.6887887651133,"C",384.81242805540404,912.9027887651132,469.09342805540405,924.9967887651133,368.42542805540404,992.5337887651132,"C",267.7574280554041,1060.0697887651131,32.167428055404066,1229.4157887651131,284.90642805540404,1295.8757887651132,"C",523.719428055404,1358.6737887651132,1108.324428055404,1494.358788765113,1730.668428055404,1374.0777887651132,"C",2349.0264280554043,1254.5667887651132,1688.0024280554042,970.1167887651133,1868.688428055404,802.5287887651132,"C",2024.4554280554041,658.0517887651132,2219.472428055404,344.4017887651132,1852.998428055404,126.51178876511321,"C",1629.3404280554041,-6.46621123488679,1103.3864280554042,-24.52321123488679,791.0814280554041,27.77778876511321,"Z"]},{"t":2000,"v":["M",745.505,40.46349054,"C",-18.57600000000005,168.42149053999998,-107.37631060999999,520.18,100.32368939,698.619,"C",351.99368939,914.833,322.187,966.237,221.51899999999998,1033.774,"C",120.85100000000003,1101.3099999999993,-119.59657194459594,1299.3933196,133.14242805540405,1365.8533196,"C",371.955428055404,1428.6513196,1133.149701,1440.221,1755.493701,1319.94,"C",2373.8517010000014,1200.429,1709.80153393,1113.688,1890.48753393,946.1,"C",2046.2545339300004,801.623,2187.763489,396.25539399999985,1821.289489,178.365394,"C",1597.631489,45.387394,1057.8099999999995,-11.83750946,745.505,40.46349054,"Z"]},{"t":4000,"v":["M",1022.45086189,18.777788765113215,"C",258.3698618899999,146.73578876511323,-148.18349092,418.5609999999999,59.51650908,597,"C",149.98682908,701.3611609999997,361.17772378,822.7910000000002,260.50972378,890.328,"C",159.84172378000005,957.8639999999997,-129.74426494000005,1147.3139999999999,122.99473506,1213.774,"C",240.08552705999998,1325.9188409999997,1820.715685,1469.8114199999998,1913.403592,1359.399788,"C",2041.582972000001,1167.513421,1423.3170000000002,783.3550000000002,1604.003,615.767,"C",1759.7700000000002,471.28999999999996,2223.951172,223.82003977,1982.48917,55.27688077,"C",1887.1329560000001,7.833404769999994,1357.78438689,-23.65384323488679,1022.45086189,18.777788765113215,"Z"]},{"t":6000,"v":["M",791.0814280554041,27.77778876511321,"C",27.000428055404065,155.7357887651132,-74.55757194459594,518.2497887651132,133.14242805540405,696.6887887651133,"C",384.81242805540404,912.9027887651132,469.09342805540405,924.9967887651133,368.42542805540404,992.5337887651132,"C",267.7574280554041,1060.0697887651131,32.167428055404066,1229.4157887651131,284.90642805540404,1295.8757887651132,"C",523.719428055404,1358.6737887651132,1108.324428055404,1494.358788765113,1730.668428055404,1374.0777887651132,"C",2349.0264280554043,1254.5667887651132,1688.0024280554042,970.1167887651133,1868.688428055404,802.5287887651132,"C",2024.4554280554041,658.0517887651132,2219.472428055404,344.4017887651132,1852.998428055404,126.51178876511321,"C",1629.3404280554041,-6.46621123488679,1103.3864280554042,-24.52321123488679,791.0814280554041,27.77778876511321,"Z"]}],"transform":{"data":{"s":{"x":0.9836654217364741,"y":0.9836654217364741}},"keys":{"o":[{"t":0,"v":{"x":-0.9415423200000532,"y":6.277851525000187,"type":"corner"}},{"t":3000,"v":{"x":53.05845767999995,"y":11.277851525000187,"type":"corner"}},{"t":6000,"v":{"x":-0.9415423200000532,"y":6.277851525000187,"type":"corner"}}]}}},"eea1lbf7zgb64":{"d":[{"t":0,"v":["M",828.9154841028146,63.50757037143491,"C",138.46678695951934,177.50671578258013,1.0175610565336388,500.4729191373822,188.7020804254753,659.4455277177763,"C",416.1195229061384,852.0730734173063,474.00697751733503,888.4328432408471,383.0405703769609,948.6022588439461,"C",292.07321348343464,1008.7707378706239,97.45834536473268,1173.6091245769464,325.84168680092586,1232.8185493483238,"C",541.6398492206642,1288.7658784446867,1233.73256906998,1297.4601173626181,1555.3332326166624,1181.555975510766,"C",2146.6210524245807,968.4567423968084,1599.4008291138723,901.6263952861873,1755.5972324831484,745.13290449269,"C",1890.252284613105,610.2218807491555,1928.5805228130955,418.28084556635986,1654.9822830721405,187.58708780387664,"C",1476.2900265458372,36.91722919735502,1111.1251356724772,16.911956840680496,828.9154841028146,63.50757037143491,"Z"]},{"t":2000,"v":["M",767.1442701501802,67.43246599810078,"C",40.16727015018026,189.15146599810075,-38.77441538043499,527.1652775018463,158.83958461956502,696.9032775018463,"C",398.288584619565,902.5752775018464,459.5095311468732,919.7145947734917,363.7305311468732,983.9585947734917,"C",267.9505311468732,1048.2015947734917,-5.466764628571823,1235.3134998141645,234.99923537142817,1298.5324998141646,"C",462.2142353714282,1358.2684998141644,1395.9533309497704,1387.063664347162,1734.5683309497704,1263.310664347162,"C",2357.1383309497687,1035.780664347162,1813.2360633311255,1067.8823072937644,1977.6960633311253,900.7913072937645,"C",2119.475063331125,756.7443072937645,2147.1479890800083,466.59831578096805,1859.0749890800082,220.28231578096808,"C",1670.9289890800083,59.40931578096807,1269.1752177066537,10.846653072866234,767.1442701501802,67.43246599810078,"Z"]},{"t":4000,"v":["M",888.1691180297701,27.17886286799186,"C",-65.266296823877,70.29751129247859,0.9353932954585957,510.5772606549026,198.5493932954586,680.3152606549027,"C",437.99839329545864,885.9872606549027,363.8864062663518,894.6259027074436,268.1074062663518,958.8699027074435,"C",172.32740626635177,1023.1129027074433,-77.79656010545847,1285.8475160377996,162.66943989454154,1349.0665160377996,"C",389.8844398945415,1408.8025160377995,1380.2176304523193,1320.1623738910118,1718.8326304523193,1196.4093738910117,"C",2341.4026304523177,968.8793738910119,1742.58053251045,914.6523939949813,1907.04053251045,747.5613939949812,"C",2048.81953251045,603.5143939949812,2233.695996126168,467.63833934435945,1945.622996126168,221.32233934435956,"C",1757.476996126168,60.44933934435956,1402.7810892054267,15.019335913659186,888.1691180297701,27.17886286799186,"Z"]},{"t":6000,"v":["M",828.9154841028146,63.50757037143491,"C",138.46678695951934,177.50671578258013,1.0175610565336388,500.4729191373822,188.7020804254753,659.4455277177763,"C",416.1195229061384,852.0730734173063,474.00697751733503,888.4328432408471,383.0405703769609,948.6022588439461,"C",292.07321348343464,1008.7707378706239,97.45834536473268,1173.6091245769464,325.84168680092586,1232.8185493483238,"C",541.6398492206642,1288.7658784446867,1233.73256906998,1297.4601173626181,1555.3332326166624,1181.555975510766,"C",2146.6210524245807,968.4567423968084,1599.4008291138723,901.6263952861873,1755.5972324831484,745.13290449269,"C",1890.252284613105,610.2218807491555,1928.5805228130955,418.28084556635986,1654.9822830721405,187.58708780387664,"C",1476.2900265458372,36.91722919735502,1111.1251356724772,16.911956840680496,828.9154841028146,63.50757037143491,"Z"]}],"transform":{"data":{"s":{"x":0.9716617955760466,"y":1.0220364589950044}},"keys":{"o":[{"t":0,"v":{"x":55.33623463000072,"y":36.09142651999977,"type":"corner"}},{"t":2000,"v":{"x":-29.56370254999956,"y":-6.964390804999908,"type":"corner"}},{"t":4000,"v":{"x":104.46727347000012,"y":-6.088885227499503,"type":"corner"}},{"t":6000,"v":{"x":55.33623463000072,"y":36.09142651999977,"type":"corner"}}]}},"fill-opacity":[{"t":0,"v":0.9},{"t":3000,"v":0.8},{"t":6000,"v":0.9}]},"eea1lbf7zgb66":{"d":[{"t":0,"v":["M",214.4762855945258,687.2576252460514,"C",362.16332631694496,951.7639541165504,-325.0555142074859,1396.3139262027694,202.53271424082513,1343.7734908889486,"C",409.84218779626246,1323.1279258269592,1926.2492631474452,1032.834442300574,2007.7977794422782,359.06814264742,"C",2040.9342278963616,85.2897421661701,1271.7588850672157,287.0986005171038,852.9734173446927,129.27096604686446,"C",505.8737205850584,-1.541321198083164,-290.3104908409359,-216.81629409780945,214.4762855945258,687.2576252460514,"Z"]},{"t":2000,"v":["M",322.5173806449992,725.9210511799994,"C",564.3543203674183,1030.4826300504983,-484.99857980331177,1558.12009557382,864.7587566449993,1378.0689882599993,"C",1072.0682302004363,1357.42342319801,1957.7589083501664,1160.6780178331517,2005.2035306449993,831.3610511799994,"C",2038.3399790990827,557.5826506987495,1836.3742243675222,246.37571365023865,1417.5887566449992,88.5480791799994,"C",1070.489059885365,-42.26420806494822,-571.0537917904625,-108.5809231638614,322.5173806449992,725.9210511799994,"Z"]},{"t":4000,"v":["M",279.3618901149993,644.3610511799994,"C",512.9907448374183,843.3879030504984,-441.05187380331176,1371.27073069382,598.6747566449992,1371.5755533799993,"C",805.9842302004366,1350.92998831801,2555.8272153501657,1469.0376853331527,1777.8215136449992,791.4390511799994,"C",1568.309827099082,528.1015786987492,2749.8882463675236,569.4481886502388,1476.0317566449992,151.2125621799994,"C",1109.4986268853652,67.04051293505177,-419.8170843204624,-224.92689566386136,279.3618901149993,644.3610511799994,"Z"]},{"t":6000,"v":["M",214.4762855945258,687.2576252460514,"C",362.16332631694496,951.7639541165504,-325.0555142074859,1396.3139262027694,202.53271424082513,1343.7734908889486,"C",409.84218779626246,1323.1279258269592,1926.2492631474452,1032.834442300574,2007.7977794422782,359.06814264742,"C",2040.9342278963616,85.2897421661701,1271.7588850672157,287.0986005171038,852.9734173446927,129.27096604686446,"C",505.8737205850584,-1.541321198083164,-290.3104908409359,-216.81629409780945,214.4762855945258,687.2576252460514,"Z"]}],"transform":{"keys":{"o":[{"t":0,"v":{"x":18.028243355000768,"y":20.638948820000593,"type":"corner"}},{"t":2000,"v":{"x":-22.971756644999232,"y":20.638948820000593,"type":"corner"}},{"t":4000,"v":{"x":66.48936967000077,"y":53.19638813500168,"type":"corner"}},{"t":6000,"v":{"x":18.028243355000768,"y":20.638948820000593,"type":"corner"}}]}}},"eea1lbf7zgb610":{"transform":{"keys":{"o":[{"t":0,"v":{"x":0,"y":0,"type":"corner"}},{"t":3000,"v":{"x":-80,"y":0,"type":"corner"}},{"t":6000,"v":{"x":0,"y":0,"type":"corner"}}]}}},"eea1lbf7zgb611":{"transform":{"keys":{"o":[{"t":0,"v":{"x":0,"y":0,"type":"corner"}},{"t":3000,"v":{"x":130,"y":0,"type":"corner"}},{"t":6000,"v":{"x":0,"y":0,"type":"corner"}}]}}},"eea1lbf7zgb612":{"transform":{"keys":{"o":[{"t":0,"v":{"x":0,"y":0,"type":"corner"}},{"t":3000,"v":{"x":90,"y":0,"type":"corner"}},{"t":6000,"v":{"x":0,"y":0,"type":"corner"}}]}}},"eea1lbf7zgb637":{"opacity":[{"t":0,"v":1},{"t":900,"v":1},{"t":1000,"v":0},{"t":4000,"v":0},{"t":4100,"v":1}]},"eea1lbf7zgb638":{"opacity":[{"t":0,"v":0},{"t":900,"v":0},{"t":1000,"v":1},{"t":4000,"v":1},{"t":4100,"v":0}]},"eea1lbf7zgb639":{"opacity":[{"t":0,"v":0},{"t":1500,"v":0.4},{"t":3000,"v":0.26},{"t":4000,"v":0},{"t":5000,"v":0}]},"eea1lbf7zgb642":{"d":[{"t":0,"v":["M",706,624,"C",706,624,729.404,636.018,750,636,"C",770.179,635.983,789,625,789,625,"C",789,625,765.601,650.67,749,651,"C",730.943,651.358,706,624,706,624,"Z"]},{"t":600,"v":["M",706,624,"C",706,624,728.873,627.989,749.469,627.971,"C",769.648,627.954,789,625,789,625,"C",789,625,766.07,659.4572509999999,749.469,659.787251,"C",731.412,660.1452509999999,706,624,706,624,"Z"]},{"t":5000,"v":["M",706,624,"C",706,624,729.404,636.018,750,636,"C",770.179,635.983,789,625,789,625,"C",789,625,765.601,650.67,749,651,"C",730.943,651.358,706,624,706,624,"Z"]}]},"eea1lbf7zgb651":{"transform":{"keys":{"o":[{"t":0,"v":{"x":0,"y":0,"type":"corner"}},{"t":900,"v":{"x":0,"y":-68,"type":"corner"}},{"t":4000,"v":{"x":0,"y":-68,"type":"corner"}},{"t":5000,"v":{"x":0,"y":0,"type":"corner"}}]}}}}}],"options":{"start":"load","hover":"freeze"}})]]></script></svg>