<svg xmlns="http://www.w3.org/2000/svg" width="42" height="41" viewBox="0 0 42 41">
  <defs>
    <style>
    .sm_icon {
      fill: #3fb1c6;
      fill-rule: evenodd;
    }
    </style>
  </defs>
  <path id="sm_tw" data-name="twitter" class="sm_icon" d="M-57.286-.2a7.43,7.43,0,0,0-5.451,2.263A7.43,7.43,0,0,0-65,7.514V33.228a7.429,7.429,0,0,0,2.263,5.451,7.43,7.43,0,0,0,5.451,2.263h14.25V25h-5.357V18.791h5.357V14.21a8.1,8.1,0,0,1,2.183-6.054,7.957,7.957,0,0,1,5.826-2.143,35.91,35.91,0,0,1,4.768.241V11.8l-3.268.027a3.124,3.124,0,0,0-2.451.75,3.433,3.433,0,0,0-.629,2.25v3.964h6.134L-31.277,25h-5.33V40.942h5.036a7.432,7.432,0,0,0,5.451-2.263,7.43,7.43,0,0,0,2.263-5.451V7.514A7.431,7.431,0,0,0-26.12,2.063,7.431,7.431,0,0,0-31.571-.2H-57.286Zm88.9,15.83a7.22,7.22,0,0,1,.027.723,16.209,16.209,0,0,1-2.665,8.853,16.9,16.9,0,0,1-3.228,3.67,14.485,14.485,0,0,1-4.5,2.545,16.389,16.389,0,0,1-5.625.951A15.778,15.778,0,0,1,7,29.853a10.807,10.807,0,0,0,1.339.08,11.116,11.116,0,0,0,6.991-2.411A5.34,5.34,0,0,1,12.075,26.4a5.717,5.717,0,0,1-2-2.786,7.513,7.513,0,0,0,1.045.107,5.213,5.213,0,0,0,1.366-.214A5.624,5.624,0,0,1,9.2,21.563a5.348,5.348,0,0,1-1.339-3.576V17.933a6.625,6.625,0,0,0,2.679.7A5.3,5.3,0,0,1,8.1,13.942,5.569,5.569,0,0,1,8.874,11.1a15.934,15.934,0,0,0,5.143,4.152A15.917,15.917,0,0,0,20.5,17a5.143,5.143,0,0,1-.134-1.286,5.624,5.624,0,0,1,5.625-5.625,5.347,5.347,0,0,1,4.1,1.768,11.177,11.177,0,0,0,3.589-1.366,5.466,5.466,0,0,1-2.491,3.134,11.914,11.914,0,0,0,3.241-.911,10.929,10.929,0,0,1-2.812,2.92h0ZM39.022,2.063A7.431,7.431,0,0,0,33.571-.2H7.857A7.43,7.43,0,0,0,2.406,2.063,7.43,7.43,0,0,0,.142,7.514V33.228a7.429,7.429,0,0,0,2.263,5.451,7.43,7.43,0,0,0,5.451,2.263H33.571a7.728,7.728,0,0,0,7.714-7.714V7.514A7.431,7.431,0,0,0,39.022,2.063ZM71.633,15.657H77.82V34.246H71.633V15.657Zm5.625-3.442a3.525,3.525,0,0,1-2.545.924H74.686a3.4,3.4,0,0,1-2.478-.924,3.065,3.065,0,0,1-.951-2.29,3.012,3.012,0,0,1,.978-2.3,3.566,3.566,0,0,1,2.531-.911,3.425,3.425,0,0,1,2.491.911,3.168,3.168,0,0,1,.964,2.3A3.045,3.045,0,0,1,77.258,12.215ZM93.892,24.308q0-4.2-3.107-4.205a3.031,3.031,0,0,0-1.982.656A4.137,4.137,0,0,0,87.6,22.353a4.426,4.426,0,0,0-.187,1.5V34.246H81.222q0.08-16.821,0-18.589H87.41v2.705H87.356a6.227,6.227,0,0,1,5.6-3.134,6.706,6.706,0,0,1,5.17,2.116q1.955,2.116,1.955,6.241V34.246H93.892V24.308ZM104.164,2.063A7.431,7.431,0,0,0,98.713-.2H73a7.43,7.43,0,0,0-5.451,2.263,7.429,7.429,0,0,0-2.263,5.451V33.228A7.728,7.728,0,0,0,73,40.942H98.713a7.729,7.729,0,0,0,7.715-7.714V7.514A7.431,7.431,0,0,0,104.164,2.063Z"/>
</svg>
