<svg xmlns="http://www.w3.org/2000/svg" width="44" height="44" viewBox="0 0 44 44">

  <path id="Shape_2_copy" data-name="Shape 2 copy" class="footer_logo" d="M22.01,31.971H22a9.972,9.972,0,1,1,0-19.943H22.01a9.972,9.972,0,1,1,0,19.943h0ZM22,29.58H22.01a7.581,7.581,0,1,0,0-15.161H22A7.581,7.581,0,1,0,22,29.58H22Zm0,5.132c0.341,0,.681-0.014,1.015-0.04v6.371a19.118,19.118,0,0,0,17.3-13.561,2.07,2.07,0,1,1,2.488.6A21.674,21.674,0,0,1,22,43.617c-0.34,0-.678-0.009-1.015-0.024V37.109A15.184,15.184,0,0,1,8.391,28.7a2.067,2.067,0,1,1,2.158-1.13A12.745,12.745,0,0,0,22,34.712h0Zm-4.067,5.16a2.064,2.064,0,1,1-1.884,2.917A21.637,21.637,0,0,1,.335,22c0-.411.013-0.819,0.035-1.223h6.5a15.155,15.155,0,0,1,9.162-12.7,2.066,2.066,0,1,1,.857,2.279A12.716,12.716,0,0,0,9.261,22c0,0.412.021,0.82,0.059,1.223H2.928a19.093,19.093,0,0,0,13.73,17.089A2.062,2.062,0,0,1,17.936,39.872ZM22,9.287c-0.342,0-.681.013-1.015,0.04V2.957a19.119,19.119,0,0,0-17.3,13.561,2.07,2.07,0,1,1-2.488-.6A21.674,21.674,0,0,1,22,.382c0.34,0,.678.009,1.015,0.024V6.891a15.184,15.184,0,0,1,12.6,8.408,2.065,2.065,0,1,1-2.158,1.13A12.745,12.745,0,0,0,22,9.287h0Zm4.067-5.16a2.064,2.064,0,1,1,1.885-2.917A21.638,21.638,0,0,1,43.671,22c0,0.411-.013.819-0.036,1.223h-6.5a15.154,15.154,0,0,1-9.161,12.7,2.066,2.066,0,1,1-.856-2.279A12.716,12.716,0,0,0,34.745,22q0-.619-0.059-1.223h6.392A19.094,19.094,0,0,0,27.348,3.688,2.062,2.062,0,0,1,26.07,4.128ZM22,26.072A4.072,4.072,0,1,0,17.921,22,4.085,4.085,0,0,0,22,26.072Z"/>
</svg>
