<svg id="LOGO" xmlns="http://www.w3.org/2000/svg" width="263" height="74" viewBox="0 0 263 74">
  <defs>
    <style>
      .logo_text, .logo_symbol {
        fill-rule: evenodd;
      }

      .logo_symbol {
        fill: #00d1ea;
      }
    </style>
  </defs>
  <path class="logo_text" d="M121.539,52.315l-22.5-22.467v24.2H92.93V22.224a3.24,3.24,0,0,1,.733-2.232,2.432,2.432,0,0,1,1.906-.824,4.99,4.99,0,0,1,3.468,1.8l22.52,22.41v-24.2h6.106v31.87q0,3.347-2.305,3.347c-1.14,0-2.409-.688-3.818-2.071h0Zm129.444,1.731h-26.77V47.982h26.77a7.319,7.319,0,0,0,4.836-1.5,4.258,4.258,0,0,0,1.661-3.347,4.03,4.03,0,0,0-1.612-3.25,7.57,7.57,0,0,0-4.885-1.456H234.374a11.131,11.131,0,0,1-8.206-3.007,9.005,9.005,0,0,1-2.736-6.646,8.949,8.949,0,0,1,2.736-6.6,11.131,11.131,0,0,1,8.206-3.007H260.9v6.064H234.374A4.284,4.284,0,0,0,231.3,26.3a3.368,3.368,0,0,0-1.124,2.523,3.2,3.2,0,0,0,1.026,2.424,4.414,4.414,0,0,0,3.175,1.116h16.609a12.1,12.1,0,0,1,8.988,3.4A10.372,10.372,0,0,1,263,43.276a10.136,10.136,0,0,1-2.98,7.422q-3.321,3.347-9.037,3.347h0Zm-53.124,0q-8.207,0-13.189-5.579a17.846,17.846,0,0,1-4.494-12.224,16.743,16.743,0,0,1,4.3-11.74q4.884-5.335,13.384-5.335h19.784v6.064H197.859a11.142,11.142,0,0,0-11.626,11.011,10.994,10.994,0,0,0,11.626,11.739h19.784v6.064H197.859Zm-56.788,0q-3.957,0-3.957-2.474a5.3,5.3,0,0,1,1.857-3.493l23.007-22.846H136.235V19.168h32.289a4.819,4.819,0,0,1,2.956.824,2.51,2.51,0,0,1,1.1,2.087,4.4,4.4,0,0,1-1.572,3.047L148.065,47.982H173.9v6.064H141.071Z"/>
  <path class="logo_symbol" d="M37.454,53.77H37.431a16.772,16.772,0,1,1,0-33.541h0.024a16.772,16.772,0,1,1,0,33.541h0Zm-0.012-4.021h0.012a12.751,12.751,0,1,0,0-25.5H37.431a12.751,12.751,0,1,0,0,25.5h0.012Zm0,8.631c0.581,0,1.159-.023,1.727-0.068V69.027A32.464,32.464,0,0,0,68.6,46.219a3.433,3.433,0,0,1-.758-2.154,3.521,3.521,0,1,1,4.992,3.155A36.825,36.825,0,0,1,37.443,73.356c-0.579,0-1.154-.016-1.727-0.041V62.41A25.847,25.847,0,0,1,14.278,48.27a3.475,3.475,0,1,1,4.035-3.434,3.415,3.415,0,0,1-.363,1.533A21.712,21.712,0,0,0,37.443,58.38h0Zm-6.921,8.677a3.472,3.472,0,1,1-3.206,4.906A36.457,36.457,0,0,1,.57,37c0-.691.022-1.377,0.06-2.057H11.7A25.513,25.513,0,0,1,27.288,13.58a3.492,3.492,0,1,1,1.458,3.833A21.381,21.381,0,0,0,15.759,37c0,0.693.035,1.38,0.1,2.057H4.983A32.2,32.2,0,0,0,28.347,67.8,3.534,3.534,0,0,1,30.521,67.057Zm6.921-51.438c-0.581,0-1.159.023-1.727,0.068V4.972A32.465,32.465,0,0,0,6.283,27.78a3.433,3.433,0,0,1,.759,2.153,3.5,3.5,0,0,1-3.521,3.472,3.465,3.465,0,0,1-1.472-6.626A36.826,36.826,0,0,1,37.443.643c0.579,0,1.154.015,1.727,0.041V11.589a25.845,25.845,0,0,1,21.437,14.14,3.475,3.475,0,1,1-4.034,3.434,3.417,3.417,0,0,1,.362-1.534,21.712,21.712,0,0,0-19.492-12.01h0Zm6.921-8.677a3.494,3.494,0,0,1-3.52-3.472,3.529,3.529,0,0,1,6.727-1.435A36.458,36.458,0,0,1,74.316,37c0,0.69-.022,1.377-0.061,2.057H63.188A25.512,25.512,0,0,1,47.6,60.42a3.492,3.492,0,1,1-1.457-3.833A21.381,21.381,0,0,0,59.126,37q0-1.041-.1-2.057H69.9A32.2,32.2,0,0,0,46.538,6.2,3.531,3.531,0,0,1,44.364,6.942ZM37.443,43.848A6.849,6.849,0,1,0,30.5,37,6.911,6.911,0,0,0,37.443,43.848Z"/>
</svg>
