<svg xmlns="http://www.w3.org/2000/svg" viewBox="0 0 412.56 346.08"><defs><style>.a14437d9-535e-4075-9c02-5d4fcd8d9935,.a2e98fb8-cba0-4e9d-9f26-24d6eb3f38aa,.e370fb70-e692-40da-bcf3-4ee7645cb828,.f5ff7cf8-89e6-4385-92f4-aa08734b5e50{fill:none;}.a2e98fb8-cba0-4e9d-9f26-24d6eb3f38aa,.a926d68b-d8fd-433c-a64b-d41ebe9d117e,.e370fb70-e692-40da-bcf3-4ee7645cb828,.f5ff7cf8-89e6-4385-92f4-aa08734b5e50{stroke:#ffdab8;}.a14437d9-535e-4075-9c02-5d4fcd8d9935,.f5ff7cf8-89e6-4385-92f4-aa08734b5e50{stroke-linecap:round;}.a14437d9-535e-4075-9c02-5d4fcd8d9935,.e370fb70-e692-40da-bcf3-4ee7645cb828,.f5ff7cf8-89e6-4385-92f4-aa08734b5e50{stroke-linejoin:round;stroke-width:10px;}.a2e98fb8-cba0-4e9d-9f26-24d6eb3f38aa,.a926d68b-d8fd-433c-a64b-d41ebe9d117e,.e370fb70-e692-40da-bcf3-4ee7645cb828{stroke-linecap:square;}.a14437d9-535e-4075-9c02-5d4fcd8d9935{stroke:#b6dfe2;}.a2e98fb8-cba0-4e9d-9f26-24d6eb3f38aa,.a926d68b-d8fd-433c-a64b-d41ebe9d117e{stroke-miterlimit:10;stroke-width:7px;}.a926d68b-d8fd-433c-a64b-d41ebe9d117e{fill:#e9dcc3;}.ef3ad2e7-cc3b-44ba-a337-347f41764500{fill:#b6dfe2;}</style></defs><title>bg_tailor</title><g id="b68b6caa-7e82-4241-9277-c1b5bc4ff0e4" data-name="Layer 2"><path class="f5ff7cf8-89e6-4385-92f4-aa08734b5e50" d="M287.11,558.46S296,540,316,540s28,18,28,18l-.87-228.89" transform="translate(-279.44 -297.92)"/><path class="e370fb70-e692-40da-bcf3-4ee7645cb828" d="M658,350.52V332l-314.78-.69c0-16.23-13.16-28.39-29.39-28.39h0a29.39,29.39,0,0,0-29.39,29.61l1.75,224.6-.16-.06A38.24,38.24,0,0,0,324.24,594H613.86" transform="translate(-279.44 -297.92)"/></g><g id="a9216574-13c1-44c7-a154-84ea0d3bfde9" data-name="Layer 3"><polygon class="a14437d9-535e-4075-9c02-5d4fcd8d9935" points="407.56 341.08 343.56 341.08 341.56 56.08 405.56 56.08 407.56 341.08"/><line class="a14437d9-535e-4075-9c02-5d4fcd8d9935" x1="343.56" y1="81.08" x2="374.56" y2="81.08"/><line class="a14437d9-535e-4075-9c02-5d4fcd8d9935" x1="343.56" y1="105.08" x2="365.56" y2="105.08"/><line class="a14437d9-535e-4075-9c02-5d4fcd8d9935" x1="343.56" y1="128.08" x2="374.56" y2="128.08"/><line class="a14437d9-535e-4075-9c02-5d4fcd8d9935" x1="343.56" y1="152.08" x2="365.56" y2="152.08"/><line class="a14437d9-535e-4075-9c02-5d4fcd8d9935" x1="343.57" y1="176.73" x2="374.57" y2="176.73"/><line class="a14437d9-535e-4075-9c02-5d4fcd8d9935" x1="343.57" y1="200.73" x2="365.57" y2="200.73"/><line class="a14437d9-535e-4075-9c02-5d4fcd8d9935" x1="343.57" y1="223.73" x2="374.57" y2="223.73"/><line class="a14437d9-535e-4075-9c02-5d4fcd8d9935" x1="343.57" y1="247.73" x2="365.57" y2="247.73"/><line class="a14437d9-535e-4075-9c02-5d4fcd8d9935" x1="343.86" y1="271.48" x2="373.86" y2="271.48"/><line class="a14437d9-535e-4075-9c02-5d4fcd8d9935" x1="343.86" y1="295.48" x2="364.86" y2="295.48"/><line class="a14437d9-535e-4075-9c02-5d4fcd8d9935" x1="343.86" y1="318.48" x2="373.86" y2="318.48"/></g><g id="b575b620-82b1-4f68-8daa-0b379bc20f14" data-name="Layer 4"><path class="a2e98fb8-cba0-4e9d-9f26-24d6eb3f38aa" d="M399,528H389a12,12,0,0,0-12,12v6a12,12,0,0,0,12,12h10Z" transform="translate(-279.44 -297.92)"/><path class="a2e98fb8-cba0-4e9d-9f26-24d6eb3f38aa" d="M552,528H420v30H552l26.42-13.21a2,2,0,0,0,0-3.58Z" transform="translate(-279.44 -297.92)"/><rect class="a2e98fb8-cba0-4e9d-9f26-24d6eb3f38aa" x="119.7" y="226.08" width="21" height="38"/><line class="a2e98fb8-cba0-4e9d-9f26-24d6eb3f38aa" x1="145.56" y1="245.08" x2="271.56" y2="245.08"/><line class="a2e98fb8-cba0-4e9d-9f26-24d6eb3f38aa" x1="273.56" y1="233.08" x2="273.56" y2="257.08"/></g><g id="e7c27bb3-769d-4e2c-b887-79ef22db615d" data-name="Layer 5"><line class="a926d68b-d8fd-433c-a64b-d41ebe9d117e" x1="116.06" y1="64.58" x2="116.06" y2="84.58"/><line class="a926d68b-d8fd-433c-a64b-d41ebe9d117e" x1="289.06" y1="74.58" x2="116.06" y2="74.58"/><line class="a926d68b-d8fd-433c-a64b-d41ebe9d117e" x1="289.06" y1="64.58" x2="289.06" y2="84.58"/><path class="ef3ad2e7-cc3b-44ba-a337-347f41764500" d="M456.65,425.56v8.75l-44.19,18,44.19,18v8.61L400.92,456.1v-7.57Z" transform="translate(-279.44 -297.92)"/><path class="ef3ad2e7-cc3b-44ba-a337-347f41764500" d="M468.74,490.14h-6.58l22.57-77.87h6.48Z" transform="translate(-279.44 -297.92)"/><path class="ef3ad2e7-cc3b-44ba-a337-347f41764500" d="M498.86,425.56l55.73,23v7.57l-55.73,22.83v-8.61l44.18-18-44.18-18Z" transform="translate(-279.44 -297.92)"/></g></svg>