<svg id="ac9d4b34-d128-43c3-b563-363644977565" data-name="Layer 4" xmlns="http://www.w3.org/2000/svg" viewBox="0 0 590.94 766.1"><defs><style>.a7c7ee9e-b459-4dfb-96aa-4a7d42474f1f,.ba0784bc-dc11-4a3e-90eb-c95df6669764,.e2340606-6ecf-469b-9cbd-a48d603d3c53{fill:none;stroke:#000;stroke-linejoin:round;}.a7c7ee9e-b459-4dfb-96aa-4a7d42474f1f,.e2340606-6ecf-469b-9cbd-a48d603d3c53{stroke-linecap:round;}.e2340606-6ecf-469b-9cbd-a48d603d3c53{stroke-width:20px;}.a7c7ee9e-b459-4dfb-96aa-4a7d42474f1f{stroke-width:14px;}.ba0784bc-dc11-4a3e-90eb-c95df6669764{stroke-width:16px;}</style></defs><title>cybersecurity</title><path class="e2340606-6ecf-469b-9cbd-a48d603d3c53" d="M1659.8,260.91V655.66A121.39,121.39,0,0,1,1607,755.82L1374.4,915.26,1141.64,755.71a121.4,121.4,0,0,1-52.78-100.15V260.82s47.4,21.18,145.58-14c57.44-20.59,121.89-65.94,138-77.62.7-.51,84.35,57.12,141.8,77.73C1612.41,282.1,1659.8,260.91,1659.8,260.91Z" transform="translate(-1078.86 -159.17)"/><path class="a7c7ee9e-b459-4dfb-96aa-4a7d42474f1f" d="M211.45,364.83h168a20,20,0,0,1,20,20V498.66a60,60,0,0,1-60,60h-88a60,60,0,0,1-60-60V384.83A20,20,0,0,1,211.45,364.83Z"/><path class="ba0784bc-dc11-4a3e-90eb-c95df6669764" d="M1298.41,528.29V442.2A75.59,75.59,0,0,1,1374,366.6h0a75.6,75.6,0,0,1,75.6,75.6v85.92" transform="translate(-1078.86 -159.17)"/><path d="M1369,645.53V617.61a2.5,2.5,0,0,0-1-2,10.69,10.69,0,1,1,12.65,0,2.5,2.5,0,0,0-1,2v27.92Z" transform="translate(-1078.86 -159.17)"/><path d="M1374.33,598.79a8.2,8.2,0,0,1,4.85,14.8,5,5,0,0,0-2,4V643h-5.61V617.61a5,5,0,0,0-2-4,8.19,8.19,0,0,1,4.84-14.8m0-5a13.19,13.19,0,0,0-7.8,23.82V648h15.61V617.61a13.19,13.19,0,0,0-7.81-23.82Z" transform="translate(-1078.86 -159.17)"/></svg>