<svg xmlns="http://www.w3.org/2000/svg" viewBox="0 0 783.48 637.4"><defs><style>.a7a5cc50-78fc-4db6-ba66-378d553fd93d,.e6903263-9727-4c84-9277-2df21391e9fa,.f6b075f3-2c98-497d-98d3-eb8089b8b435{fill:none;}.a7a5cc50-78fc-4db6-ba66-378d553fd93d,.b35e6bdd-aee3-4820-89ca-1f5701ba9d90,.e6903263-9727-4c84-9277-2df21391e9fa,.f6b075f3-2c98-497d-98d3-eb8089b8b435{stroke:#000;stroke-linejoin:round;}.a7a5cc50-78fc-4db6-ba66-378d553fd93d,.f6b075f3-2c98-497d-98d3-eb8089b8b435{stroke-width:12px;}.e6903263-9727-4c84-9277-2df21391e9fa{stroke-width:5px;}.a7a5cc50-78fc-4db6-ba66-378d553fd93d,.b35e6bdd-aee3-4820-89ca-1f5701ba9d90{stroke-linecap:round;}.b35e6bdd-aee3-4820-89ca-1f5701ba9d90{stroke-width:9px;}.b03962b1-8d41-4fec-a67a-d9218149d9cb{fill:#888;}</style></defs><title>domains_hosting</title><g id="b5e4135e-4610-4ace-8a28-1ea402849f71" data-name="Layer 6"><rect class="f6b075f3-2c98-497d-98d3-eb8089b8b435" x="6.32" y="157.71" width="451.5" height="113.1" rx="9.49"/><circle class="e6903263-9727-4c84-9277-2df21391e9fa" cx="58.87" cy="214.26" r="16.29"/><rect x="224.24" y="205.49" width="199.77" height="17.54" rx="8.77"/><circle class="e6903263-9727-4c84-9277-2df21391e9fa" cx="58.87" cy="363.38" r="16.29"/><circle class="e6903263-9727-4c84-9277-2df21391e9fa" cx="58.87" cy="512.51" r="16.29"/><polygon points="241.07 617.4 241.07 584.4 223.07 584.4 223.07 617.4 206.07 617.4 206.07 637.4 258.07 637.4 258.07 617.4 241.07 617.4"/><line class="b35e6bdd-aee3-4820-89ca-1f5701ba9d90" x1="71.07" y1="628.4" x2="393.07" y2="628.4"/><rect class="f6b075f3-2c98-497d-98d3-eb8089b8b435" x="6" y="6" width="451.5" height="113.1" rx="9.49"/><circle class="e6903263-9727-4c84-9277-2df21391e9fa" cx="58.55" cy="62.55" r="16.29"/><rect x="223.92" y="53.78" width="199.77" height="17.54" rx="8.77"/><path class="a7a5cc50-78fc-4db6-ba66-378d553fd93d" d="M1425.83,572V548.35a9.49,9.49,0,0,0-9.49-9.49H983.82a9.49,9.49,0,0,0-9.49,9.49v94.12a9.49,9.49,0,0,0,9.49,9.49h83.68" transform="translate(-968.02 -232.03)"/><path class="a7a5cc50-78fc-4db6-ba66-378d553fd93d" d="M1067.93,688H983.82a9.49,9.49,0,0,0-9.49,9.49v94.12a9.49,9.49,0,0,0,9.49,9.49h432.52a9.49,9.49,0,0,0,9.49-9.49v-21" transform="translate(-968.02 -232.03)"/></g><g id="b7dc14d8-2942-4509-9a2b-7f0adef26b45" data-name="Layer 5"><path d="M1741.5,603V736.86H1098V603h643.5m10-10H1088V746.86h663.5V593Z" transform="translate(-968.02 -232.03)"/><g id="baccaad3-eaf0-4208-89d2-d06083e08393" data-name="yourdomain"><path d="M1278.66,655.1l4.38,14.4c.47,1.74,1.07,3.9,1.43,5.46h.18c.42-1.56.9-3.78,1.32-5.46l3.6-14.4h9.78l-6.84,19.32c-4.2,11.64-7,16.32-10.32,19.26a16.79,16.79,0,0,1-8.81,4l-1.92-7.74a11.58,11.58,0,0,0,4-1.56,10.64,10.64,0,0,0,3.78-3.66,2.36,2.36,0,0,0,.47-1.32,3.18,3.18,0,0,0-.42-1.5l-10.73-26.82Z" transform="translate(-968.02 -232.03)"/><path d="M1331.27,669.44c0,10.74-7.62,15.66-15.48,15.66-8.58,0-15.18-5.64-15.18-15.12s6.24-15.54,15.66-15.54C1325.27,654.44,1331.27,660.62,1331.27,669.44Zm-21.24.3c0,5,2.1,8.82,6,8.82,3.54,0,5.82-3.54,5.82-8.82,0-4.38-1.68-8.82-5.82-8.82C1311.65,660.92,1310,665.42,1310,669.74Z" transform="translate(-968.02 -232.03)"/><path d="M1364.57,675c0,3.84.12,7,.24,9.42h-7.92l-.42-4.14h-.18a10.47,10.47,0,0,1-9.18,4.8c-5.94,0-10.32-3.72-10.32-12.78V655.1H1346v15.78c0,4.26,1.38,6.84,4.56,6.84a4.91,4.91,0,0,0,4.56-3.18,5.09,5.09,0,0,0,.3-2V655.1h9.18Z" transform="translate(-968.02 -232.03)"/><path d="M1371.89,664.76c0-4.32-.12-7.14-.24-9.66h7.86l.3,5.4h.24a8.62,8.62,0,0,1,7.92-6.06,9.4,9.4,0,0,1,1.92.12v8.58a13.07,13.07,0,0,0-2.46-.24c-3.36,0-5.64,1.8-6.24,4.62a10.75,10.75,0,0,0-.18,2v14.88h-9.12Z" transform="translate(-968.02 -232.03)"/><path d="M1422.65,641.84v33.84c0,3.3.12,6.78.24,8.76h-8.1l-.42-4.32h-.12a10.24,10.24,0,0,1-9.18,5c-7,0-12.54-5.94-12.54-15.06-.06-9.9,6.12-15.6,13.14-15.6,3.6,0,6.42,1.26,7.74,3.3h.12v-15.9Zm-9.12,25.68a14.71,14.71,0,0,0-.12-1.62,5.48,5.48,0,0,0-5.34-4.5c-4.14,0-6.3,3.72-6.3,8.34,0,5,2.46,8.1,6.24,8.1a5.34,5.34,0,0,0,5.28-4.38,7.76,7.76,0,0,0,.24-2.1Z" transform="translate(-968.02 -232.03)"/><path d="M1459,669.44c0,10.74-7.62,15.66-15.48,15.66-8.58,0-15.18-5.64-15.18-15.12s6.24-15.54,15.66-15.54C1453,654.44,1459,660.62,1459,669.44Zm-21.24.3c0,5,2.1,8.82,6,8.82,3.54,0,5.82-3.54,5.82-8.82,0-4.38-1.68-8.82-5.82-8.82C1439.33,660.92,1437.71,665.42,1437.71,669.74Z" transform="translate(-968.02 -232.03)"/><path d="M1464.59,664.46c0-3.66-.12-6.78-.24-9.36H1472l.42,4h.18a10.17,10.17,0,0,1,8.88-4.62,8.31,8.31,0,0,1,8,5h.12a13.13,13.13,0,0,1,3.78-3.54,10.59,10.59,0,0,1,5.58-1.44c5.64,0,9.9,4,9.9,12.72v17.28h-8.88v-16c0-4.26-1.38-6.72-4.32-6.72a4.46,4.46,0,0,0-4.2,3.18,7.63,7.63,0,0,0-.36,2.34v17.16h-8.88V668c0-3.72-1.32-6.24-4.2-6.24a4.64,4.64,0,0,0-4.26,3.3,6,6,0,0,0-.36,2.28v17.1h-8.88Z" transform="translate(-968.02 -232.03)"/><path d="M1532.87,684.44l-.54-2.94h-.18a10.57,10.57,0,0,1-8.4,3.6c-5.94,0-9.48-4.32-9.48-9,0-7.62,6.84-11.28,17.22-11.22v-.42c0-1.56-.84-3.78-5.34-3.78a16.5,16.5,0,0,0-8.1,2.22l-1.68-5.88a24.22,24.22,0,0,1,11.4-2.58c9.78,0,12.9,5.76,12.9,12.66v10.2a45.46,45.46,0,0,0,.42,7.14Zm-1.08-13.86c-4.8-.06-8.52,1.08-8.52,4.62a3.28,3.28,0,0,0,3.6,3.48,5,5,0,0,0,4.74-3.36,6.54,6.54,0,0,0,.18-1.56Z" transform="translate(-968.02 -232.03)"/><path d="M1557.29,646.94a4.58,4.58,0,0,1-4.92,4.56,4.59,4.59,0,1,1,.06-9.18A4.57,4.57,0,0,1,1557.29,646.94Zm-9.42,37.5V655.1H1557v29.34Z" transform="translate(-968.02 -232.03)"/><path d="M1564.31,664.46c0-3.66-.12-6.78-.24-9.36H1572l.42,4h.18a10.74,10.74,0,0,1,9.06-4.68c6,0,10.5,4,10.5,12.6v17.4H1583V668.18c0-3.78-1.32-6.36-4.62-6.36a4.87,4.87,0,0,0-4.62,3.42,6.27,6.27,0,0,0-.36,2.28v16.92h-9.12Z" transform="translate(-968.02 -232.03)"/></g><g id="e3cfb00e-68b8-4b9b-a2c4-4dfc8c6d745e" data-name="com"><path class="b03962b1-8d41-4fec-a67a-d9218149d9cb" d="M1598.93,681.32a3.55,3.55,0,0,1,3.6-3.78,3.79,3.79,0,1,1-3.6,3.78Z" transform="translate(-968.02 -232.03)"/><path class="b03962b1-8d41-4fec-a67a-d9218149d9cb" d="M1633.31,683.36A19.45,19.45,0,0,1,1625,685c-8.76,0-14.46-5.94-14.46-14.82s6.12-15.42,15.6-15.42a17.65,17.65,0,0,1,7.32,1.5l-1.2,4.08a12.24,12.24,0,0,0-6.12-1.38c-6.66,0-10.26,4.92-10.26,11,0,6.72,4.32,10.86,10.08,10.86a15,15,0,0,0,6.48-1.44Z" transform="translate(-968.02 -232.03)"/><path class="b03962b1-8d41-4fec-a67a-d9218149d9cb" d="M1665.41,669.68c0,10.74-7.44,15.42-14.46,15.42-7.86,0-13.92-5.76-13.92-14.94,0-9.72,6.36-15.42,14.4-15.42C1659.77,654.74,1665.41,660.8,1665.41,669.68Zm-23,.3c0,6.36,3.66,11.16,8.82,11.16s8.82-4.74,8.82-11.28c0-4.92-2.46-11.16-8.7-11.16S1642.37,664.46,1642.37,670Z" transform="translate(-968.02 -232.03)"/><path class="b03962b1-8d41-4fec-a67a-d9218149d9cb" d="M1672.07,663.26c0-3-.06-5.46-.24-7.86h4.62l.24,4.68h.18a10,10,0,0,1,9.12-5.34,8.58,8.58,0,0,1,8.22,5.82h.12a12,12,0,0,1,3.24-3.78,9.91,9.91,0,0,1,6.42-2c3.84,0,9.54,2.52,9.54,12.6v17.1h-5.16V668c0-5.58-2-8.94-6.3-8.94a6.84,6.84,0,0,0-6.24,4.8,8.7,8.7,0,0,0-.42,2.64v17.94h-5.16V667c0-4.62-2-8-6.06-8-3.3,0-5.7,2.64-6.54,5.28a7.28,7.28,0,0,0-.42,2.58v17.52h-5.16Z" transform="translate(-968.02 -232.03)"/></g><g id="ad840b34-34bb-47a5-a6d1-b661ed45d4bf" data-name="www"><path class="b03962b1-8d41-4fec-a67a-d9218149d9cb" d="M1130.64,655.4l3.84,14.76c.84,3.24,1.62,6.24,2.16,9.24h.18c.66-2.94,1.62-6.06,2.58-9.18l4.74-14.82h4.44l4.5,14.52c1.08,3.48,1.92,6.54,2.58,9.48h.18a87.32,87.32,0,0,1,2.22-9.42l4.14-14.58h5.22l-9.36,29h-4.8l-4.44-13.86a96.78,96.78,0,0,1-2.58-9.54h-.12a85.93,85.93,0,0,1-2.64,9.6l-4.68,13.8H1134l-8.76-29Z" transform="translate(-968.02 -232.03)"/><path class="b03962b1-8d41-4fec-a67a-d9218149d9cb" d="M1175.52,655.4l3.84,14.76c.84,3.24,1.62,6.24,2.16,9.24h.18c.66-2.94,1.62-6.06,2.58-9.18L1189,655.4h4.44l4.5,14.52c1.08,3.48,1.92,6.54,2.58,9.48h.17a89.77,89.77,0,0,1,2.22-9.42l4.14-14.58h5.22l-9.36,29h-4.8l-4.43-13.86a91.54,91.54,0,0,1-2.58-9.54H1191a85.93,85.93,0,0,1-2.64,9.6l-4.68,13.8h-4.8l-8.76-29Z" transform="translate(-968.02 -232.03)"/><path class="b03962b1-8d41-4fec-a67a-d9218149d9cb" d="M1220.4,655.4l3.84,14.76c.84,3.24,1.62,6.24,2.16,9.24h.18c.66-2.94,1.62-6.06,2.58-9.18l4.74-14.82h4.43l4.5,14.52c1.09,3.48,1.92,6.54,2.59,9.48h.17a87.32,87.32,0,0,1,2.22-9.42L1252,655.4h5.22l-9.36,29H1243l-4.43-13.86A91.54,91.54,0,0,1,1236,661h-.12a88.13,88.13,0,0,1-2.64,9.6l-4.68,13.8h-4.8l-8.76-29Z" transform="translate(-968.02 -232.03)"/><path class="b03962b1-8d41-4fec-a67a-d9218149d9cb" d="M1258.86,681.32a3.55,3.55,0,0,1,3.6-3.78,3.79,3.79,0,1,1-3.6,3.78Z" transform="translate(-968.02 -232.03)"/></g></g></svg>