<svg id="f4260f40-d5b6-4ee7-852d-d8859b2ffff2" data-name="lock" xmlns="http://www.w3.org/2000/svg" viewBox="0 0 491.63 789"><defs><style>.ea6eafc4-f29d-4d08-8a3c-8fd4a5ef3030{fill:none;stroke:#000;stroke-miterlimit:10;stroke-width:20px;}</style></defs><title>flat_rate</title><path class="ea6eafc4-f29d-4d08-8a3c-8fd4a5ef3030" d="M1210.6,517.09V317.74A156.73,156.73,0,0,1,1367.33,161h0c86.57,0,156.74,70.17,156.74,155.79V516.14" transform="translate(-1121.52 -151)"/><circle class="ea6eafc4-f29d-4d08-8a3c-8fd4a5ef3030" cx="245.81" cy="543.19" r="235.81"/><path d="M1383.81,820.64V846h-20.45V821.4c-46.6-2.27-78-35.23-78-81.07h18.56c0,40.54,31.44,62.51,64.78,62.51,44.32,0,62.12-23.87,62.12-47.73,0-31.06-26.51-37.5-63.26-51.9-33-12.88-67.81-24.62-67.81-64.4,0-28,22.35-58.33,63.65-62.5V551.69h20.45v24.62c36.75,4.17,58.34,28.41,58.34,59.09h-18.56c0-25-20.08-41.67-50.39-41.67-36.74,0-55.3,23.87-55.3,45.08,0,27.66,29.17,36.75,56.82,47.73,44.7,17.43,74.63,24.63,74.63,68.57C1449.35,789.2,1424.34,815.34,1383.81,820.64Z" transform="translate(-1121.52 -151)"/></svg>