<svg xmlns="http://www.w3.org/2000/svg" viewBox="0 0 768.1 711.37"><defs><style>.a313ad7f-6882-4bbd-b12d-b164f6542131,.b4223662-2426-487c-bb80-d8f7299c66a5,.b7bed5a8-35d9-4cd3-af1c-073857058f25,.e1c48126-0208-45bb-9a81-61a653080d00,.efd050d7-f2b0-4ca4-8c33-0d95953070ac,.f8f5face-65f1-432f-93ca-3a1f25119121{fill:none;stroke:#000;stroke-linejoin:round;}.a313ad7f-6882-4bbd-b12d-b164f6542131,.efd050d7-f2b0-4ca4-8c33-0d95953070ac{stroke-width:14px;}.b7bed5a8-35d9-4cd3-af1c-073857058f25,.e1c48126-0208-45bb-9a81-61a653080d00{stroke-width:10px;}.b4223662-2426-487c-bb80-d8f7299c66a5{stroke-width:5px;}.a313ad7f-6882-4bbd-b12d-b164f6542131,.e1c48126-0208-45bb-9a81-61a653080d00{stroke-linecap:round;}.f8f5face-65f1-432f-93ca-3a1f25119121{stroke-width:8px;}</style></defs><title>hardware_software</title><g id="fe1e4936-8213-433d-8647-c5bc7bd01ad7" data-name="Layer 4"><rect class="efd050d7-f2b0-4ca4-8c33-0d95953070ac" x="7" y="287.51" width="536.97" height="320.29" rx="51.82"/><path class="efd050d7-f2b0-4ca4-8c33-0d95953070ac" d="M1160.78,892.37H1342a18.75,18.75,0,0,0,16.54-27.56l-36.76-69H1181l-36.76,69A18.75,18.75,0,0,0,1160.78,892.37Z" transform="translate(-975.9 -188)"/><line class="b7bed5a8-35d9-4cd3-af1c-073857058f25" x1="4.45" y1="531.92" x2="546.53" y2="531.92"/><circle class="b4223662-2426-487c-bb80-d8f7299c66a5" cx="275.49" cy="567.67" r="13.13"/><path class="b7bed5a8-35d9-4cd3-af1c-073857058f25" d="M1181.48,586.57a64.82,64.82,0,0,1,9.21-21l-12.75-20,14.71-13.69,21,12.2a74,74,0,0,1,21.6-8.4l5.93-22.95h20.67l5.94,23a73.74,73.74,0,0,1,21,8.1l20.55-12L1324,545.56l-12.33,19.36a64.94,64.94,0,0,1,9.66,21.65l24.28,5.57v19.48l-24.48,5.62a65.29,65.29,0,0,1-9.16,20.41L1325,658.2l-14.71,13.69-21.73-12.64a73.58,73.58,0,0,1-20.83,8l-5.94,23h-20.67l-5.93-22.95a73.63,73.63,0,0,1-21.48-8.34l-22.16,12.89-14.71-13.69L1190.39,637a65.08,65.08,0,0,1-8.72-19.75l-24.48-5.62V592.14Z" transform="translate(-975.9 -188)"/><ellipse class="b7bed5a8-35d9-4cd3-af1c-073857058f25" cx="275.49" cy="413.5" rx="39.75" ry="37.46"/></g><g id="a39ea5f3-2a19-47c5-90d1-b8b62091c24d" data-name="Layer 3"><line class="e1c48126-0208-45bb-9a81-61a653080d00" x1="543.89" y1="83.05" x2="725.08" y2="83.05"/><line class="e1c48126-0208-45bb-9a81-61a653080d00" x1="543.89" y1="129.94" x2="725.08" y2="129.94"/><line class="e1c48126-0208-45bb-9a81-61a653080d00" x1="543.89" y1="174.73" x2="725.08" y2="174.73"/><circle class="f8f5face-65f1-432f-93ca-3a1f25119121" cx="634.48" cy="442.53" r="21.83"/><path class="a313ad7f-6882-4bbd-b12d-b164f6542131" d="M1551.9,766.93h152.36A32.74,32.74,0,0,0,1737,734.19V227.74A32.74,32.74,0,0,0,1704.26,195H1516.52a32.74,32.74,0,0,0-32.74,32.74V436.22" transform="translate(-975.9 -188)"/></g></svg>