<svg xmlns="http://www.w3.org/2000/svg" viewBox="0 0 778.78 778.78"><defs><style>.a914e9dc-ca59-47ef-b095-cbf240976c53,.aeca7930-81fe-4e1d-ab4e-27befc9e6dc3,.e94e0330-1fa6-40f6-9993-0609f2e27234,.f44c9b0b-b42a-4e3e-8a94-a3e564299dda{fill:none;}.a0b65a06-26e0-406c-85a6-bc174defd4fe,.a914e9dc-ca59-47ef-b095-cbf240976c53,.aeca7930-81fe-4e1d-ab4e-27befc9e6dc3,.e94e0330-1fa6-40f6-9993-0609f2e27234,.f44c9b0b-b42a-4e3e-8a94-a3e564299dda{stroke:#000;}.a0b65a06-26e0-406c-85a6-bc174defd4fe,.aeca7930-81fe-4e1d-ab4e-27befc9e6dc3,.e94e0330-1fa6-40f6-9993-0609f2e27234,.f44c9b0b-b42a-4e3e-8a94-a3e564299dda{stroke-miterlimit:10;}.f44c9b0b-b42a-4e3e-8a94-a3e564299dda{stroke-width:20px;}.a0b65a06-26e0-406c-85a6-bc174defd4fe{fill:#fff;}.a0b65a06-26e0-406c-85a6-bc174defd4fe,.a914e9dc-ca59-47ef-b095-cbf240976c53,.e94e0330-1fa6-40f6-9993-0609f2e27234{stroke-width:5px;}.aeca7930-81fe-4e1d-ab4e-27befc9e6dc3{stroke-width:10px;}.a914e9dc-ca59-47ef-b095-cbf240976c53{stroke-linecap:round;stroke-linejoin:round;}</style></defs><title>internet</title><g id="a5fbc28a-cf0b-466a-893f-7a1a3656ca02" data-name="Layer 5"><circle class="f44c9b0b-b42a-4e3e-8a94-a3e564299dda" cx="389.28" cy="389.6" r="195.75"/><line class="a0b65a06-26e0-406c-85a6-bc174defd4fe" x1="389.28" y1="193.85" x2="389.28" y2="585.35"/><line class="a0b65a06-26e0-406c-85a6-bc174defd4fe" x1="193.96" y1="389.6" x2="584.6" y2="389.6"/><path class="e94e0330-1fa6-40f6-9993-0609f2e27234" d="M1471.32,546.1a226.39,226.39,0,0,0-114.07-196.64v-.08l-.07,0-.07,0v.08a226.51,226.51,0,0,0,0,393.28v.08l.07,0,.07,0v-.08A226.36,226.36,0,0,0,1471.32,546.1Z" transform="translate(-967.97 -156.5)"/><path class="e94e0330-1fa6-40f6-9993-0609f2e27234" d="M1217.68,408.45a209.46,209.46,0,0,0,274.9,3.25" transform="translate(-967.97 -156.5)"/><path class="e94e0330-1fa6-40f6-9993-0609f2e27234" d="M1217.71,685.42a209.46,209.46,0,0,1,274.9-3.25" transform="translate(-967.97 -156.5)"/></g><g id="a849489b-7463-4e41-8f58-b992f70475de" data-name="Layer 9"><circle class="aeca7930-81fe-4e1d-ab4e-27befc9e6dc3" cx="389.03" cy="54" r="49"/><line class="a914e9dc-ca59-47ef-b095-cbf240976c53" x1="389.03" y1="162" x2="389.03" y2="103"/><circle class="aeca7930-81fe-4e1d-ab4e-27befc9e6dc3" cx="389.03" cy="724.78" r="49"/><line class="a914e9dc-ca59-47ef-b095-cbf240976c53" x1="389.03" y1="616.78" x2="389.03" y2="675.78"/><circle class="aeca7930-81fe-4e1d-ab4e-27befc9e6dc3" cx="54" cy="388.59" r="49"/><line class="a914e9dc-ca59-47ef-b095-cbf240976c53" x1="162" y1="388.59" x2="103" y2="388.59"/><circle class="aeca7930-81fe-4e1d-ab4e-27befc9e6dc3" cx="724.78" cy="388.59" r="49"/><line class="a914e9dc-ca59-47ef-b095-cbf240976c53" x1="616.78" y1="388.59" x2="675.78" y2="388.59"/><circle class="aeca7930-81fe-4e1d-ab4e-27befc9e6dc3" cx="151.98" cy="152.68" r="49"/><line class="a914e9dc-ca59-47ef-b095-cbf240976c53" x1="228.35" y1="229.05" x2="186.63" y2="187.33"/><circle class="aeca7930-81fe-4e1d-ab4e-27befc9e6dc3" cx="626.29" cy="627" r="49"/><line class="a914e9dc-ca59-47ef-b095-cbf240976c53" x1="549.92" y1="550.63" x2="591.64" y2="592.35"/><circle class="aeca7930-81fe-4e1d-ab4e-27befc9e6dc3" cx="151.66" cy="626.17" r="49"/><line class="a914e9dc-ca59-47ef-b095-cbf240976c53" x1="228.03" y1="549.8" x2="186.31" y2="591.52"/><circle class="aeca7930-81fe-4e1d-ab4e-27befc9e6dc3" cx="625.98" cy="151.86" r="49"/><line class="a914e9dc-ca59-47ef-b095-cbf240976c53" x1="549.61" y1="228.23" x2="591.33" y2="186.51"/></g></svg>