<svg xmlns="http://www.w3.org/2000/svg" viewBox="0 0 751.23 572.93"><defs><style>.a7fa0f63-23e6-4b18-a015-abfbd130bbc4,.abd9f377-fd42-4579-9e0c-7dab045d6d16,.bebf3b6d-8be3-4a1d-ab93-c662289f2b9f{fill:none;}.a7fa0f63-23e6-4b18-a015-abfbd130bbc4,.abd9f377-fd42-4579-9e0c-7dab045d6d16,.bebf3b6d-8be3-4a1d-ab93-c662289f2b9f,.ee37fa07-1155-4d72-801b-458c85da5508{stroke:#000;}.abd9f377-fd42-4579-9e0c-7dab045d6d16,.bebf3b6d-8be3-4a1d-ab93-c662289f2b9f{stroke-miterlimit:10;}.a7fa0f63-23e6-4b18-a015-abfbd130bbc4,.bebf3b6d-8be3-4a1d-ab93-c662289f2b9f,.ee37fa07-1155-4d72-801b-458c85da5508{stroke-width:4px;}.ee37fa07-1155-4d72-801b-458c85da5508{fill:#fff;}.a7fa0f63-23e6-4b18-a015-abfbd130bbc4,.ee37fa07-1155-4d72-801b-458c85da5508{stroke-linejoin:bevel;}.abd9f377-fd42-4579-9e0c-7dab045d6d16{stroke-width:16px;}</style></defs><title>network_design</title><g id="a57bab33-e6ef-453b-a89c-27b69abe1888" data-name="Layer 4"><line class="bebf3b6d-8be3-4a1d-ab93-c662289f2b9f" x1="565.87" y1="478.18" x2="669.93" y2="328.23"/><line class="bebf3b6d-8be3-4a1d-ab93-c662289f2b9f" x1="262.89" y1="519.04" x2="491.39" y2="519.04"/><line class="bebf3b6d-8be3-4a1d-ab93-c662289f2b9f" x1="80.28" y1="325.37" x2="186.87" y2="478.97"/><line class="bebf3b6d-8be3-4a1d-ab93-c662289f2b9f" x1="187.08" y1="93.61" x2="81.15" y2="246.26"/><line class="bebf3b6d-8be3-4a1d-ab93-c662289f2b9f" x1="490.39" y1="53.84" x2="261.84" y2="53.84"/><line class="bebf3b6d-8be3-4a1d-ab93-c662289f2b9f" x1="672.81" y1="248.81" x2="566.05" y2="94.97"/><line class="ee37fa07-1155-4d72-801b-458c85da5508" x1="424.36" y1="286.21" x2="650.57" y2="286.21"/><line class="ee37fa07-1155-4d72-801b-458c85da5508" x1="102.58" y1="286.21" x2="331.87" y2="286.21"/><line class="a7fa0f63-23e6-4b18-a015-abfbd130bbc4" x1="214.54" y1="101.83" x2="214.54" y2="469.78"/><line class="a7fa0f63-23e6-4b18-a015-abfbd130bbc4" x1="348.84" y1="247.64" x2="243.03" y2="94.07"/><line class="a7fa0f63-23e6-4b18-a015-abfbd130bbc4" x1="242.8" y1="478.11" x2="349.05" y2="324.65"/><line class="a7fa0f63-23e6-4b18-a015-abfbd130bbc4" x1="402.91" y1="324.4" x2="511.11" y2="479.61"/><line class="a7fa0f63-23e6-4b18-a015-abfbd130bbc4" x1="509.33" y1="93.71" x2="402.61" y2="247.52"/><line class="a7fa0f63-23e6-4b18-a015-abfbd130bbc4" x1="538.14" y1="469.64" x2="538.14" y2="103.54"/></g><g id="b72fa595-3f1a-4024-a351-fc3f27dfe90a" data-name="Layer 6"><circle class="abd9f377-fd42-4579-9e0c-7dab045d6d16" cx="214.54" cy="54.96" r="46.96"/><circle class="abd9f377-fd42-4579-9e0c-7dab045d6d16" cx="537.92" cy="55.75" r="46.96"/><circle class="abd9f377-fd42-4579-9e0c-7dab045d6d16" cx="215.28" cy="517.17" r="46.96"/><circle class="abd9f377-fd42-4579-9e0c-7dab045d6d16" cx="538.66" cy="517.97" r="46.96"/><circle class="abd9f377-fd42-4579-9e0c-7dab045d6d16" cx="376.14" cy="286.04" r="46.96"/><circle class="abd9f377-fd42-4579-9e0c-7dab045d6d16" cx="54.96" cy="286.4" r="46.96"/><circle class="abd9f377-fd42-4579-9e0c-7dab045d6d16" cx="696.28" cy="287.35" r="46.96"/></g></svg>