<svg xmlns="http://www.w3.org/2000/svg" viewBox="0 0 561.66 550.33"><defs><style>.a9d260e4-6dae-4706-b634-30f470428484,.ad289bf8-0b08-4eca-bb21-57f53459b11a,.fc87a283-171b-46e1-b118-60eb3ca521bf{fill:none;stroke:#000;stroke-width:20px;}.ad289bf8-0b08-4eca-bb21-57f53459b11a,.fc87a283-171b-46e1-b118-60eb3ca521bf{stroke-miterlimit:10;}.a9d260e4-6dae-4706-b634-30f470428484,.fc87a283-171b-46e1-b118-60eb3ca521bf{stroke-linecap:round;}.a9d260e4-6dae-4706-b634-30f470428484{stroke-linejoin:round;}</style></defs><title>online_backup</title><g id="b9536722-5451-4777-895f-e0eaf4bee248" data-name="Layer 5"><ellipse class="ad289bf8-0b08-4eca-bb21-57f53459b11a" cx="234.4" cy="66.97" rx="224.4" ry="56.97"/><path class="fc87a283-171b-46e1-b118-60eb3ca521bf" d="M1126.05,649.89a14.74,14.74,0,0,0,.21,2.48c5.12,30.31,103.54,54.49,224.19,54.49,22,0,43.35-.81,63.48-2.31" transform="translate(-1116.05 -316.21)"/><path class="fc87a283-171b-46e1-b118-60eb3ca521bf" d="M1574.85,593.53v-77c0,31.46-100.47,57-224.4,57-120.65,0-219.07-24.18-224.19-54.49a14.74,14.74,0,0,1-.21-2.48l.21-129.87V784.33l-.21-1.09c0,31.46,100.47,57,224.4,57a826.51,826.51,0,0,0,85.8-4.31" transform="translate(-1116.05 -316.21)"/><line class="fc87a283-171b-46e1-b118-60eb3ca521bf" x1="459.05" y1="277.34" x2="459.05" y2="69.28"/></g><g id="f61e9f03-b421-4b5d-b5df-aaf2fcd9929c" data-name="Layer 3"><path class="a9d260e4-6dae-4706-b634-30f470428484" d="M1516,840.58a106.57,106.57,0,1,1,60.11,9" transform="translate(-1116.05 -316.21)"/><path d="M1559.74,861c-17-17.25-36.47-42.21-45.85-63.41l-3.64,40.3-28.56,28.64C1504,860.13,1535.59,859,1559.74,861Z" transform="translate(-1116.05 -316.21)"/></g></svg>