<svg xmlns="http://www.w3.org/2000/svg" viewBox="0 0 769.68 535.02"><defs><style>.b1ec7096-467a-488c-941d-b723f6fcf009,.b2c7baa6-2fa3-4c2b-9690-211edcb8a015{fill:none;stroke:#000;stroke-linecap:round;stroke-miterlimit:10;}.b1ec7096-467a-488c-941d-b723f6fcf009{stroke-width:20px;}.b2c7baa6-2fa3-4c2b-9690-211edcb8a015{stroke-width:10px;}</style></defs><title>phone_voip</title><g id="bdcd5d39-25ba-4514-9919-d1c8a653f4ff" data-name="Layer 4"><path class="b1ec7096-467a-488c-941d-b723f6fcf009" d="M1532,697.24h89.93a113.41,113.41,0,0,0,113.4-113.41v-8.16c0-3.79-.18-7.55-.54-11.26a116.07,116.07,0,0,0-136-102.85A131.77,131.77,0,0,0,1417.36,367a172.8,172.8,0,0,0-323.64,84.3,174.56,174.56,0,0,0,1,18.68A113.85,113.85,0,0,0,985.66,583.83h0a113.41,113.41,0,0,0,113.41,113.41H1209" transform="translate(-975.66 -268.5)"/></g><g id="ac5bb81d-dc09-4b08-9825-1390ee608ee3" data-name="Layer 7"><path class="b2c7baa6-2fa3-4c2b-9690-211edcb8a015" d="M1205.05,591.5c7.31-18.81,24.19-59.58,64.82-93.29,41.72-34.62,87.08-45.43,107-48.93" transform="translate(-975.66 -268.5)"/><path class="b2c7baa6-2fa3-4c2b-9690-211edcb8a015" d="M1260.25,613.81c5.57-14,18.12-45,48.81-70.13,31-25.41,62.29-33.86,77.19-36.49" transform="translate(-975.66 -268.5)"/><path class="b2c7baa6-2fa3-4c2b-9690-211edcb8a015" d="M1307.47,631c3.63-9.81,14-30.48,33.58-47.59,18.84-16.46,42.37-23.84,52.55-25.63" transform="translate(-975.66 -268.5)"/></g><g id="eb5cadd8-a4ef-4aa3-b17f-10b25242e058" data-name="Layer 5"><path d="M1478.6,479a20,20,0,0,1,6.76,1.2s16,8,21.56,10.62a69.2,69.2,0,0,1,18.71,12.39c44.22,41.23-8.18,148-57.49,200.91-27.42,29.41-94.17,87.38-150,87.38-16.52,0-32.09-5.08-45.39-17.48a69.39,69.39,0,0,1-13.66-17.81c-3-5.36-12.09-20.76-12.09-20.76-5.31-12.13,2.33-24.32,14.46-29.63l49.45-21.66a27,27,0,0,1,10.74-2.38c8,0,15,4.29,18.75,12.77l3.4,7.62c3.36,7.54,11.21,11.93,19.25,11.93a21.34,21.34,0,0,0,7.42-1.31c19.9-7.32,43.51-22.39,63.06-43.35,17.67-19,32-44.55,37.81-64.48,3-10.39-2.29-22.17-12.45-25.88l-7.84-2.86c-12.47-4.45-16.86-16.22-12.42-28.69l18.16-50.84c3.64-10.18,12-17.69,21.79-17.69m0-12c-14.53,0-27.52,10.07-33.09,25.65l-18.16,50.84c-3.19,9-3.16,18.19.09,26,3.46,8.34,10.41,14.73,19.55,18l7.8,2.85c4,1.47,6.36,6.72,5,11.25-5.58,19.17-19.67,43.14-35.06,59.65-16.71,17.91-38.55,33-58.43,40.28a9.43,9.43,0,0,1-3.28.57c-3.67,0-7-1.93-8.29-4.81l-3.39-7.6c-5.48-12.47-16.59-19.91-29.72-19.91a38.68,38.68,0,0,0-15.54,3.39l-49.47,21.66a40.11,40.11,0,0,0-19.56,17.64,31.45,31.45,0,0,0-1.08,27.79l.29.66.37.62c.09.15,9,15.36,12,20.56a80.63,80.63,0,0,0,15.93,20.69c14.73,13.75,32.76,20.71,53.57,20.71,26.93,0,58-11.67,92.32-34.69a405.73,405.73,0,0,0,66.44-56.5c27.41-29.4,52.83-71.16,66.34-109,7.84-22,11.53-41.85,11-59.16-.68-21-7.54-37.74-20.41-49.75A81,81,0,0,0,1512.08,480c-5.41-2.57-21.2-10.45-21.36-10.53l-.65-.32-.67-.24a32,32,0,0,0-10.8-1.9Z" transform="translate(-975.66 -268.5)"/></g></svg>